<?xml version="1.0" encoding="UTF-8"?>
<svg width="46px" height="30px" viewBox="0 0 46 30" version="1.1" xmlns="http://www.w3.org/2000/svg" xmlns:xlink="http://www.w3.org/1999/xlink">
    <title>78FED152-EC71-4419-9178-59C1B2CFA6BF</title>
    <defs>
        <radialGradient cx="0%" cy="0%" fx="0%" fy="0%" r="183.964652%" gradientTransform="translate(0.000000,0.000000),scale(0.647619,1.000000),rotate(32.927863),scale(1.000000,1.606518),translate(-0.000000,-0.000000)" id="radialGradient-1">
            <stop stop-color="#FFFFFF" offset="0%"></stop>
            <stop stop-color="#F3F3F3" offset="100%"></stop>
        </radialGradient>
        <rect id="path-2" x="0" y="0" width="46" height="29.7904762" rx="2.4145469"></rect>
        <radialGradient cx="21.0261418%" cy="16.5389623%" fx="21.0261418%" fy="16.5389623%" r="89.5806351%" gradientTransform="translate(0.210261,0.165390),scale(0.647619,1.000000),rotate(48.493154),scale(1.000000,1.092475),translate(-0.210261,-0.165390)" id="radialGradient-4">
            <stop stop-color="#65BCF2" offset="0%"></stop>
            <stop stop-color="#004FC5" offset="100%"></stop>
        </radialGradient>
        <path d="M0,0 L0,29.7904762 L46,29.7904762 L46,15.0862027 L46,0 L0,0 Z" id="path-5"></path>
    </defs>
    <g id="Page-1" stroke="none" stroke-width="1" fill="none" fill-rule="evenodd">
        <g id="Crowdfunding" transform="translate(-982.000000, -1706.000000)">
            <g id="VISA" transform="translate(772.000000, 1706.000000)">
                <g id="img-fi-amex" transform="translate(210.000000, 0.000000)">
                    <mask id="mask-3" fill="white">
                        <use xlink:href="#path-2"></use>
                    </mask>
                    <use id="Mask" fill="url(#radialGradient-1)" xlink:href="#path-2"></use>
                    <g id="img-fi-amex-small" mask="url(#mask-3)">
                        <g transform="translate(0.000000, -0.482716)">
                            <mask id="mask-6" fill="white">
                                <use xlink:href="#path-5"></use>
                            </mask>
                            <use id="Card-Bg-(bank-brand-color)" stroke="none" fill="url(#radialGradient-4)" fill-rule="evenodd" xlink:href="#path-5"></use>
                            <g id="Logo" stroke="none" stroke-width="1" fill="none" fill-rule="evenodd" mask="url(#mask-6)">
                                <g transform="translate(-1.232143, 6.620106)">
                                    <path d="M12.0098067,7.43073102 L12.6608804,7.43073102 L12.8461861,7.00429388 L12.8474381,7.43073102 L23.4399073,7.43073102 L23.4399073,5.47473791 L23.7967458,5.47473791 C23.8418202,5.47473791 23.8818862,5.47601467 23.9169441,5.47601467 C23.9181961,5.52708498 23.9169441,5.5781553 23.9169441,5.61901155 L23.915692,5.73136625 L23.9282126,7.43073102 L29.2757819,7.43073102 L29.2757819,6.84980617 C29.9932151,7.32603687 30.8759209,7.43073102 31.3980319,7.43073102 L33.5553398,7.43073102 L34.0273683,6.22930183 L35.3107348,6.22930183 L35.8027963,7.43073102 L40.0447923,7.43073102 L40.0435402,6.0390649 L40.868651,7.43073102 L44.225437,7.43073102 L44.225437,0 L40.9312542,0 L40.9312542,1.10439559 L40.2776763,0 L36.7844152,0 L36.7844152,1.13248426 L36.3098826,0 L31.4906847,0 C30.5654088,0 29.8392111,0.199174234 29.2757819,0.591138911 L29.2757819,0 L25.9841032,0 L25.9841032,0.338340846 C25.3918765,0.0370259793 24.7708523,0 24.0834687,0 L12.3741576,0 L11.4801832,2.15133707 L10.5085809,0 L6.79996457,0 L6.79996457,1.15291239 L6.31541544,0 L3.11513751,0 L0,7.43073102 L3.55962056,7.43073102 L4.04792588,6.22930183 L5.33755274,6.22930183 L5.8208498,7.43073102 L10.0628457,7.43073102 L10.0628457,7.00174037 L10.2506555,7.43073102 L12.0098067,7.43073102 L12.0098067,7.43073102 Z M29.2757819,2.05813375 C29.3596702,1.91641362 29.4523231,1.77980052 29.5725213,1.65212473 C29.9819465,1.22058056 30.6204996,1.02140633 31.4906847,1.02140633 L32.711448,1.02140633 L32.711448,2.17559547 L31.5182302,2.17559547 C31.0574703,2.17559547 30.7932846,2.24709392 30.5416195,2.49606171 C30.3300206,2.72460137 30.1810248,3.15231527 30.1810248,3.71791903 C30.1810248,4.29629036 30.2899545,4.70995992 30.5303509,4.98318611 C30.7206648,5.19385117 31.0749992,5.26024258 31.4080485,5.26024258 L31.9764859,5.26024258 L33.7556702,1.02140633 L35.6487923,1.02140633 L37.7860671,6.11822389 L37.7860671,1.02140633 L39.712995,1.02140633 L41.9329061,4.77379782 L41.9329061,1.02140633 L43.2250371,1.02140633 L43.2250371,6.41060145 L41.4345843,6.41060145 L39.0406362,2.36966268 L39.0431403,6.41060145 L36.4701469,6.41060145 L35.9780854,5.20789551 L33.3500011,5.20789551 L32.8779727,6.41060145 L31.3980319,6.41060145 C30.782016,6.41060145 30.0044837,6.27015808 29.567513,5.81690903 C29.1192738,5.35472266 28.891398,4.73932535 28.891398,3.75622176 C28.891398,3.13316391 28.9827987,2.55606933 29.2757819,2.05813375 L29.2757819,2.05813375 Z M26.9857552,4.12137453 L26.9857552,1.02140633 L28.27413,1.02140633 L28.27413,6.41060145 L26.9857552,6.41060145 L26.9857552,4.12137453 L26.9857552,4.12137453 Z M21.177426,1.02140633 L24.0834687,1.02140633 C24.725778,1.02140633 25.2040668,1.04183445 25.6122399,1.28186494 C26.0129007,1.52061867 26.2520451,1.87300385 26.2520451,2.47691034 C26.2520451,2.85227717 26.134351,3.13827094 25.9841032,3.36425709 C25.7937894,3.65152762 25.5458805,3.83665751 25.363079,3.91198623 C25.6385333,4.01923389 25.8739215,4.20564055 25.9841032,4.36651204 C26.1631485,4.62952417 26.1969543,4.87466169 26.1969543,5.34961563 L26.1969543,6.41060145 L24.9223522,6.41060145 L24.9173439,5.73136625 C24.9173439,5.41090001 24.9498976,4.94232986 24.7145094,4.68570152 C24.5304559,4.49418783 24.2524974,4.45333158 23.7967458,4.45333158 L22.4382554,4.45333158 L22.4382554,6.41060145 L21.177426,6.41060145 L21.177426,1.02140633 L21.177426,1.02140633 Z M16.0815218,1.02140633 L20.3009806,1.02140633 L20.3009806,2.1475068 L17.3461074,2.1475068 L17.3461074,3.11528929 L20.2283608,3.11528929 L20.2283608,4.2222384 L17.3461074,4.21840813 L17.3461074,5.29471504 L20.3009806,5.29471504 L20.3009806,6.41060145 L16.0815218,6.41060145 L16.0815218,1.02140633 L16.0815218,1.02140633 Z M9.06119381,2.18580954 L9.06119381,6.41060145 L6.49320866,6.41060145 L6.0099116,5.20789551 L3.37807115,5.20789551 L2.89101789,6.41060145 L1.51750268,6.41060145 L3.77622779,1.02140633 L5.65557723,1.02140633 L7.8016165,6.12588444 L7.8016165,1.02140633 L9.86752361,1.02140633 L11.5177452,4.67931773 L13.037752,1.02140633 L15.141221,1.02140633 L15.141221,6.41060145 L13.847838,6.41060145 L13.8403256,2.19474684 L12.0098067,6.41060145 L10.9017292,6.41060145 L9.06119381,2.18580954 L9.06119381,2.18580954 Z" id="Fill-1" fill="#FFFFFF"></path>
                                    <polyline id="Fill-2" fill="#FFFFFF" points="3.68545308 3.91802181 5.42766727 3.91802181 4.55403156 1.89145881 3.68545308 3.91802181"></polyline>
                                    <path d="M24.7272877,3.00383924 C24.8940284,2.92000708 24.9940727,2.75234277 24.9940727,2.53874303 C24.9940727,2.33318199 24.8914631,2.18274346 24.7260051,2.11039516 C24.5708081,2.03345332 24.3360886,2.02656301 24.1077822,2.02656301 L22.5147679,2.02656301 L22.5147679,3.10260041 L24.0872603,3.10260041 C24.3412191,3.10260041 24.5515688,3.09456171 24.7272877,3.00383924" id="Fill-3" fill="#FFFFFF"></path>
                                    <polyline id="Fill-4" fill="#FFFFFF" points="34.6376228 1.89145881 33.7721519 3.91802181 35.5143661 3.91802181 34.6376228 1.89145881"></polyline>
                                    <polyline id="Fill-5" fill="#FFFFFF" points="20.9735785 15.0641183 20.9735785 10.6732318 19.0973478 12.8316842 20.9735785 15.0641183"></polyline>
                                    <path d="M23.7340476,11.1460965 L22.0457103,11.1460965 L22.0457103,12.6322427 L23.721228,12.6322427 C24.2173454,12.6322427 24.5250151,12.36884 24.5250151,11.8628294 C24.5250151,11.3498871 24.2019619,11.1460965 23.7340476,11.1460965" id="Fill-6" fill="#FFFFFF"></path>
                                    <polyline id="Fill-7" fill="#FFFFFF" points="12.8655817 11.1460965 12.8655817 12.0887317 15.6035656 12.0887317 15.6035656 13.1496584 12.8655817 13.1496584 12.8655817 14.185941 15.9311348 14.185941 17.3551336 12.6604739 15.990468 11.1460965 12.8655817 11.1460965"></polyline>
                                    <path d="M47.2476411,12.3077792 L47.3897693,12.3077792 L47.3897693,9.11953353 L43.8689803,9.11953353 C43.2780264,9.11953353 42.7980321,9.25865233 42.4003226,9.4743503 L42.4003226,9.11953353 L38.8807804,9.11953353 C38.3222417,9.11953353 37.8621952,9.2433365 37.4769531,9.43733704 L37.4769531,9.11953353 L31.2819105,9.11953353 L31.2819105,9.44754759 C30.6759957,9.15654679 30.0788081,9.11953353 29.421777,9.11953353 L25.5219796,9.11953353 L25.5219796,9.46924502 C25.0931016,9.25609969 24.5358096,9.11953353 23.8077145,9.11953353 L19.3543653,9.11953353 L18.2023791,10.3894712 L17.0890418,9.11953353 L10.5873016,9.11953353 L10.5873016,16.5502646 L17.0017701,16.5502646 L17.2984938,16.2222505 L18.1612367,15.2662873 L19.2770675,16.5502646 L23.1631508,16.5502646 L23.1631508,14.7429964 L23.7354036,14.7429964 C24.5033944,14.7429964 25.076894,14.5962197 25.5219796,14.3741401 L25.5219796,16.5502646 L28.77846,16.5502646 L28.77846,14.5809039 L29.1275467,14.5809039 C29.1774163,14.5809039 29.2198054,14.5821802 29.2559608,14.5834565 C29.2572075,14.6421672 29.2559608,14.7021542 29.2559608,14.7468254 L29.2559608,14.8540362 L29.2559608,16.5502646 L39.6811864,16.5502646 C40.2796208,16.5502646 40.7895367,16.4341195 41.2209082,16.2350137 L41.2209082,16.5502646 L44.6706331,16.5502646 C46.5320133,16.5502646 47.6428571,15.5317617 47.6428571,13.8265991 C47.6428571,13.2126896 47.5156898,12.7200303 47.2476411,12.3077792 L47.2476411,12.3077792 Z M25.1928407,13.4054138 C25.1554385,13.4271112 25.1130494,13.4449797 25.0731538,13.4641245 C24.9846354,13.5087956 24.8923768,13.5470852 24.7951312,13.5789932 C24.7465084,13.5930327 24.6991323,13.6070722 24.6492628,13.6198354 C24.5470303,13.6453618 24.4423042,13.6645066 24.3350847,13.6785461 C24.2889554,13.6849277 24.2453196,13.6938619 24.1979435,13.6989672 C24.0458415,13.7130067 23.8912459,13.721941 23.7354036,13.721941 L22.1657601,13.721941 L22.1657601,15.5292091 L19.7246465,15.5292091 L18.1749508,13.7474673 L16.5654117,15.5292091 L11.5846922,15.5292091 L11.5846922,10.140589 L16.6439562,10.140589 L18.1899117,11.9044623 L19.7894769,10.140589 L23.8077145,10.140589 C23.9485959,10.140589 24.0932175,10.1482469 24.2365924,10.1622864 C24.2789815,10.1661154 24.3188772,10.1737733 24.3612663,10.1801549 C24.4647455,10.1941944 24.5669781,10.2133392 24.6667171,10.2375892 C24.7128465,10.2490761 24.7564823,10.2618393 24.8013649,10.2758788 C24.9011039,10.3065105 24.9946093,10.3473527 25.0868679,10.3933002 C25.1217766,10.4098924 25.157932,10.4239319 25.1903472,10.444353 C25.3125276,10.5158269 25.424734,10.5987876 25.5219796,10.7047221 C25.7700805,10.9727492 25.9259228,11.3607502 25.9259228,11.9172255 C25.9259228,12.6919513 25.6291991,13.1450446 25.1928407,13.4054138 L25.1928407,13.4054138 Z M31.3043518,13.478164 C31.4826354,13.7423621 31.5113104,13.9874154 31.5138038,14.4634825 L31.5138038,15.5292091 L30.2533514,15.5292091 L30.2533514,14.8540362 C30.2533514,14.5298511 30.2820264,14.0525077 30.0488863,13.8023491 C29.8656158,13.6045196 29.5850997,13.5598484 29.1275467,13.5598484 L27.7810694,13.5598484 L27.7810694,15.5292091 L26.520617,15.5292091 L26.520617,10.140589 L29.421777,10.140589 C30.060107,10.140589 30.5251404,10.1673917 30.936564,10.3984055 C31.0724585,10.4813662 31.1834182,10.5834718 31.2819105,10.6983405 C31.465181,10.9153148 31.579881,11.1922761 31.579881,11.5943167 C31.579881,12.4507269 31.0213422,12.8897808 30.6884631,13.0237943 C30.8243576,13.0748471 30.9440444,13.1450446 31.046277,13.2216238 C31.1584834,13.3045845 31.2494953,13.3952032 31.3043518,13.478164 L31.3043518,13.478164 Z M36.4795625,10.3358658 L36.4795625,11.2573684 L33.5335199,11.2573684 L33.5335199,12.2337526 L36.4060049,12.2337526 L36.4060049,13.3326636 L33.5335199,13.3326636 L33.5335199,14.4060481 L36.4795625,14.4111534 L36.4795625,15.5292091 L32.2793012,15.5292091 L32.2793012,10.140589 L36.4795625,10.140589 L36.4795625,10.3358658 L36.4795625,10.3358658 Z M41.2209082,15.0059182 L41.2209082,15.0059182 C41.1523376,15.0773921 41.0725463,15.1373791 40.9865214,15.1935371 C40.8655878,15.2739452 40.7346803,15.3454191 40.5838249,15.3964719 C40.5227347,15.4156167 40.4541641,15.4283799 40.388087,15.4436957 C40.1773882,15.4947485 39.9467417,15.5292091 39.6811864,15.5292091 L37.2288522,15.5292091 L37.2288522,14.3728638 L39.6712125,14.3728638 C39.9130797,14.3728638 40.0788959,14.3409558 40.1848687,14.2388503 C40.2708936,14.1597185 40.3344773,14.0397445 40.3344773,13.8891388 C40.3344773,13.7321515 40.2684001,13.6045196 40.178635,13.5330457 C40.0826361,13.4475323 39.9517286,13.4130717 39.7323027,13.410519 C39.5390582,13.4041375 39.3370866,13.3977559 39.135115,13.3900979 C39.111427,13.3888216 39.087739,13.3875453 39.0628042,13.386269 C38.630186,13.3645716 38.206295,13.3071372 37.858455,13.142492 L37.8572083,13.142492 C37.6814182,13.0582549 37.5280694,12.9446625 37.4033955,12.7927805 C37.2089044,12.5528325 37.0829838,12.2235421 37.0829838,11.7423697 C37.0829838,11.2611973 37.2675011,10.7634328 37.7188203,10.4532872 C37.7200671,10.4520109 37.7200671,10.4507346 37.7213138,10.4507346 C37.806092,10.3933002 37.9008441,10.3448001 38.0030767,10.3014052 C38.0142973,10.2962999 38.0242712,10.2899183 38.0354919,10.2848131 C38.1314907,10.2465235 38.2412037,10.2197208 38.3534101,10.1954707 C38.3770981,10.1916417 38.397046,10.1827075 38.420734,10.1776022 C38.5616154,10.1533522 38.7137175,10.140589 38.8807804,10.140589 L41.402932,10.140589 L41.402932,11.2867237 L39.0964661,11.2867237 C38.8658196,11.2867237 38.7174577,11.2969343 38.5902904,11.383724 C38.4543959,11.47179 38.4032797,11.6032509 38.4032797,11.7742777 C38.4032797,11.9746598 38.5204731,12.1137786 38.6775621,12.1737656 C38.8097163,12.2209895 38.9505978,12.2337526 39.1650367,12.2363053 L39.8445091,12.2541738 C40.0040916,12.2580027 40.14996,12.2694896 40.2846077,12.2860817 C40.4080348,12.3013976 40.5177478,12.3243713 40.6224738,12.3498977 C40.6299542,12.351174 40.6386814,12.3524503 40.6461618,12.355003 C40.9117171,12.4226479 41.1249093,12.5273061 41.2782582,12.6855697 C41.5276058,12.9484915 41.6560199,13.2765055 41.6560199,13.8265991 C41.6560199,14.3486137 41.4939439,14.7276806 41.2209082,15.0059182 L41.2209082,15.0059182 Z M44.6706331,15.5292091 L42.2182988,15.5292091 L42.2182988,14.3728638 L44.6606591,14.3728638 C44.9025264,14.3728638 45.0670958,14.3409558 45.1743153,14.2388503 C45.2603403,14.1597185 45.3226772,14.0397445 45.3226772,13.8891388 C45.3226772,13.7321515 45.2578468,13.6045196 45.1680816,13.5330457 C45.0720828,13.4475323 44.9411753,13.4130717 44.7217493,13.410519 C44.5397255,13.4041375 44.3502213,13.3990322 44.1607171,13.3913743 C44.1445095,13.3913743 44.1283019,13.3900979 44.1120943,13.3888216 C43.9188499,13.3798874 43.7293456,13.3632952 43.5435816,13.3377688 C43.5398414,13.3377688 43.5373479,13.3364925 43.5348545,13.3364925 C42.7406822,13.2241764 42.0724304,12.8885044 42.0724304,11.7423697 C42.0724304,11.3939345 42.1759097,11.0391178 42.4003226,10.7506696 C42.4663997,10.6664325 42.5436975,10.5885771 42.6322159,10.5171032 C42.6396964,10.5119979 42.6459301,10.5056163 42.6521638,10.500511 C42.7332017,10.4379714 42.8242136,10.384366 42.9251994,10.3371421 C42.9451473,10.3269316 42.9626016,10.3154447 42.9825494,10.3065105 C43.0773015,10.2656683 43.1832743,10.2350366 43.2954807,10.2095102 C43.3278959,10.2018523 43.3553242,10.1903654 43.3889861,10.1839838 C43.5348545,10.1571811 43.694437,10.140589 43.8689803,10.140589 L46.3923786,10.140589 L46.3923786,11.2867237 L44.0859128,11.2867237 C43.8552662,11.2867237 43.7069044,11.2969343 43.579737,11.383724 C43.4438426,11.47179 43.3927263,11.6032509 43.3927263,11.7742777 C43.3927263,11.9746598 43.508673,12.1137786 43.6670087,12.1737656 C43.799163,12.2209895 43.9400444,12.2337526 44.1544834,12.2363053 L44.8339558,12.2541738 C45.5184151,12.2733185 45.9834485,12.3932926 46.2677048,12.6855697 C46.5158057,12.9484915 46.6454665,13.2765055 46.6454665,13.8265991 C46.6454665,14.9880497 45.9373192,15.5292091 44.6706331,15.5292091 L44.6706331,15.5292091 Z" id="Fill-8" fill="#FFFFFF"></path>
                                    <path d="M30.0865254,11.2310771 C29.9338146,11.1495417 29.7002569,11.1460965 29.470549,11.1460965 L27.875427,11.1460965 L27.875427,12.2336178 L29.4500165,12.2336178 C29.7002569,12.2336178 29.9158486,12.2244307 30.0865254,12.1348566 C30.2546356,12.0429858 30.3547318,11.8741731 30.3547318,11.668612 C30.3547318,11.4607542 30.2546356,11.3114641 30.0865254,11.2310771" id="Fill-9" fill="#FFFFFF"></path>
                                    <path d="M25.3961222,3.66760618 C25.5624366,3.59985142 25.7879863,3.43333549 25.9611356,3.17494871 C25.7879863,3.43333549 25.5624366,3.59985142 25.3961222,3.66760618" id="Fill-10" fill="#2584BA"></path>
                                    <path d="M24.1435372,13.51042 C24.0045621,13.5230523 23.8633087,13.531091 23.7209162,13.531091 C23.8633087,13.531091 24.0045621,13.5230523 24.1435372,13.51042" id="Fill-11" fill="#2584BA"></path>
                                    <path d="M23.7879245,10.132815 C23.9166473,10.132815 24.0487875,10.1397053 24.1797886,10.1523376 C24.0487875,10.1397053 23.9166473,10.132815 23.7879245,10.132815" id="Fill-12" fill="#2584BA"></path>
                                    <path d="M24.7450701,13.51042 C24.6516606,13.5333878 24.5559729,13.5506135 24.4580068,13.5632458 C24.5559729,13.5506135 24.6516606,13.5333878 24.7450701,13.51042" id="Fill-13" fill="#2584BA"></path>
                                    <path d="M25.0470763,13.3753158 C24.9661973,13.4155093 24.8819009,13.4499609 24.793048,13.4786706 C24.8819009,13.4499609 24.9661973,13.4155093 25.0470763,13.3753158" id="Fill-14" fill="#2584BA"></path>
                                    <path d="M24.793048,10.132815 C24.8841792,10.1615247 24.9707539,10.1971246 25.0539111,10.2384665 C24.9696147,10.1971246 24.8841792,10.1603763 24.793048,10.132815" id="Fill-15" fill="#2584BA"></path>
                                    <path d="M24.4580068,10.132815 C24.5525555,10.1454473 24.6459649,10.1626731 24.7370961,10.1844924 C24.6459649,10.1626731 24.5525555,10.1454473 24.4580068,10.132815" id="Fill-16" fill="#2584BA"></path>
                                    <path d="M25.2621057,10.3354713 C25.3737414,10.3997809 25.4774032,10.474426 25.5651169,10.569742 C25.476264,10.474426 25.3737414,10.3997809 25.2621057,10.3354713" id="Fill-17" fill="#2584BA"></path>
                                    <path d="M41.1561917,14.7939099 C41.093539,14.8570712 41.0183557,14.9110453 40.9420334,14.9627226 C41.020634,14.9121937 41.093539,14.8582195 41.1561917,14.7939099" id="Fill-18" fill="#2584BA"></path>
                                    <path d="M38.3957203,10.1661182 C38.5244431,10.1442989 38.6634182,10.132815 38.816063,10.132815 C38.6634182,10.132815 38.5244431,10.1442989 38.3957203,10.1661182" id="Fill-19" fill="#2584BA"></path>
                                    <path d="M40.6518207,15.1992225 C40.597142,15.2175967 40.532211,15.2267838 40.4729757,15.2417128 C40.5333501,15.2279322 40.5960028,15.2164483 40.6518207,15.1992225" id="Fill-20" fill="#2584BA"></path>
                                    <path d="M37.6586297,10.4698325 C37.7349521,10.4181551 37.8226659,10.3745164 37.9160753,10.3354713 C37.8226659,10.3745164 37.7360912,10.4181551 37.6586297,10.4698325" id="Fill-21" fill="#2584BA"></path>
                                    <path d="M39.678459,13.2585858 C39.5018923,13.2528439 39.3173516,13.2482503 39.1328109,13.2402116 C39.3173516,13.247102 39.5018923,13.2528439 39.678459,13.2585858" id="Fill-22" fill="#2584BA"></path>
                                    <path d="M39.0940802,13.256897 C38.6999377,13.2350777 38.3092127,13.1868455 37.9936709,13.0375553 C38.311491,13.1856971 38.6987986,13.2373745 39.0940802,13.256897" id="Fill-23" fill="#2584BA"></path>
                                    <path d="M38.1276874,10.213202 C38.2154011,10.1787505 38.3156455,10.1546344 38.4181681,10.132815 C38.3156455,10.1546344 38.2154011,10.1787505 38.1276874,10.213202" id="Fill-24" fill="#2584BA"></path>
                                    <path d="M40.271951,12.159378 C40.3835867,12.1731587 40.4861093,12.1926812 40.5806579,12.2167973 C40.4849702,12.1938296 40.3847258,12.1731587 40.271951,12.159378" id="Fill-25" fill="#2584BA"></path>
                                    <path d="M37.8052437,12.9469004 C37.644625,12.8699586 37.5045107,12.7689006 37.3905967,12.6322427 C37.5045107,12.7689006 37.644625,12.871107 37.8052437,12.9469004" id="Fill-26" fill="#2584BA"></path>
                                    <path d="M44.8720665,13.2574374 C44.7057521,13.2516955 44.5326028,13.2482503 44.3594535,13.2402116 C44.5326028,13.247102 44.7057521,13.2516955 44.8720665,13.2574374" id="Fill-27" fill="#2584BA"></path>
                                    <path d="M42.7512558,10.4824647 C42.8241607,10.4261938 42.9095962,10.3779616 43.0007274,10.3354713 C42.9084571,10.3779616 42.8252999,10.4261938 42.7512558,10.4824647" id="Fill-28" fill="#2584BA"></path>
                                    <path d="M43.4213382,10.1718601 C43.5546175,10.1465957 43.6992883,10.132815 43.8599071,10.132815 C43.7004275,10.132815 43.5546175,10.147744 43.4213382,10.1718601" id="Fill-29" fill="#2584BA"></path>
                                    <path d="M42.6172393,10.6807301 C42.6776137,10.6049367 42.7482404,10.5348851 42.8291193,10.4705755 C42.7482404,10.5348851 42.6776137,10.6049367 42.6172393,10.6807301" id="Fill-30" fill="#2584BA"></path>
                                    <path d="M44.1418107,13.2861471 C43.9663832,13.2781084 43.7909556,13.2643277 43.6223629,13.2402116 C43.7920947,13.2631794 43.965244,13.2781084 44.1418107,13.2861471" id="Fill-31" fill="#2584BA"></path>
                                    <path d="M43.0192887,10.2200923 C43.1058634,10.183344 43.2038294,10.1569311 43.3052129,10.132815 C43.2026903,10.1557827 43.1058634,10.183344 43.0192887,10.2200923" id="Fill-32" fill="#2584BA"></path>
                                    <path d="M31.0248141,10.3354713 C31.1489804,10.4101164 31.2503639,10.5019873 31.3403559,10.605342 C31.2503639,10.5019873 31.1489804,10.4101164 31.0248141,10.3354713" id="Fill-33" fill="#2584BA"></path>
                                </g>
                            </g>
                        </g>
                    </g>
                </g>
            </g>
        </g>
    </g>
</svg>