<?xml version="1.0" encoding="UTF-8"?>
<svg width="48px" height="32px" viewBox="0 0 48 32" version="1.1" xmlns="http://www.w3.org/2000/svg" xmlns:xlink="http://www.w3.org/1999/xlink">
    <title>B4F94601-8B1F-44D6-B520-078BD9A59A0F</title>
    <g id="Page-1" stroke="none" stroke-width="1" fill="none" fill-rule="evenodd">
        <g id="Donate-Now" transform="translate(-849.000000, -1849.000000)">
            <g id="VISA" transform="translate(702.000000, 1850.000000)">
                <g id="img-fi-mastercard" transform="translate(148.000000, 0.000000)">
                    <rect id="Rectangle" stroke="#3A3F47" opacity="0.2" x="0" y="0" width="46" height="30" rx="2.48161765"></rect>
                    <g id="Mastercard-logo" transform="translate(7.474980, 5.147059)">
                        <polygon id="Fill-4" fill="#FF5F00" points="10.8408951 17.6657692 20.0224588 17.6657692 20.0224588 2.11467033 10.8408951 2.11467033"></polygon>
                        <path d="M11.788672,9.89008242 C11.788672,6.73513736 13.2132649,3.92552198 15.431624,2.11453297 C13.8091194,0.790082418 11.7621778,-2.74725275e-05 9.53719524,-2.74725275e-05 C4.26988412,-2.74725275e-05 7.94825882e-05,4.42799451 7.94825882e-05,9.89008242 C7.94825882e-05,15.3521703 4.26988412,19.7801923 9.53719524,19.7801923 C11.7621778,19.7801923 13.8091194,18.9900824 15.431624,17.6656319 C13.2132649,15.8546429 11.788672,13.0450275 11.788672,9.89008242" id="Fill-6" fill="#EB001B"></path>
                        <path d="M30.5710254,16.1155495 L30.5710254,15.6347802 L30.4736414,15.6347802 L30.3615832,15.9655026 L30.2497917,15.6347802 L30.1524078,15.6347802 L30.1524078,16.1155495 L30.2209768,16.1155495 L30.2209768,15.7528216 L30.3260981,16.0656486 L30.3973351,16.0656486 L30.5021896,15.7521333 L30.5021896,16.1155495 L30.5710254,16.1155495 Z M29.9544382,16.1155495 L29.9544382,15.7166865 L30.0793031,15.7166865 L30.0793031,15.6354685 L29.7618047,15.6354685 L29.7618047,15.7166865 L29.8864028,15.7166865 L29.8864028,16.1155495 L29.9544382,16.1155495 Z" id="Fill-7" fill="#F79E1B"></path>
                        <path d="M21.3260527,19.7801923 C19.1010701,19.7801923 17.0538636,18.9900824 15.431624,17.6656319 C17.649983,15.8546429 19.0745759,13.0450275 19.0745759,9.89008242 C19.0745759,6.73513736 17.649983,3.92552198 15.431624,2.11453297 C17.0538636,0.790082418 19.1010701,-2.74725275e-05 21.3260527,-2.74725275e-05 C26.5930989,-2.74725275e-05 30.8631685,4.42799451 30.8631685,9.89008242 C30.8631685,15.3521703 26.5930989,19.7801923 21.3260527,19.7801923 Z" id="Fill-8" fill="#F79E1B"></path>
                    </g>
                </g>
            </g>
        </g>
    </g>
</svg>