<?xml version="1.0" encoding="UTF-8"?>
<svg width="6px" height="10px" viewBox="0 0 6 10" version="1.1" xmlns="http://www.w3.org/2000/svg" xmlns:xlink="http://www.w3.org/1999/xlink">
    <title>CFBDE93C-EB69-4C0C-AE44-ED367899468F</title>
    <g id="Page-1" stroke="none" stroke-width="1" fill="none" fill-rule="evenodd" opacity="0.8">
        <g id="Mission,-Vision-&amp;-Values" transform="translate(-649.000000, -443.000000)" fill="#3A3F47" fill-rule="nonzero" stroke="#3A3F47" stroke-width="0.5">
            <g id="Breadcrumbs" transform="translate(565.000000, 436.000000)">
                <path d="M88.706695,16 C88.8724761,16 89,15.8560288 89,15.6688662 C89,15.5776845 88.9702444,15.4913017 88.9192349,15.4337133 L85.7226355,11.9976005 L88.9192349,8.57108578 C88.9702444,8.50869826 89,8.4175165 89,8.33113377 C89,8.14397121 88.8724761,8 88.706695,8 C88.6259299,8 88.5579171,8.03839232 88.498406,8.10077984 L85.1062699,11.7384523 C85.042508,11.8104379 85,11.9016197 85,12.0023995 C85,12.1031794 85.0382572,12.184763 85.1062699,12.2615477 L88.498406,15.8992202 C88.5536663,15.9616077 88.6259299,16 88.706695,16 Z" id="􀆉-copy" transform="translate(87.000000, 12.000000) scale(-1, 1) translate(-87.000000, -12.000000) "></path>
            </g>
        </g>
    </g>
</svg>