<?xml version="1.0" encoding="UTF-8"?>
<svg width="10px" height="16px" viewBox="0 0 10 16" version="1.1" xmlns="http://www.w3.org/2000/svg" xmlns:xlink="http://www.w3.org/1999/xlink">
    <title>C2793F45-6E3C-4FD9-B8A6-43627D357A7E</title>
    <g id="Page-1" stroke="none" stroke-width="1" fill="none" fill-rule="evenodd">
        <g id="Careers" transform="translate(-1135.000000, -1211.000000)" fill="#3A3F47" fill-rule="nonzero" stroke="#3A3F47" stroke-width="0.75">
            <g id="Career-Opening" transform="translate(160.000000, 728.000000)">
                <g id="Arrow" transform="translate(954.000000, 465.000000)">
                    <g id="Group-11" transform="translate(26.000000, 26.000000) scale(-1, 1) translate(-26.000000, -26.000000) ">
                        <path d="M29.41339,33 C29.7449522,33 30,32.7480504 30,32.4205159 C30,32.2609478 29.9404888,32.109778 29.8384697,32.0089982 L23.445271,25.9958008 L29.8384697,19.9994001 C29.9404888,19.890222 30,19.7306539 30,19.5794841 C30,19.2519496 29.7449522,19 29.41339,19 C29.2518597,19 29.1158342,19.0671866 28.9968119,19.1763647 L22.2125399,25.5422915 C22.0850159,25.6682663 22,25.8278344 22,26.0041992 C22,26.1805639 22.0765143,26.3233353 22.2125399,26.4577085 L28.9968119,32.8236353 C29.1073326,32.9328134 29.2518597,33 29.41339,33 Z" id="􀆉" transform="translate(26.000000, 26.000000) scale(-1, 1) translate(-26.000000, -26.000000) "></path>
                    </g>
                </g>
            </g>
        </g>
    </g>
</svg>