<?xml version="1.0" encoding="UTF-8"?>
<svg width="8.5px" height="16px" viewBox="0 0 7 11" version="1.1" xmlns="http://www.w3.org/2000/svg" xmlns:xlink="http://www.w3.org/1999/xlink">
    <title>D6E5C31C-1199-4168-84DF-762E0D225B04</title>
    <g id="Page-1" stroke="none" stroke-width="1" fill="none" fill-rule="evenodd">
        <g id="Explore" transform="translate(-450.000000, -465.000000)" fill="#3A3F47" fill-rule="nonzero">
            <g id="Event1" transform="translate(146.000000, 234.000000)">
                <path d="M304.815867,242 C305.042116,242 305.227228,241.925592 305.384917,241.789177 L310.718903,237.076663 C310.904016,236.903044 311,236.723224 311,236.5 C311,236.282976 310.910872,236.090755 310.718903,235.929538 L305.384917,231.210823 C305.227228,231.074408 305.042116,231 304.815867,231 C304.356513,231 304,231.322435 304,231.73168 C304,231.930101 304.095984,232.122322 304.246817,232.264938 L309.052889,236.506201 L304.246817,240.735062 C304.089128,240.883878 304,241.063698 304,241.26832 C304,241.677565 304.356513,242 304.815867,242 Z" id="􀆊-copy-5"></path>
            </g>
        </g>
    </g>
</svg>