<?xml version="1.0" encoding="UTF-8"?>
<svg width="38px" height="37px" viewBox="0 0 38 37" version="1.1" xmlns="http://www.w3.org/2000/svg" xmlns:xlink="http://www.w3.org/1999/xlink">
    <title>9E635316-9974-4010-8248-DC7E5253AABA</title>
    <g id="Page-1" stroke="none" stroke-width="1" fill="none" fill-rule="evenodd">
        <g id="Donate-Now" transform="translate(-721.000000, -2105.000000)" fill="#3A3F47">
            <g id="Other-ways-of-donation" transform="translate(160.000000, 1960.000000)">
                <g id="Bank-Account" transform="translate(472.000000, 78.000000)">
                    <g id="Bank" transform="translate(89.000000, 67.000000)">
                        <path d="M2.49284637,11.8211867 C3.07089813,11.5320815 3.6489499,11.2388462 4.22700166,10.949741 C5.61268604,10.2517584 6.99837041,9.5537758 8.38405479,8.8557932 C10.0526156,8.01738806 11.725276,7.17485285 13.3938368,6.33644772 C14.8369163,5.60955459 16.2799959,4.88266147 17.7230755,4.15989842 C18.4282167,3.80471201 19.1374575,3.4660459 19.8343993,3.09846926 C19.8425987,3.09433919 19.8548976,3.09020911 19.8630969,3.08194896 C19.3096431,3.08194896 18.760289,3.08194896 18.2068351,3.08194896 C18.7807873,3.36692411 19.3547394,3.65189925 19.9286915,3.9368744 C21.3061765,4.62246677 22.6836616,5.30805915 24.0611466,5.99365153 C25.7297074,6.82379652 27.3941685,7.6539415 29.0627293,8.48408649 C30.5058089,9.20271946 31.9447888,9.91722236 33.3878684,10.6358553 C34.0889099,10.9827816 34.7817521,11.3503582 35.4909929,11.6807642 C35.4991922,11.6848943 35.5114912,11.6890243 35.5196905,11.6972845 C35.2491131,11.2223259 34.9785357,10.7473673 34.7079582,10.2724088 C34.7120579,10.8010583 34.7161576,11.3297079 34.7202572,11.8583574 C35.2655117,11.3090575 35.8148659,10.7556275 36.3601204,10.2063276 C36.052646,10.2063276 35.741072,10.2063276 35.4335977,10.2063276 C34.5931678,10.2063276 33.7527379,10.2063276 32.9123081,10.2063276 C31.6701117,10.2063276 30.4238157,10.2063276 29.1816194,10.2063276 C27.6565466,10.2063276 26.1314739,10.2063276 24.6064011,10.2063276 C22.94194,10.2063276 21.2815786,10.2063276 19.6171175,10.2063276 C17.9362577,10.2063276 16.2594976,10.2063276 14.5786379,10.2063276 C13.0125686,10.2063276 11.4464992,10.2063276 9.88042992,10.2063276 C8.55624042,10.2063276 7.23205091,10.2063276 5.91196107,10.2063276 C4.96084043,10.2063276 4.00971979,10.2063276 3.0544995,10.2063276 C2.60353713,10.2063276 2.1484751,10.1980674 1.69751273,10.2063276 C1.67701444,10.2063276 1.66061581,10.2063276 1.64011752,10.2063276 C2.18537202,10.7556275 2.73472618,11.3090575 3.27998069,11.8583574 C3.28818,11.3710086 3.29637932,10.8836598 3.30457863,10.396311 C3.32097726,9.53312543 2.5379426,8.70298044 1.66471547,8.74428119 C0.762790728,8.78558193 0.0412509351,9.47117431 0.0248523034,10.396311 C0.0166529876,10.8836598 0.00845367176,11.3710086 0,11.8583574 C-0.0161442757,12.7504535 0.762790728,13.5103872 1.64011752,13.5103872 C1.94759186,13.5103872 2.25916587,13.5103872 2.56664021,13.5103872 C3.40707008,13.5103872 4.24749995,13.5103872 5.08792983,13.5103872 C6.33012617,13.5103872 7.57642218,13.5103872 8.81861853,13.5103872 C10.3436913,13.5103872 11.868764,13.5103872 13.3938368,13.5103872 C15.0582979,13.5103872 16.7186593,13.5103872 18.3831204,13.5103872 C20.0639802,13.5103872 21.7407403,13.5103872 23.4216,13.5103872 C24.9876693,13.5103872 26.5537387,13.5103872 28.119808,13.5103872 C29.4439975,13.5103872 30.768187,13.5103872 32.0882768,13.5103872 C33.0393975,13.5103872 33.9905181,13.5103872 34.9457384,13.5103872 C35.3967008,13.5103872 35.8517628,13.5145173 36.3027252,13.5103872 C36.3232235,13.5103872 36.3396221,13.5103872 36.3601204,13.5103872 C37.2415468,13.5103872 38.0040832,12.7545836 38,11.8583574 C37.9958839,11.3297079 37.9917842,10.8010583 37.9876846,10.2724088 C37.9835849,9.72310886 37.6843099,9.0994676 37.1759523,8.84753305 C36.5938009,8.55842783 36.0116495,8.26932261 35.4335977,7.98021739 C34.039714,7.28636487 32.6458303,6.59251234 31.2519466,5.89865981 C29.5792862,5.06438475 27.9066258,4.23423977 26.2339653,3.3999647 C24.7949854,2.68133173 23.3519058,1.96682883 21.9129259,1.24819586 C21.2323827,0.909529745 20.5600388,0.562603482 19.8794956,0.236327592 C19.8753959,0.232197517 19.8712963,0.232197517 19.8630969,0.228067443 C19.8630969,0.228067443 19.8630969,0.228067443 19.8589973,0.228067443 C19.5966192,0.104165206 19.3342411,-0.0114768817 19.0308664,0.000913341998 C18.7274917,0.0133035657 18.4815122,0.0917749823 18.2027355,0.228067443 C18.1904365,0.232197517 18.1822372,0.240457666 18.1699382,0.244587741 C18.0920447,0.281758412 18.0100516,0.323059158 17.9321581,0.364359903 C17.5672885,0.546083184 17.2065186,0.727806465 16.8416491,0.91365982 C15.5256589,1.57447175 14.2096687,2.23528368 12.8977781,2.90022568 C11.2374167,3.73450074 9.57295558,4.57290588 7.91259413,5.40718094 C6.40801967,6.16298459 4.90754488,6.91878823 3.40297042,7.67459187 C2.58303884,8.08759933 1.76720692,8.49647671 0.947275334,8.90948417 C0.910378412,8.93013454 0.869381833,8.94665484 0.832484912,8.96730521 C0.48401399,9.14489842 0.184738962,9.58268632 0.0822475142,9.95439303 C-0.0243435915,10.3508802 0.0248523034,10.8753997 0.246233831,11.226456 C0.754591412,12.0194303 1.66881513,12.2341942 2.49284637,11.8211867 Z" id="Path" fill-rule="nonzero"></path>
                        <polygon id="Rectangle" points="17.4932924 2.06332011 27.7466462 5.15830028 33.8986585 11.3482606 4.16393253 11.3482606"></polygon>
                        <path d="M1.90659529,36.9985498 C2.20996997,36.9985498 2.51334466,36.9985498 2.81671934,36.9985498 C3.6489499,36.9985498 4.48118045,36.9985498 5.31341101,36.9985498 C6.53920873,36.9985498 7.76500644,36.9985498 8.99080416,36.9985498 C10.4871793,36.9985498 11.9794548,36.9985498 13.4758299,36.9985498 C15.1115934,36.9985498 16.7514566,36.9985498 18.3872201,36.9985498 C20.0475815,36.9985498 21.7038433,36.9985498 23.3642048,36.9985498 C24.9056762,36.9985498 26.4471475,36.9985498 27.9845193,36.9985498 C29.2882105,36.9985498 30.587802,36.9985498 31.8914933,36.9985498 C32.8262153,36.9985498 33.7650369,36.9985498 34.6997589,36.9985498 C35.142522,36.9985498 35.5893847,37.0018128 36.0321477,36.9985498 C36.052646,36.9985498 36.0690447,36.9985498 36.089543,36.9985498 C36.9750691,36.9985498 37.7294061,36.401413 37.7294061,35.6933328 C37.7294061,34.7144201 37.7294061,33.7322443 37.7294061,32.7533316 C37.7294061,32.6162839 37.7294061,32.4792361 37.7294061,32.3389253 C37.7294061,31.6341081 36.9791687,31.0337083 36.089543,31.0337083 C35.7861683,31.0337083 35.4827936,31.0337083 35.1794189,31.0337083 C34.3471883,31.0337083 33.5149578,31.0337083 32.6827272,31.0337083 C31.4569295,31.0337083 30.2311318,31.0337083 29.0053341,31.0337083 C27.5089589,31.0337083 26.0166835,31.0337083 24.5203083,31.0337083 C22.8845448,31.0337083 21.2446817,31.0337083 19.6089182,31.0337083 C17.9485567,31.0337083 16.2922949,31.0337083 14.6319334,31.0337083 C13.0904621,31.0337083 11.5489907,31.0337083 10.011619,31.0337083 C8.70792776,31.0337083 7.4083362,31.0337083 6.10464499,31.0337083 C5.16992298,31.0337083 4.23110132,31.0337083 3.29637932,31.0337083 C2.85361626,31.0337083 2.40675355,31.0304453 1.9639905,31.0337083 C1.94349221,31.0337083 1.92709357,31.0337083 1.90659529,31.0337083 C1.02106918,31.0337083 0.26673212,31.6308451 0.26673212,32.3389253 C0.26673212,33.317838 0.26673212,34.3000137 0.26673212,35.2789264 C0.26673212,35.4159742 0.26673212,35.553022 0.26673212,35.6933328 C0.26673212,36.3753087 1.02106918,37.0279171 1.90659529,36.9985498 C2.79622105,36.9659193 3.54645845,36.4242543 3.54645845,35.6933328 C3.54645845,34.7144201 3.54645845,33.7322443 3.54645845,32.7533316 C3.54645845,32.6162839 3.54645845,32.4792361 3.54645845,32.3389253 C3.00120395,32.7729099 2.45184979,33.2101576 1.90659529,33.6441422 C2.20996997,33.6441422 2.51334466,33.6441422 2.81671934,33.6441422 C3.6489499,33.6441422 4.48118045,33.6441422 5.31341101,33.6441422 C6.53920873,33.6441422 7.76500644,33.6441422 8.99080416,33.6441422 C10.4871793,33.6441422 11.9794548,33.6441422 13.4758299,33.6441422 C15.1115934,33.6441422 16.7514566,33.6441422 18.3872201,33.6441422 C20.0475815,33.6441422 21.7038433,33.6441422 23.3642048,33.6441422 C24.9056762,33.6441422 26.4471475,33.6441422 27.9845193,33.6441422 C29.2882105,33.6441422 30.587802,33.6441422 31.8914933,33.6441422 C32.8262153,33.6441422 33.7650369,33.6441422 34.6997589,33.6441422 C35.142522,33.6441422 35.5893847,33.6474052 36.0321477,33.6441422 C36.052646,33.6441422 36.0690447,33.6441422 36.089543,33.6441422 C35.5442885,33.2101576 34.9949343,32.7729099 34.4496798,32.3389253 C34.4496798,33.317838 34.4496798,34.3000137 34.4496798,35.2789264 C34.4496798,35.4159742 34.4496798,35.553022 34.4496798,35.6933328 C34.9949343,35.2593482 35.5442885,34.8221005 36.089543,34.3881159 C35.7861683,34.3881159 35.4827936,34.3881159 35.1794189,34.3881159 C34.3471883,34.3881159 33.5149578,34.3881159 32.6827272,34.3881159 C31.4569295,34.3881159 30.2311318,34.3881159 29.0053341,34.3881159 C27.5089589,34.3881159 26.0166835,34.3881159 24.5203083,34.3881159 C22.8845448,34.3881159 21.2446817,34.3881159 19.6089182,34.3881159 C17.9485567,34.3881159 16.2922949,34.3881159 14.6319334,34.3881159 C13.0904621,34.3881159 11.5489907,34.3881159 10.011619,34.3881159 C8.70792776,34.3881159 7.4083362,34.3881159 6.10464499,34.3881159 C5.16992298,34.3881159 4.23110132,34.3881159 3.29637932,34.3881159 C2.85361626,34.3881159 2.40675355,34.3848528 1.9639905,34.3881159 C1.94349221,34.3881159 1.92709357,34.3881159 1.90659529,34.3881159 C1.04976678,34.3881159 0.225735541,34.9885157 0.26673212,35.6933328 C0.303629041,36.39815 0.984172255,36.9985498 1.90659529,36.9985498 Z" id="Path" fill-rule="nonzero"></path>
                        <rect id="Rectangle" x="2.05067076" y="33.0131218" width="33.8360675" height="2.06332011"></rect>
                        <path d="M9.16157878,14.4313939 C8.05407391,14.4313939 6.95004084,14.4313939 5.84253597,14.4313939 C5.68630488,14.4313939 5.53007378,14.4313939 5.37384269,14.4313939 C4.62393343,14.4313939 3.98512185,15.1871975 3.98512185,16.0834237 C3.98512185,17.429828 3.98512185,18.7803624 3.98512185,20.1267667 C3.98512185,22.2744054 3.98512185,24.4179141 3.98512185,26.5655529 C3.98512185,27.0529017 3.98512185,27.5443806 3.98512185,28.0317294 C3.98512185,28.9238255 4.62046163,29.6837592 5.37384269,29.6837592 C6.48134756,29.6837592 7.58538063,29.6837592 8.6928855,29.6837592 C8.8491166,29.6837592 9.00534769,29.6837592 9.16157878,29.6837592 C9.91148804,29.6837592 10.5502996,28.9279556 10.5502996,28.0317294 C10.5502996,26.6853251 10.5502996,25.3347907 10.5502996,23.9883864 C10.5502996,21.8407476 10.5502996,19.6972389 10.5502996,17.5496001 C10.5502996,17.0622513 10.5502996,16.5707725 10.5502996,16.0834237 C10.0885499,16.6327236 9.62332846,17.1861536 9.16157878,17.7354535 C9.16157878,17.7354535 9.16157878,17.7354535 9.16157878,17.7354535 C9.88718542,17.7354535 10.5850176,16.9755198 10.5502996,16.0834237 C10.5155816,15.1871975 9.93926246,14.4313939 9.16157878,14.4313939 C9.16157878,14.4313939 9.16157878,14.4313939 9.16157878,14.4313939 C8.41166953,14.4313939 7.77285794,15.1871975 7.77285794,16.0834237 C7.77285794,17.429828 7.77285794,18.7803624 7.77285794,20.1267667 C7.77285794,22.2744054 7.77285794,24.4179141 7.77285794,26.5655529 C7.77285794,27.0529017 7.77285794,27.5443806 7.77285794,28.0317294 C8.23460762,27.4824295 8.6998291,26.9289995 9.16157878,26.3796996 C8.05407391,26.3796996 6.95004084,26.3796996 5.84253597,26.3796996 C5.68630488,26.3796996 5.53007378,26.3796996 5.37384269,26.3796996 C5.83559237,26.9289995 6.30081385,27.4824295 6.76256353,28.0317294 C6.76256353,26.6853251 6.76256353,25.3347907 6.76256353,23.9883864 C6.76256353,21.8407476 6.76256353,19.6972389 6.76256353,17.5496001 C6.76256353,17.0622513 6.76256353,16.5707725 6.76256353,16.0834237 C6.30081385,16.6327236 5.83559237,17.1861536 5.37384269,17.7354535 C6.48134756,17.7354535 7.58538063,17.7354535 8.6928855,17.7354535 C8.8491166,17.7354535 9.00534769,17.7354535 9.16157878,17.7354535 C9.88718542,17.7354535 10.5850176,16.9755198 10.5502996,16.0834237 C10.5155816,15.1871975 9.93926246,14.4313939 9.16157878,14.4313939 Z" id="Path" fill-rule="nonzero"></path>
                        <rect id="Rectangle" x="6.21460329" y="16.5065609" width="3.07600613" height="10.3166006"></rect>
                        <path d="M20.2962497,26.3755695 C19.1887448,26.3755695 18.0847117,26.3755695 16.9772069,26.3755695 C16.8209758,26.3755695 16.6647447,26.3755695 16.5085136,26.3755695 C16.9702633,26.9248694 17.4354847,27.4782994 17.8972344,28.0275993 C17.8972344,26.681195 17.8972344,25.3306606 17.8972344,23.9842563 C17.8972344,21.8366175 17.8972344,19.6931088 17.8972344,17.5454701 C17.8972344,17.0581213 17.8972344,16.5666424 17.8972344,16.0792936 C17.4354847,16.6285935 16.9702633,17.1820235 16.5085136,17.7313234 C17.6160184,17.7313234 18.7200515,17.7313234 19.8275564,17.7313234 C19.9837875,17.7313234 20.1400186,17.7313234 20.2962497,17.7313234 C19.8345,17.1820235 19.3692785,16.6285935 18.9075288,16.0792936 C18.9075288,17.4256979 18.9075288,18.7762323 18.9075288,20.1226366 C18.9075288,22.2702754 18.9075288,24.4137841 18.9075288,26.5614228 C18.9075288,27.0487716 18.9075288,27.5402505 18.9075288,28.0275993 C18.9075288,28.8907849 19.5463404,29.7209299 20.2962497,29.6796291 C21.0496307,29.6383284 21.6849705,28.952736 21.6849705,28.0275993 C21.6849705,26.681195 21.6849705,25.3306606 21.6849705,23.9842563 C21.6849705,21.8366175 21.6849705,19.6931088 21.6849705,17.5454701 C21.6849705,17.0581213 21.6849705,16.5666424 21.6849705,16.0792936 C21.6849705,15.1871975 21.0496307,14.4272638 20.2962497,14.4272638 C19.1887448,14.4272638 18.0847117,14.4272638 16.9772069,14.4272638 C16.8209758,14.4272638 16.6647447,14.4272638 16.5085136,14.4272638 C15.7586043,14.4272638 15.1197927,15.1830674 15.1197927,16.0792936 C15.1197927,17.4256979 15.1197927,18.7762323 15.1197927,20.1226366 C15.1197927,22.2702754 15.1197927,24.4137841 15.1197927,26.5614228 C15.1197927,27.0487716 15.1197927,27.5402505 15.1197927,28.0275993 C15.1197927,28.9196954 15.7551325,29.6796291 16.5085136,29.6796291 C17.6160184,29.6796291 18.7200515,29.6796291 19.8275564,29.6796291 C19.9837875,29.6796291 20.1400186,29.6796291 20.2962497,29.6796291 C21.0218563,29.6796291 21.7196885,28.9196954 21.6849705,28.0275993 C21.6502525,27.1355032 21.0739333,26.3755695 20.2962497,26.3755695 Z" id="Path" fill-rule="nonzero"></path>
                        <rect id="Rectangle" x="28.7719816" y="16.5065609" width="3.07600613" height="10.3166006"></rect>
                        <rect id="Rectangle" x="17.4932924" y="16.5065609" width="3.07600613" height="10.3166006"></rect>
                        <path d="M31.4309206,26.3755695 C30.3234157,26.3755695 29.2193826,26.3755695 28.1118778,26.3755695 C27.9556467,26.3755695 27.7994156,26.3755695 27.6431845,26.3755695 C28.1049341,26.9248694 28.5701556,27.4782994 29.0319053,28.0275993 C29.0319053,26.681195 29.0319053,25.3306606 29.0319053,23.9842563 C29.0319053,21.8366175 29.0319053,19.6931088 29.0319053,17.5454701 C29.0319053,17.0581213 29.0319053,16.5666424 29.0319053,16.0792936 C28.5701556,16.6285935 28.1049341,17.1820235 27.6431845,17.7313234 C28.7506893,17.7313234 29.8547224,17.7313234 30.9622273,17.7313234 C31.1184584,17.7313234 31.2746895,17.7313234 31.4309206,17.7313234 C30.9691709,17.1820235 30.5039494,16.6285935 30.0421997,16.0792936 C30.0421997,17.4256979 30.0421997,18.7762323 30.0421997,20.1226366 C30.0421997,22.2702754 30.0421997,24.4137841 30.0421997,26.5614228 C30.0421997,27.0487716 30.0421997,27.5402505 30.0421997,28.0275993 C30.0421997,28.8907849 30.6810113,29.7209299 31.4309206,29.6796291 C32.1843016,29.6383284 32.8196414,28.952736 32.8196414,28.0275993 C32.8196414,26.681195 32.8196414,25.3306606 32.8196414,23.9842563 C32.8196414,21.8366175 32.8196414,19.6931088 32.8196414,17.5454701 C32.8196414,17.0581213 32.8196414,16.5666424 32.8196414,16.0792936 C32.8196414,15.1871975 32.1843016,14.4272638 31.4309206,14.4272638 C30.3234157,14.4272638 29.2193826,14.4272638 28.1118778,14.4272638 C27.9556467,14.4272638 27.7994156,14.4272638 27.6431845,14.4272638 C26.8932752,14.4272638 26.2544636,15.1830674 26.2544636,16.0792936 C26.2544636,17.4256979 26.2544636,18.7762323 26.2544636,20.1226366 C26.2544636,22.2702754 26.2544636,24.4137841 26.2544636,26.5614228 C26.2544636,27.0487716 26.2544636,27.5402505 26.2544636,28.0275993 C26.2544636,28.9196954 26.8898034,29.6796291 27.6431845,29.6796291 C28.7506893,29.6796291 29.8547224,29.6796291 30.9622273,29.6796291 C31.1184584,29.6796291 31.2746895,29.6796291 31.4309206,29.6796291 C32.1565272,29.6796291 32.8543594,28.9196954 32.8196414,28.0275993 C32.7849234,27.1355032 32.2086042,26.3755695 31.4309206,26.3755695 Z" id="Path" fill-rule="nonzero"></path>
                    </g>
                </g>
            </g>
        </g>
    </g>
</svg>