<?xml version="1.0" encoding="UTF-8"?>
<svg width="19px" height="18px" viewBox="0 0 19 18" version="1.1" xmlns="http://www.w3.org/2000/svg" xmlns:xlink="http://www.w3.org/1999/xlink">
    <title>74B2F100-141B-4BB1-98C2-3A70C6524B2F</title>
    <g id="Page-1" stroke="none" stroke-width="1" fill="none" fill-rule="evenodd" opacity="0.8">
        <g id="Volunteer" transform="translate(-1241.000000, -2242.000000)" fill="#3A3F47" fill-rule="nonzero">
            <g id="Group" transform="translate(752.000000, 2201.000000)">
                <path d="M504.867021,59 C506.915861,59 508,57.867266 508,55.7731359 L508,44.2173453 C508,42.1232152 506.915861,41 504.867021,41 L492.132979,41 C490.093327,41 489,42.1232152 489,44.2173453 L489,55.7731359 C489,57.8767848 490.093327,59 492.132979,59 L504.867021,59 Z M504.775145,56.820201 L492.224855,56.820201 C491.489845,56.820201 491.103965,56.43945 491.103965,55.6493919 L491.103965,47.0444209 C491.103965,46.244844 491.489845,45.8736118 492.224855,45.8736118 L504.775145,45.8736118 C505.500967,45.8736118 505.896035,46.244844 505.896035,47.0444209 L505.896035,55.6493919 C505.896035,56.43945 505.500967,56.820201 504.775145,56.820201 Z M497.287234,49.0528821 C497.627176,49.0528821 497.737427,48.9481756 497.737427,48.6054997 L497.737427,48.0438921 C497.737427,47.7012163 497.627176,47.5965098 497.287234,47.5965098 L496.754352,47.5965098 C496.41441,47.5965098 496.304159,47.7012163 496.304159,48.0438921 L496.304159,48.6054997 C496.304159,48.9481756 496.41441,49.0528821 496.754352,49.0528821 L497.287234,49.0528821 Z M500.254836,49.0528821 C500.58559,49.0528821 500.695841,48.9481756 500.695841,48.6054997 L500.695841,48.0438921 C500.695841,47.7012163 500.58559,47.5965098 500.254836,47.5965098 L499.712766,47.5965098 C499.382012,47.5965098 499.262573,47.7012163 499.262573,48.0438921 L499.262573,48.6054997 C499.262573,48.9481756 499.382012,49.0528821 499.712766,49.0528821 L500.254836,49.0528821 Z M503.21325,49.0528821 C503.544004,49.0528821 503.654255,48.9481756 503.654255,48.6054997 L503.654255,48.0438921 C503.654255,47.7012163 503.544004,47.5965098 503.21325,47.5965098 L502.67118,47.5965098 C502.340426,47.5965098 502.230174,47.7012163 502.230174,48.0438921 L502.230174,48.6054997 C502.230174,48.9481756 502.340426,49.0528821 502.67118,49.0528821 L503.21325,49.0528821 Z M494.32882,52.0703332 C494.659574,52.0703332 494.779014,51.9656267 494.779014,51.6229508 L494.779014,51.0613432 C494.779014,50.7186674 494.659574,50.6139609 494.32882,50.6139609 L493.78675,50.6139609 C493.455996,50.6139609 493.345745,50.7186674 493.345745,51.0613432 L493.345745,51.6229508 C493.345745,51.9656267 493.455996,52.0703332 493.78675,52.0703332 L494.32882,52.0703332 Z M497.287234,52.0703332 C497.627176,52.0703332 497.737427,51.9656267 497.737427,51.6229508 L497.737427,51.0613432 C497.737427,50.7186674 497.627176,50.6139609 497.287234,50.6139609 L496.754352,50.6139609 C496.41441,50.6139609 496.304159,50.7186674 496.304159,51.0613432 L496.304159,51.6229508 C496.304159,51.9656267 496.41441,52.0703332 496.754352,52.0703332 L497.287234,52.0703332 Z M500.254836,52.0703332 C500.58559,52.0703332 500.695841,51.9656267 500.695841,51.6229508 L500.695841,51.0613432 C500.695841,50.7186674 500.58559,50.6139609 500.254836,50.6139609 L499.712766,50.6139609 C499.382012,50.6139609 499.262573,50.7186674 499.262573,51.0613432 L499.262573,51.6229508 C499.262573,51.9656267 499.382012,52.0703332 499.712766,52.0703332 L500.254836,52.0703332 Z M503.21325,52.0703332 C503.544004,52.0703332 503.654255,51.9656267 503.654255,51.6229508 L503.654255,51.0613432 C503.654255,50.7186674 503.544004,50.6139609 503.21325,50.6139609 L502.67118,50.6139609 C502.340426,50.6139609 502.230174,50.7186674 502.230174,51.0613432 L502.230174,51.6229508 C502.230174,51.9656267 502.340426,52.0703332 502.67118,52.0703332 L503.21325,52.0703332 Z M494.32882,55.097303 C494.659574,55.097303 494.779014,54.9830777 494.779014,54.6404019 L494.779014,54.0883131 C494.779014,53.7456372 494.659574,53.631412 494.32882,53.631412 L493.78675,53.631412 C493.455996,53.631412 493.345745,53.7456372 493.345745,54.0883131 L493.345745,54.6404019 C493.345745,54.9830777 493.455996,55.097303 493.78675,55.097303 L494.32882,55.097303 Z M497.287234,55.097303 C497.627176,55.097303 497.737427,54.9830777 497.737427,54.6404019 L497.737427,54.0883131 C497.737427,53.7456372 497.627176,53.631412 497.287234,53.631412 L496.754352,53.631412 C496.41441,53.631412 496.304159,53.7456372 496.304159,54.0883131 L496.304159,54.6404019 C496.304159,54.9830777 496.41441,55.097303 496.754352,55.097303 L497.287234,55.097303 Z M500.254836,55.097303 C500.58559,55.097303 500.695841,54.9830777 500.695841,54.6404019 L500.695841,54.0883131 C500.695841,53.7456372 500.58559,53.631412 500.254836,53.631412 L499.712766,53.631412 C499.382012,53.631412 499.262573,53.7456372 499.262573,54.0883131 L499.262573,54.6404019 C499.262573,54.9830777 499.382012,55.097303 499.712766,55.097303 L500.254836,55.097303 Z" id="􀉉"></path>
            </g>
        </g>
    </g>
</svg>