<svg xmlns="http://www.w3.org/2000/svg" width="877.215" height="450.222" viewBox="0 0 877.215 450.222">
  <g id="Group_7242" data-name="Group 7242" transform="translate(-101.114 -315.205)">
    <path id="Path_2320" data-name="Path 2320" d="M474.461,719.31q-.26,2.429-.349,4.7t-.1,3.48q0,1.534.062,2.876c.041.891.086,1.68.127,2.362h-1.454a40.314,40.314,0,0,0-1.2-7.058,6.19,6.19,0,0,0-2.658-3.739,11.7,11.7,0,0,0-5.879-1.146H459.03a11.407,11.407,0,0,0-3.254.349,2.187,2.187,0,0,0-1.487,1.471,11.6,11.6,0,0,0-.382,3.48v31.68a9.544,9.544,0,0,0,.476,3.451,2.625,2.625,0,0,0,1.865,1.532,19.992,19.992,0,0,0,4.047.51v1.277q-1.646-.129-4.174-.16T451,764.338q-2.465,0-4.616.033t-3.478.16v-1.277a12.992,12.992,0,0,0,3.256-.51,2.3,2.3,0,0,0,1.488-1.532,11.81,11.81,0,0,0,.377-3.451v-31.68a11.73,11.73,0,0,0-.377-3.48,2.376,2.376,0,0,0-1.488-1.532,10.515,10.515,0,0,0-3.256-.481V719.31q2.34.062,4.932.1t5.124.065q2.526.032,4.708.033h3.574q2.909,0,6.607-.033t6.61-.16m-9.8,23.759h-12.65v-1.278h12.65Zm1.2-9.708q-.252,3.642-.218,5.559t.029,3.512q0,1.6.066,3.513t.316,5.555H464.6c-.173-1.36-.37-2.691-.6-3.99a6.089,6.089,0,0,0-1.516-3.192q-1.171-1.251-3.953-1.249v-1.278a5.124,5.124,0,0,0,3.193-.858,4.947,4.947,0,0,0,1.614-2.206,12.534,12.534,0,0,0,.7-2.778q.191-1.435.378-2.588Z" fill="#19a6ac"/>
    <path id="Path_2321" data-name="Path 2321" d="M497.222,730.744a6.194,6.194,0,0,1,3,.7,5.512,5.512,0,0,1,2.026,1.82,4.555,4.555,0,0,1,.727,2.522A4.347,4.347,0,0,1,502,738.6a3.2,3.2,0,0,1-2.625,1.212,3.492,3.492,0,0,1-2.338-.858,3.061,3.061,0,0,1-1.011-2.461,3.288,3.288,0,0,1,.662-2.075,5.636,5.636,0,0,1,1.487-1.372,1.507,1.507,0,0,0-1.327-.641,6.036,6.036,0,0,0-3.607,1.183,10.39,10.39,0,0,0-2.782,3.032,16.956,16.956,0,0,0-1.77,3.928,13.279,13.279,0,0,0-.633,3.866v13.541q0,3.131,1.8,4.182a9.691,9.691,0,0,0,4.9,1.056v1.34q-1.455-.063-4.113-.161t-5.628-.094c-1.43,0-2.855.033-4.265.094s-2.477.119-3.2.161v-1.34a5.644,5.644,0,0,0,3.7-.961c.735-.637,1.105-1.853,1.105-3.64V738.6a7.2,7.2,0,0,0-1.011-4.248q-1.011-1.374-3.8-1.372V731.64q2.028.191,3.924.189a26.723,26.723,0,0,0,3.508-.222,17.36,17.36,0,0,0,3.065-.674v7.987a17.5,17.5,0,0,1,1.993-3.739,12.29,12.29,0,0,1,3.13-3.159,6.926,6.926,0,0,1,4.047-1.278" fill="#19a6ac"/>
    <path id="Path_2322" data-name="Path 2322" d="M514.169,764.979a9.611,9.611,0,0,1-4.491-.99,6.754,6.754,0,0,1-2.875-2.777,8.494,8.494,0,0,1-.982-4.154,7.621,7.621,0,0,1,1.3-4.6,9.668,9.668,0,0,1,3.32-2.876,26.158,26.158,0,0,1,4.268-1.82q2.244-.734,4.269-1.405a13.226,13.226,0,0,0,3.319-1.565,2.749,2.749,0,0,0,1.3-2.363v-3.96a8.51,8.51,0,0,0-.789-4.088,3.974,3.974,0,0,0-2.12-1.886,8.8,8.8,0,0,0-2.971-.476,14.016,14.016,0,0,0-3.385.448,5.03,5.03,0,0,0-2.876,1.848,3.794,3.794,0,0,1,2.087,1.278,3.854,3.854,0,0,1,.884,2.621,3.251,3.251,0,0,1-1.011,2.523,3.692,3.692,0,0,1-2.593.924,3.084,3.084,0,0,1-2.686-1.179,4.436,4.436,0,0,1-.855-2.65,4.147,4.147,0,0,1,.822-2.683,10.267,10.267,0,0,1,2.087-1.918,13.905,13.905,0,0,1,3.763-1.755,17.227,17.227,0,0,1,5.218-.735,14.124,14.124,0,0,1,4.425.608,7.9,7.9,0,0,1,3.036,1.754,7.191,7.191,0,0,1,2.148,3.739,23.834,23.834,0,0,1,.506,5.267v17.757a4.242,4.242,0,0,0,.476,2.3,1.662,1.662,0,0,0,1.483.7,2.916,2.916,0,0,0,1.332-.321,9.548,9.548,0,0,0,1.516-1.023l.694,1.089a20.711,20.711,0,0,1-2.527,1.693,6.673,6.673,0,0,1-3.225.669,6.41,6.41,0,0,1-3.036-.64,4.093,4.093,0,0,1-1.8-1.882,7.323,7.323,0,0,1-.6-3.164,11.82,11.82,0,0,1-4.08,4.281,10.267,10.267,0,0,1-5.341,1.405m2.276-2.555a6.836,6.836,0,0,0,3.891-1.212,11.281,11.281,0,0,0,3.254-3.644V745.05a5.8,5.8,0,0,1-2.215,1.82q-1.453.739-3.159,1.47a22.566,22.566,0,0,0-3.258,1.726,8.309,8.309,0,0,0-2.56,2.584,7.667,7.667,0,0,0-1.01,4.154,5.931,5.931,0,0,0,1.359,4.088,4.681,4.681,0,0,0,3.7,1.532" fill="#19a6ac"/>
    <path id="Path_2323" data-name="Path 2323" d="M557.423,730.744a11.026,11.026,0,0,1,4.014.637,7.042,7.042,0,0,1,4.4,4.983,21.1,21.1,0,0,1,.505,5.173v17.054c0,1.787.37,3,1.1,3.64a5.644,5.644,0,0,0,3.7.961v1.34q-1.078-.063-3.291-.161t-4.3-.094q-2.09,0-4.08.094t-3,.161v-1.34a4.431,4.431,0,0,0,3.225-.961c.633-.637.949-1.853.949-3.64V740.132a19.665,19.665,0,0,0-.316-3.64,4.758,4.758,0,0,0-1.426-2.683,4.837,4.837,0,0,0-3.381-1.023,7.417,7.417,0,0,0-4.647,1.532,10,10,0,0,0-3.1,4.187,15.143,15.143,0,0,0-1.11,5.908v14.178c0,1.787.317,3,.949,3.64a4.431,4.431,0,0,0,3.225.961v1.34c-.673-.042-1.676-.095-3-.161s-2.687-.094-4.079-.094-2.823.033-4.3.094-2.572.119-3.291.161v-1.34a5.644,5.644,0,0,0,3.7-.961c.735-.637,1.105-1.853,1.105-3.64V738.6a7.2,7.2,0,0,0-1.011-4.248q-1.009-1.374-3.8-1.372V731.64q2.028.191,3.924.189a26.724,26.724,0,0,0,3.508-.222,17.361,17.361,0,0,0,3.065-.674v7.539a11.155,11.155,0,0,1,4.585-6.035,12.162,12.162,0,0,1,6.167-1.693" fill="#19a6ac"/>
    <path id="Path_2324" data-name="Path 2324" d="M589.226,730.744a14.966,14.966,0,0,1,3.919.509,11.412,11.412,0,0,1,3.415,1.533,7.128,7.128,0,0,1,2.214,2.206,5.124,5.124,0,0,1,.76,2.712,3.548,3.548,0,0,1-.949,2.654,3.3,3.3,0,0,1-2.4.924,3.778,3.778,0,0,1-2.433-.83,2.84,2.84,0,0,1-1.043-2.362,3.453,3.453,0,0,1,.789-2.367,3.527,3.527,0,0,1,1.865-1.146,4.8,4.8,0,0,0-2.243-1.918,7.956,7.956,0,0,0-3.447-.765,7.213,7.213,0,0,0-3.164.765,8.254,8.254,0,0,0-2.908,2.522,14.043,14.043,0,0,0-2.149,4.79,29.554,29.554,0,0,0-.822,7.572,25.648,25.648,0,0,0,1.266,8.94,9.857,9.857,0,0,0,3.319,4.758,7.69,7.69,0,0,0,4.519,1.438,9.478,9.478,0,0,0,6.578-2.716A11.866,11.866,0,0,0,598.9,756.1l1.2.448a14.8,14.8,0,0,1-2.087,4.117,11.553,11.553,0,0,1-3.792,3.418,11.4,11.4,0,0,1-5.756,1.343,12.748,12.748,0,0,1-7.079-2.046,14.182,14.182,0,0,1-5.028-5.842,20.3,20.3,0,0,1-1.866-9.038,21.569,21.569,0,0,1,1.866-9.232,15.07,15.07,0,0,1,5.217-6.257,13.325,13.325,0,0,1,7.65-2.268" fill="#19a6ac"/>
    <path id="Path_2325" data-name="Path 2325" d="M619.008,730.744q5.565,0,8.7,3.418t3.13,10.633H608.511l-.062-1.212h16.315a21.372,21.372,0,0,0-.505-5.781,10.058,10.058,0,0,0-1.993-4.248,4.4,4.4,0,0,0-3.509-1.6,6.455,6.455,0,0,0-5.156,2.937q-2.242,2.94-2.687,9.327l.189.254c-.082.641-.147,1.344-.189,2.108s-.061,1.536-.061,2.3a18.278,18.278,0,0,0,1.393,7.473,11.369,11.369,0,0,0,3.636,4.757,7.791,7.791,0,0,0,4.646,1.631,10.607,10.607,0,0,0,3.6-.608,8.783,8.783,0,0,0,3.164-2.013,12.113,12.113,0,0,0,2.526-3.767l1.266.509a13.244,13.244,0,0,1-2.276,4.088,12.187,12.187,0,0,1-3.985,3.225,11.879,11.879,0,0,1-5.563,1.249,14.056,14.056,0,0,1-7.81-2.107,13.647,13.647,0,0,1-5-5.847,20.14,20.14,0,0,1-1.738-8.59,24.1,24.1,0,0,1,1.771-9.676,14.28,14.28,0,0,1,5-6.261,13.01,13.01,0,0,1,7.522-2.2" fill="#19a6ac"/>
    <path id="Path_2326" data-name="Path 2326" d="M126.707,545.652a20.849,20.849,0,0,1,8.732,1.586,29.836,29.836,0,0,1,6.075,3.7q1.611,1.221,2.454.284c.565-.62.954-2.1,1.167-4.429h1.853q-.164,3.008-.242,7.317t-.08,11.38h-1.851q-.564-3.493-1.048-5.567a17.911,17.911,0,0,0-1.167-3.537,15.722,15.722,0,0,0-1.809-2.925,14.377,14.377,0,0,0-6.278-4.84,21.39,21.39,0,0,0-7.968-1.5,13.144,13.144,0,0,0-7.122,1.992,17.2,17.2,0,0,0-5.473,5.731,30.718,30.718,0,0,0-3.541,9.022,51.8,51.8,0,0,0-1.247,11.87,47.987,47.987,0,0,0,1.368,12.07,27.928,27.928,0,0,0,3.823,8.821,16.883,16.883,0,0,0,5.8,5.407,14.748,14.748,0,0,0,7.2,1.828,21.668,21.668,0,0,0,7.566-1.463,12.707,12.707,0,0,0,6.2-4.712,14.133,14.133,0,0,0,2.453-5.123,64.026,64.026,0,0,0,1.249-7.724h1.851q0,7.4.08,11.91t.242,7.6h-1.853q-.319-3.495-1.084-4.388c-.512-.6-1.356-.518-2.537.242a41.827,41.827,0,0,1-6.317,3.7,20.056,20.056,0,0,1-8.57,1.586,25.269,25.269,0,0,1-13.4-3.5,23.286,23.286,0,0,1-8.933-10.078,40.6,40.6,0,0,1,.121-31.787,26.018,26.018,0,0,1,9.053-10.649,23.378,23.378,0,0,1,13.239-3.821" fill="#181b46"/>
    <path id="Path_2327" data-name="Path 2327" d="M165.659,540.693v30.4q2.093-5.527,5.834-7.641a15.724,15.724,0,0,1,7.847-2.112,13.962,13.962,0,0,1,5.111.813,8.939,8.939,0,0,1,5.593,6.34,26.785,26.785,0,0,1,.643,6.585v21.7q0,3.414,1.41,4.634c.936.814,2.506,1.216,4.708,1.216v1.71c-.914-.054-2.309-.124-4.187-.2s-3.7-.123-5.472-.123-3.5.041-5.191.123-2.964.148-3.821.2v-1.71c1.931,0,3.3-.4,4.1-1.216s1.206-2.358,1.206-4.634V573.293a24.764,24.764,0,0,0-.4-4.634,6.049,6.049,0,0,0-1.81-3.414,6.172,6.172,0,0,0-4.306-1.3,9.585,9.585,0,0,0-5.836,1.869,12.5,12.5,0,0,0-3.983,5.205,19.009,19.009,0,0,0-1.448,7.638v18.13q0,3.414,1.208,4.634c.8.814,2.171,1.216,4.1,1.216v1.71c-.858-.054-2.132-.124-3.823-.2s-3.42-.123-5.191-.123-3.6.041-5.472.123-3.274.148-4.184.2v-1.71c2.2,0,3.767-.4,4.706-1.216s1.409-2.358,1.409-4.634V550.446a9.141,9.141,0,0,0-1.288-5.4q-1.289-1.75-4.827-1.75v-1.705q2.573.24,4.989.242a33.885,33.885,0,0,0,4.466-.283,22.174,22.174,0,0,0,3.9-.855" fill="#181b46"/>
    <path id="Path_2328" data-name="Path 2328" d="M212.176,561.585v35.2q0,3.414,1.408,4.634t4.708,1.216v1.709c-.912-.053-2.293-.123-4.146-.2s-3.714-.124-5.591-.124q-2.739,0-5.555.124c-1.877.078-3.272.148-4.184.2v-1.709q3.3,0,4.708-1.216t1.409-4.634V571.342a9.165,9.165,0,0,0-1.288-5.407q-1.287-1.749-4.829-1.75V562.48q2.576.242,4.99.243a33.877,33.877,0,0,0,4.465-.284,22.211,22.211,0,0,0,3.9-.854m-4.186-19.429a4.937,4.937,0,0,1,3.622,1.545,5.139,5.139,0,0,1,0,7.317,5.018,5.018,0,0,1-7.244,0,5.144,5.144,0,0,1,0-7.317,4.937,4.937,0,0,1,3.622-1.545" fill="#181b46"/>
    <path id="Path_2329" data-name="Path 2329" d="M233.661,540.611v56.174q0,3.414,1.409,4.635t4.708,1.216v1.709c-.914-.054-2.294-.124-4.145-.2s-3.716-.123-5.594-.123q-2.736,0-5.552.123c-1.878.078-3.272.148-4.184.2v-1.709q3.3,0,4.708-1.216t1.407-4.635V550.368a9.162,9.162,0,0,0-1.286-5.406q-1.292-1.75-4.829-1.75v-1.7q2.573.246,4.989.242a33.885,33.885,0,0,0,4.466-.283,22.146,22.146,0,0,0,3.9-.855" fill="#181b46"/>
    <path id="Path_2330" data-name="Path 2330" d="M261.268,561.342a13.545,13.545,0,0,1,6.639,1.705,8.7,8.7,0,0,1,4.144,5.854l-1.046.814a9.027,9.027,0,0,0-3.5-4.959,10.057,10.057,0,0,0-5.594-1.545q-4.749,0-7.927,4.959t-3.1,15.283a40.362,40.362,0,0,0,1.247,10.933,13.266,13.266,0,0,0,3.7,6.5,8.764,8.764,0,0,0,6,2.152,8.217,8.217,0,0,0,6.115-2.925q2.736-2.926,3.3-8.615l.966,1.138q-.648,6.176-3.9,9.511a11.777,11.777,0,0,1-8.813,3.332,15.621,15.621,0,0,1-8.732-2.441,15.188,15.188,0,0,1-5.715-7.313,32.986,32.986,0,0,1-1.97-12.276,26.724,26.724,0,0,1,2.535-12.317,17.611,17.611,0,0,1,6.678-7.358,17.417,17.417,0,0,1,8.975-2.436m16.9-20.731v54.872q0,3.66,1.327,5.407t4.788,1.746v1.709c-1.664-.165-3.325-.243-4.989-.243a38.78,38.78,0,0,0-4.466.243,16.826,16.826,0,0,0-3.9.9V550.368a9.146,9.146,0,0,0-1.288-5.406q-1.288-1.75-4.83-1.75v-1.7q2.577.246,4.99.242a33.928,33.928,0,0,0,4.468-.283,22.246,22.246,0,0,0,3.9-.855" fill="#181b46"/>
    <path id="Path_2331" data-name="Path 2331" d="M311.807,561.342a7.9,7.9,0,0,1,3.823.9,6.972,6.972,0,0,1,2.576,2.313,5.774,5.774,0,0,1,.924,3.212,5.531,5.531,0,0,1-1.247,3.579,4.081,4.081,0,0,1-3.34,1.545,4.435,4.435,0,0,1-2.976-1.1,3.878,3.878,0,0,1-1.288-3.127,4.2,4.2,0,0,1,.844-2.642,7.25,7.25,0,0,1,1.892-1.75,1.93,1.93,0,0,0-1.691-.813,7.691,7.691,0,0,0-4.587,1.5,13.262,13.262,0,0,0-3.541,3.862,21.531,21.531,0,0,0-2.254,5,16.971,16.971,0,0,0-.8,4.918v17.235q0,3.981,2.293,5.324a12.331,12.331,0,0,0,6.236,1.34v1.709q-1.851-.081-5.23-.2t-7.163-.123q-2.736,0-5.431.123c-1.8.078-3.153.148-4.065.2v-1.709q3.3,0,4.708-1.216t1.409-4.635V571.342a9.162,9.162,0,0,0-1.288-5.407q-1.289-1.75-4.829-1.75V562.48q2.576.24,4.989.242a33.9,33.9,0,0,0,4.466-.283,22.2,22.2,0,0,0,3.9-.855v10.165a22.085,22.085,0,0,1,2.535-4.758,15.688,15.688,0,0,1,3.983-4.022,8.8,8.8,0,0,1,5.15-1.627" fill="#181b46"/>
    <path id="Path_2332" data-name="Path 2332" d="M339.009,561.342q7.082,0,11.066,4.347t3.983,13.537H325.651l-.081-1.545h20.762a27.008,27.008,0,0,0-.643-7.358,12.765,12.765,0,0,0-2.535-5.4,5.6,5.6,0,0,0-4.465-2.033q-3.705,0-6.56,3.738t-3.42,11.87l.241.324q-.164,1.221-.241,2.683c-.055.974-.082,1.951-.082,2.925a23.28,23.28,0,0,0,1.771,9.511,14.538,14.538,0,0,0,4.628,6.056,9.937,9.937,0,0,0,5.916,2.075,13.529,13.529,0,0,0,4.587-.773,11.172,11.172,0,0,0,4.024-2.559,15.578,15.578,0,0,0,3.219-4.8l1.609.653a16.875,16.875,0,0,1-2.9,5.2,15.525,15.525,0,0,1-5.07,4.1,15.188,15.188,0,0,1-7.082,1.586,17.9,17.9,0,0,1-9.939-2.683,17.344,17.344,0,0,1-6.358-7.436,25.648,25.648,0,0,1-2.214-10.937,30.637,30.637,0,0,1,2.254-12.313,18.127,18.127,0,0,1,6.357-7.966,16.538,16.538,0,0,1,9.577-2.806" fill="#181b46"/>
    <path id="Path_2333" data-name="Path 2333" d="M385.687,561.342a13.962,13.962,0,0,1,5.111.813,8.936,8.936,0,0,1,5.591,6.34,26.779,26.779,0,0,1,.645,6.586v21.7q0,3.414,1.408,4.635t4.708,1.216v1.709c-.912-.054-2.307-.124-4.185-.2s-3.7-.123-5.472-.123-3.5.041-5.191.123-2.964.148-3.823.2v-1.709q2.9,0,4.1-1.216t1.208-4.635V573.293a24.933,24.933,0,0,0-.4-4.634,6.04,6.04,0,0,0-1.812-3.414,6.169,6.169,0,0,0-4.306-1.3,9.415,9.415,0,0,0-5.914,1.951,12.751,12.751,0,0,0-3.944,5.325,19.335,19.335,0,0,0-1.407,7.518v18.048q0,3.414,1.206,4.635t4.1,1.216v1.709c-.859-.054-2.132-.124-3.823-.2s-3.42-.123-5.191-.123-3.6.041-5.472.123-3.272.148-4.185.2v-1.709q3.3,0,4.709-1.216t1.409-4.635V571.342a9.162,9.162,0,0,0-1.288-5.407q-1.289-1.75-4.83-1.75V562.48q2.577.24,4.99.242a33.908,33.908,0,0,0,4.466-.283,22.224,22.224,0,0,0,3.9-.855v9.594q2.089-5.529,5.834-7.683a15.522,15.522,0,0,1,7.847-2.153" fill="#181b46"/>
    <path id="Path_2334" data-name="Path 2334" d="M410.555,545.652a5.218,5.218,0,0,1,2.9.731,6.149,6.149,0,0,1,1.851,1.87,6.847,6.847,0,0,1,1.128,2.847,17.12,17.12,0,0,1,.24,2.518,13.456,13.456,0,0,1-2.011,7.235,14.34,14.34,0,0,1-6.277,5.283l-.723-1.462a10.9,10.9,0,0,0,4.3-3.332,7.4,7.4,0,0,0,1.81-4.634,5.465,5.465,0,0,0-.24-1.705,4.579,4.579,0,0,1-2.979,1.056,5.209,5.209,0,0,1-3.622-1.385,4.89,4.89,0,0,1-1.528-3.821,4.955,4.955,0,0,1,1.528-3.738,5.065,5.065,0,0,1,3.622-1.463" fill="#181b46"/>
    <path id="Path_2335" data-name="Path 2335" d="M434.939,561.342a12.847,12.847,0,0,1,5.472,1.056,15.325,15.325,0,0,1,3.3,1.951q2.656,2.195,3.219-2.925h1.851q-.16,2.274-.24,5.4t-.08,8.414h-1.851a26.48,26.48,0,0,0-1.652-5.851,11.522,11.522,0,0,0-3.42-4.675,9.02,9.02,0,0,0-5.873-1.828,7.058,7.058,0,0,0-4.708,1.586,5.745,5.745,0,0,0-1.892,4.671,6.343,6.343,0,0,0,1.448,4.186,16.348,16.348,0,0,0,3.782,3.254q2.336,1.5,5.072,3.291a59.437,59.437,0,0,1,5.552,3.985,17.67,17.67,0,0,1,3.983,4.47,10.86,10.86,0,0,1,1.49,5.772,9.972,9.972,0,0,1-1.931,6.258,12.069,12.069,0,0,1-5.031,3.82,17.4,17.4,0,0,1-6.8,1.3,18.775,18.775,0,0,1-3.341-.284,16.39,16.39,0,0,1-3.017-.854,15.617,15.617,0,0,1-1.652-.974q-.844-.573-1.649-1.22a.946.946,0,0,0-1.448.041,5.414,5.414,0,0,0-.966,2.724h-1.851q.16-2.607.241-6.344t.082-9.917h1.851a47.04,47.04,0,0,0,1.608,7.966,10.946,10.946,0,0,0,3.3,5.324,9.4,9.4,0,0,0,6.276,1.911,7.994,7.994,0,0,0,3.26-.731,6.476,6.476,0,0,0,2.777-2.437,8.168,8.168,0,0,0,1.126-4.552,7.457,7.457,0,0,0-2.574-5.854,53.482,53.482,0,0,0-6.52-4.795q-2.9-1.874-5.432-3.743a16.857,16.857,0,0,1-4.1-4.227,11.374,11.374,0,0,1,.08-11.664,9.67,9.67,0,0,1,4.386-3.414,15.644,15.644,0,0,1,5.875-1.1" fill="#181b46"/>
    <path id="Path_2336" data-name="Path 2336" d="M501.01,545.652a20.852,20.852,0,0,1,8.734,1.586,29.85,29.85,0,0,1,6.077,3.7q1.608,1.221,2.453.284c.562-.62.953-2.1,1.166-4.429h1.853q-.167,3.008-.242,7.317t-.082,11.38H519.12c-.378-2.329-.723-4.186-1.048-5.567a17.912,17.912,0,0,0-1.167-3.537,15.634,15.634,0,0,0-1.811-2.925,14.349,14.349,0,0,0-6.274-4.84,21.4,21.4,0,0,0-7.97-1.5,13.127,13.127,0,0,0-7.12,1.992,17.184,17.184,0,0,0-5.473,5.731,30.554,30.554,0,0,0-3.541,9.022,51.681,51.681,0,0,0-1.249,11.87,47.988,47.988,0,0,0,1.368,12.07,27.884,27.884,0,0,0,3.825,8.821,16.877,16.877,0,0,0,5.793,5.407,14.748,14.748,0,0,0,7.2,1.828,21.657,21.657,0,0,0,7.564-1.463,12.7,12.7,0,0,0,6.2-4.712,14.134,14.134,0,0,0,2.453-5.123,64.418,64.418,0,0,0,1.249-7.724h1.849q0,7.4.082,11.91t.242,7.6H519.44q-.32-3.495-1.084-4.388c-.51-.6-1.356-.518-2.535.242a42.045,42.045,0,0,1-6.319,3.7,20.05,20.05,0,0,1-8.57,1.586,25.281,25.281,0,0,1-13.4-3.5,23.3,23.3,0,0,1-8.931-10.078,40.61,40.61,0,0,1,.119-31.787,26.052,26.052,0,0,1,9.055-10.649,23.381,23.381,0,0,1,13.237-3.821" fill="#181b46"/>
    <path id="Path_2337" data-name="Path 2337" d="M538.758,604.916a12.215,12.215,0,0,1-5.715-1.261,8.583,8.583,0,0,1-3.661-3.538,10.787,10.787,0,0,1-1.249-5.283,9.738,9.738,0,0,1,1.652-5.855,12.3,12.3,0,0,1,4.223-3.656,33.626,33.626,0,0,1,5.432-2.317q2.859-.931,5.431-1.787a16.77,16.77,0,0,0,4.227-1.993,3.5,3.5,0,0,0,1.648-3.007v-5.041a10.815,10.815,0,0,0-1-5.2,5.046,5.046,0,0,0-2.7-2.4,11.061,11.061,0,0,0-3.78-.608,17.963,17.963,0,0,0-4.3.567,6.418,6.418,0,0,0-3.665,2.358,4.8,4.8,0,0,1,2.658,1.627,4.9,4.9,0,0,1,1.126,3.332,4.156,4.156,0,0,1-1.286,3.213,4.7,4.7,0,0,1-3.3,1.175,3.92,3.92,0,0,1-3.418-1.5,5.622,5.622,0,0,1-1.085-3.373,5.271,5.271,0,0,1,1.044-3.414,12.865,12.865,0,0,1,2.658-2.436,17.6,17.6,0,0,1,4.786-2.239,21.927,21.927,0,0,1,6.639-.933,18.1,18.1,0,0,1,5.633.772,10.11,10.11,0,0,1,3.866,2.235,9.191,9.191,0,0,1,2.736,4.758,30.482,30.482,0,0,1,.641,6.705v22.6a5.388,5.388,0,0,0,.6,2.925,2.126,2.126,0,0,0,1.894.9,3.694,3.694,0,0,0,1.688-.407,12.022,12.022,0,0,0,1.931-1.3l.888,1.38a26.679,26.679,0,0,1-3.221,2.157,8.446,8.446,0,0,1-4.1.855,8.2,8.2,0,0,1-3.862-.814,5.216,5.216,0,0,1-2.3-2.4,9.27,9.27,0,0,1-.764-4.022,15.062,15.062,0,0,1-5.189,5.444,13.067,13.067,0,0,1-6.8,1.791m2.9-3.254a8.7,8.7,0,0,0,4.951-1.545,14.256,14.256,0,0,0,4.141-4.634V579.551a7.359,7.359,0,0,1-2.814,2.317c-1.237.624-2.576,1.249-4.027,1.869a29.063,29.063,0,0,0-4.141,2.194,10.536,10.536,0,0,0-3.262,3.295,9.728,9.728,0,0,0-1.286,5.283,7.538,7.538,0,0,0,1.73,5.2,5.97,5.97,0,0,0,4.708,1.951" fill="#181b46"/>
    <path id="Path_2338" data-name="Path 2338" d="M592.919,561.342a13.962,13.962,0,0,1,5.111.813,8.947,8.947,0,0,1,5.591,6.34,26.68,26.68,0,0,1,.645,6.586v21.7q0,3.414,1.41,4.635t4.708,1.216v1.709c-.916-.054-2.309-.124-4.187-.2s-3.7-.123-5.472-.123-3.5.041-5.189.123-2.966.148-3.825.2v-1.709q2.9,0,4.1-1.216t1.208-4.635V573.293a24.93,24.93,0,0,0-.4-4.634,6.04,6.04,0,0,0-1.812-3.414,6.169,6.169,0,0,0-4.306-1.3,9.429,9.429,0,0,0-5.916,1.951,12.744,12.744,0,0,0-3.94,5.325,19.3,19.3,0,0,0-1.409,7.518v18.048q0,3.414,1.208,4.635t4.1,1.216v1.709c-.858-.054-2.132-.124-3.825-.2s-3.418-.123-5.189-.123-3.6.041-5.472.123-3.274.148-4.187.2v-1.709q3.3,0,4.709-1.216c.936-.814,1.409-2.359,1.409-4.635V571.342a9.154,9.154,0,0,0-1.29-5.407q-1.289-1.75-4.828-1.75V562.48q2.577.24,4.992.242a33.919,33.919,0,0,0,4.466-.283,22.219,22.219,0,0,0,3.9-.855v9.594q2.09-5.529,5.834-7.683a15.521,15.521,0,0,1,7.847-2.153" fill="#181b46"/>
    <path id="Path_2339" data-name="Path 2339" d="M632.512,561.342a19.232,19.232,0,0,1,4.992.649,14.524,14.524,0,0,1,4.346,1.952,9.016,9.016,0,0,1,2.815,2.806,6.5,6.5,0,0,1,.965,3.455,4.5,4.5,0,0,1-1.208,3.373,4.2,4.2,0,0,1-3.056,1.179,4.816,4.816,0,0,1-3.1-1.06,3.608,3.608,0,0,1-1.327-3.007,4.386,4.386,0,0,1,1-3.008,4.549,4.549,0,0,1,2.375-1.462,6.1,6.1,0,0,0-2.855-2.441,10.109,10.109,0,0,0-4.388-.973,9.16,9.16,0,0,0-4.022.973,10.445,10.445,0,0,0-3.7,3.213,17.8,17.8,0,0,0-2.736,6.1,37.44,37.44,0,0,0-1.048,9.634,32.77,32.77,0,0,0,1.611,11.38,12.579,12.579,0,0,0,4.223,6.056,9.833,9.833,0,0,0,5.756,1.829,12.1,12.1,0,0,0,8.369-3.456,15.016,15.016,0,0,0,3.3-4.917l1.532.571a19.069,19.069,0,0,1-2.658,5.242,14.724,14.724,0,0,1-4.827,4.347,14.5,14.5,0,0,1-7.325,1.709,16.245,16.245,0,0,1-9.014-2.6,18.083,18.083,0,0,1-6.4-7.44,25.848,25.848,0,0,1-2.375-11.5,27.5,27.5,0,0,1,2.375-11.75,19.192,19.192,0,0,1,6.639-7.966,16.971,16.971,0,0,1,9.737-2.884" fill="#181b46"/>
    <path id="Path_2340" data-name="Path 2340" d="M669.533,561.342q7.082,0,11.068,4.347t3.981,13.537h-28.41l-.078-1.545h20.764a27.083,27.083,0,0,0-.645-7.358,12.765,12.765,0,0,0-2.535-5.4,5.593,5.593,0,0,0-4.465-2.033q-3.705,0-6.562,3.738t-3.418,11.87l.243.324c-.111.814-.189,1.709-.243,2.683s-.082,1.951-.082,2.925a23.313,23.313,0,0,0,1.771,9.511,14.551,14.551,0,0,0,4.626,6.056,9.946,9.946,0,0,0,5.916,2.075,13.532,13.532,0,0,0,4.589-.773,11.148,11.148,0,0,0,4.022-2.559,15.477,15.477,0,0,0,3.221-4.8l1.611.653a16.807,16.807,0,0,1-2.9,5.2,15.5,15.5,0,0,1-5.07,4.1,15.183,15.183,0,0,1-7.083,1.586,17.908,17.908,0,0,1-9.938-2.683,17.366,17.366,0,0,1-6.356-7.436,25.6,25.6,0,0,1-2.214-10.937,30.6,30.6,0,0,1,2.256-12.313,18.11,18.11,0,0,1,6.355-7.966,16.538,16.538,0,0,1,9.577-2.806" fill="#181b46"/>
    <path id="Path_2341" data-name="Path 2341" d="M714.2,561.342a7.9,7.9,0,0,1,3.824.9,6.951,6.951,0,0,1,2.572,2.313,5.777,5.777,0,0,1,.928,3.212,5.549,5.549,0,0,1-1.248,3.579,4.083,4.083,0,0,1-3.341,1.545,4.439,4.439,0,0,1-2.977-1.1,3.876,3.876,0,0,1-1.286-3.127,4.2,4.2,0,0,1,.846-2.642,7.208,7.208,0,0,1,1.889-1.75,1.933,1.933,0,0,0-1.688-.813,7.7,7.7,0,0,0-4.589,1.5,13.207,13.207,0,0,0-3.541,3.862,21.487,21.487,0,0,0-2.253,5,16.944,16.944,0,0,0-.8,4.918v17.235q0,3.981,2.294,5.324a12.321,12.321,0,0,0,6.235,1.34v1.709q-1.848-.081-5.229-.2t-7.162-.123c-1.828,0-3.635.041-5.435.123s-3.151.148-4.062.2v-1.709q3.3,0,4.708-1.216c.936-.814,1.409-2.359,1.409-4.635V571.342A9.146,9.146,0,0,0,694,565.935c-.859-1.167-2.464-1.75-4.826-1.75V562.48q2.574.24,4.99.242a33.9,33.9,0,0,0,4.466-.283,22.2,22.2,0,0,0,3.9-.855v10.165a22.086,22.086,0,0,1,2.535-4.758,15.745,15.745,0,0,1,3.981-4.022,8.814,8.814,0,0,1,5.153-1.627" fill="#181b46"/>
    <path id="Path_2342" data-name="Path 2342" d="M767.794,545.652a20.852,20.852,0,0,1,8.734,1.586,29.851,29.851,0,0,1,6.077,3.7q1.608,1.221,2.453.284c.562-.62.953-2.1,1.166-4.429h1.853q-.167,3.008-.242,7.317t-.082,11.38H785.9c-.378-2.329-.723-4.186-1.048-5.567a17.912,17.912,0,0,0-1.167-3.537,15.631,15.631,0,0,0-1.811-2.925,14.349,14.349,0,0,0-6.274-4.84,21.4,21.4,0,0,0-7.97-1.5,13.128,13.128,0,0,0-7.12,1.992,17.184,17.184,0,0,0-5.473,5.731,30.553,30.553,0,0,0-3.541,9.022,51.683,51.683,0,0,0-1.249,11.87,47.985,47.985,0,0,0,1.368,12.07,27.884,27.884,0,0,0,3.825,8.821,16.877,16.877,0,0,0,5.793,5.407,14.747,14.747,0,0,0,7.2,1.828A21.657,21.657,0,0,0,776,602.393a12.7,12.7,0,0,0,6.2-4.712,14.135,14.135,0,0,0,2.453-5.123,64.433,64.433,0,0,0,1.249-7.724h1.849q0,7.4.082,11.91t.242,7.6h-1.853q-.32-3.495-1.084-4.388c-.51-.6-1.356-.518-2.535.242a42.042,42.042,0,0,1-6.319,3.7,20.05,20.05,0,0,1-8.57,1.586,25.281,25.281,0,0,1-13.4-3.5,23.3,23.3,0,0,1-8.931-10.078,40.61,40.61,0,0,1,.119-31.787,26.052,26.052,0,0,1,9.055-10.649,23.381,23.381,0,0,1,13.237-3.821" fill="#181b46"/>
    <path id="Path_2343" data-name="Path 2343" d="M813.668,561.342q7.081,0,11.068,4.347t3.981,13.537h-28.41l-.078-1.545h20.764a27.085,27.085,0,0,0-.645-7.358,12.765,12.765,0,0,0-2.535-5.4,5.593,5.593,0,0,0-4.465-2.033q-3.705,0-6.562,3.738t-3.418,11.87l.243.324c-.111.814-.189,1.709-.243,2.683s-.082,1.951-.082,2.925a23.313,23.313,0,0,0,1.771,9.511,14.551,14.551,0,0,0,4.626,6.056,9.946,9.946,0,0,0,5.916,2.075,13.532,13.532,0,0,0,4.589-.773,11.148,11.148,0,0,0,4.022-2.559,15.477,15.477,0,0,0,3.221-4.8l1.611.653a16.807,16.807,0,0,1-2.9,5.2,15.5,15.5,0,0,1-5.07,4.1,15.183,15.183,0,0,1-7.083,1.586,17.908,17.908,0,0,1-9.938-2.683,17.367,17.367,0,0,1-6.356-7.436,25.6,25.6,0,0,1-2.214-10.937,30.6,30.6,0,0,1,2.256-12.313,18.11,18.11,0,0,1,6.355-7.966,16.538,16.538,0,0,1,9.577-2.806" fill="#181b46"/>
    <path id="Path_2344" data-name="Path 2344" d="M860.348,561.342a13.961,13.961,0,0,1,5.111.813,8.947,8.947,0,0,1,5.591,6.34,26.68,26.68,0,0,1,.645,6.586v21.7q0,3.414,1.41,4.635t4.708,1.216v1.709c-.916-.054-2.309-.124-4.187-.2s-3.7-.123-5.472-.123-3.5.041-5.189.123-2.966.148-3.825.2v-1.709q2.9,0,4.1-1.216t1.208-4.635V573.293a24.93,24.93,0,0,0-.4-4.634,6.039,6.039,0,0,0-1.812-3.414,6.169,6.169,0,0,0-4.306-1.3,9.428,9.428,0,0,0-5.916,1.951,12.744,12.744,0,0,0-3.94,5.325,19.3,19.3,0,0,0-1.409,7.518v18.048q0,3.414,1.208,4.635t4.1,1.216v1.709c-.858-.054-2.132-.124-3.825-.2s-3.418-.123-5.189-.123-3.594.041-5.472.123-3.274.148-4.187.2v-1.709q3.3,0,4.709-1.216c.936-.814,1.409-2.359,1.409-4.635V571.342a9.146,9.146,0,0,0-1.29-5.407q-1.288-1.75-4.828-1.75V562.48q2.577.24,4.992.242a33.918,33.918,0,0,0,4.466-.283,22.22,22.22,0,0,0,3.9-.855v9.594q2.09-5.529,5.834-7.683a15.522,15.522,0,0,1,7.847-2.153" fill="#181b46"/>
    <path id="Path_2345" data-name="Path 2345" d="M892.78,548.984v13.578h11.91v1.623H892.78v31.462q0,3.822,1.368,5.366a4.8,4.8,0,0,0,3.784,1.545,5.433,5.433,0,0,0,4.182-1.993q1.769-1.991,3.061-6.705l1.606.4a18.6,18.6,0,0,1-3.175,7.97q-2.379,3.248-7.285,3.25a12.547,12.547,0,0,1-4.507-.69,9.531,9.531,0,0,1-3.138-1.993,10.09,10.09,0,0,1-2.457-4.47,28.133,28.133,0,0,1-.682-6.91V564.185h-7.728v-1.623h7.728v-12.44c1.339-.053,2.629-.16,3.862-.325a15.2,15.2,0,0,0,3.381-.813" fill="#181b46"/>
    <path id="Path_2346" data-name="Path 2346" d="M926.337,561.342q7.082,0,11.068,4.347t3.981,13.537h-28.41l-.078-1.545h20.764a27.085,27.085,0,0,0-.645-7.358,12.765,12.765,0,0,0-2.535-5.4,5.593,5.593,0,0,0-4.465-2.033q-3.705,0-6.562,3.738t-3.418,11.87l.243.324c-.111.814-.189,1.709-.243,2.683s-.082,1.951-.082,2.925a23.313,23.313,0,0,0,1.771,9.511,14.551,14.551,0,0,0,4.626,6.056,9.946,9.946,0,0,0,5.916,2.075,13.532,13.532,0,0,0,4.589-.773,11.149,11.149,0,0,0,4.022-2.559,15.476,15.476,0,0,0,3.221-4.8l1.611.653a16.807,16.807,0,0,1-2.9,5.2,15.5,15.5,0,0,1-5.07,4.1,15.183,15.183,0,0,1-7.083,1.586,17.911,17.911,0,0,1-9.938-2.683,17.367,17.367,0,0,1-6.356-7.436,25.6,25.6,0,0,1-2.214-10.937,30.6,30.6,0,0,1,2.256-12.313,18.11,18.11,0,0,1,6.355-7.966,16.538,16.538,0,0,1,9.577-2.806" fill="#181b46"/>
    <path id="Path_2347" data-name="Path 2347" d="M971,561.342a7.909,7.909,0,0,1,3.825.9,6.959,6.959,0,0,1,2.572,2.313,5.777,5.777,0,0,1,.928,3.212,5.544,5.544,0,0,1-1.249,3.579,4.082,4.082,0,0,1-3.34,1.545,4.442,4.442,0,0,1-2.978-1.1,3.876,3.876,0,0,1-1.286-3.127,4.2,4.2,0,0,1,.846-2.642,7.212,7.212,0,0,1,1.89-1.75,1.934,1.934,0,0,0-1.689-.813,7.7,7.7,0,0,0-4.589,1.5,13.233,13.233,0,0,0-3.541,3.862,21.441,21.441,0,0,0-2.252,5,16.911,16.911,0,0,0-.8,4.918v17.235q0,3.981,2.293,5.324a12.325,12.325,0,0,0,6.236,1.34v1.709q-1.848-.081-5.23-.2t-7.161-.123c-1.828,0-3.636.041-5.435.123s-3.151.148-4.063.2v-1.709q3.3,0,4.708-1.216t1.409-4.635V571.342a9.146,9.146,0,0,0-1.29-5.407q-1.289-1.75-4.827-1.75V562.48q2.575.24,4.991.242a33.918,33.918,0,0,0,4.466-.283,22.22,22.22,0,0,0,3.9-.855v10.165a22,22,0,0,1,2.535-4.758,15.714,15.714,0,0,1,3.981-4.022A8.813,8.813,0,0,1,971,561.342" fill="#181b46"/>
    <path id="Path_2348" data-name="Path 2348" d="M227.466,618.408v1.627a13.645,13.645,0,0,0-4.145.608,3.031,3.031,0,0,0-1.892,1.951,14.928,14.928,0,0,0-.483,4.429v40.324a14.943,14.943,0,0,0,.483,4.388,2.8,2.8,0,0,0,1.892,1.911,14.492,14.492,0,0,0,4.145.447h5.875a19.386,19.386,0,0,0,6.156-.813,8.076,8.076,0,0,0,3.782-2.56,11.946,11.946,0,0,0,2.133-4.675,50.287,50.287,0,0,0,1.127-7.153h1.851q-.243,2.521-.242,6.664,0,1.546.121,4.433t.444,5.974q-4.105-.16-9.257-.2t-9.174-.041h-4.548q-2.776,0-5.994.041t-6.52.078q-3.3.043-6.278.124v-1.627a16.4,16.4,0,0,0,4.146-.649,2.915,2.915,0,0,0,1.892-1.952,14.984,14.984,0,0,0,.482-4.388V627.023a14.968,14.968,0,0,0-.482-4.429,3.033,3.033,0,0,0-1.892-1.951,13.663,13.663,0,0,0-4.146-.608v-1.627c1.128.053,2.6.111,4.427.164s3.784.078,5.875.078q2.817,0,5.594-.078c1.851-.053,3.393-.111,4.628-.164" fill="#181b46"/>
    <path id="Path_2349" data-name="Path 2349" d="M271.245,632.96q7.082,0,11.066,4.347t3.983,13.537H257.887l-.081-1.545h20.762a27.008,27.008,0,0,0-.643-7.358,12.765,12.765,0,0,0-2.535-5.4,5.6,5.6,0,0,0-4.465-2.033q-3.705,0-6.56,3.738t-3.42,11.87l.241.324q-.164,1.221-.241,2.683c-.055.974-.082,1.951-.082,2.925a23.281,23.281,0,0,0,1.771,9.511,14.538,14.538,0,0,0,4.628,6.056,9.937,9.937,0,0,0,5.916,2.075,13.529,13.529,0,0,0,4.587-.773,11.171,11.171,0,0,0,4.024-2.559,15.578,15.578,0,0,0,3.219-4.8l1.609.653a16.875,16.875,0,0,1-2.9,5.2,15.526,15.526,0,0,1-5.07,4.1,15.188,15.188,0,0,1-7.082,1.586,17.9,17.9,0,0,1-9.939-2.683,17.344,17.344,0,0,1-6.358-7.436,25.648,25.648,0,0,1-2.214-10.937,30.637,30.637,0,0,1,2.254-12.313,18.128,18.128,0,0,1,6.357-7.966,16.538,16.538,0,0,1,9.577-2.806" fill="#181b46"/>
    <path id="Path_2350" data-name="Path 2350" d="M302.309,676.534a12.206,12.206,0,0,1-5.713-1.261,8.6,8.6,0,0,1-3.663-3.538,10.809,10.809,0,0,1-1.247-5.283,9.737,9.737,0,0,1,1.65-5.855,12.329,12.329,0,0,1,4.225-3.656,33.619,33.619,0,0,1,5.432-2.317q2.856-.932,5.433-1.787a16.822,16.822,0,0,0,4.225-1.993,3.5,3.5,0,0,0,1.65-3.007V642.8a10.811,10.811,0,0,0-1.007-5.2,5.046,5.046,0,0,0-2.7-2.4,11.085,11.085,0,0,0-3.784-.608,17.989,17.989,0,0,0-4.3.567,6.424,6.424,0,0,0-3.661,2.358,4.794,4.794,0,0,1,2.656,1.627,4.908,4.908,0,0,1,1.126,3.332,4.143,4.143,0,0,1-1.288,3.213,4.7,4.7,0,0,1-3.3,1.175,3.919,3.919,0,0,1-3.42-1.5,5.61,5.61,0,0,1-1.087-3.373,5.284,5.284,0,0,1,1.046-3.414,12.849,12.849,0,0,1,2.656-2.436,17.64,17.64,0,0,1,4.788-2.239,21.927,21.927,0,0,1,6.639-.933,18.118,18.118,0,0,1,5.635.772,10.079,10.079,0,0,1,3.862,2.235,9.163,9.163,0,0,1,2.736,4.758,30.339,30.339,0,0,1,.645,6.705v22.6a5.388,5.388,0,0,0,.6,2.925,2.117,2.117,0,0,0,1.89.9,3.709,3.709,0,0,0,1.691-.407,11.978,11.978,0,0,0,1.93-1.3l.886,1.38a26.362,26.362,0,0,1-3.219,2.157,8.446,8.446,0,0,1-4.1.855,8.193,8.193,0,0,1-3.862-.814,5.206,5.206,0,0,1-2.295-2.4,9.241,9.241,0,0,1-.764-4.022,15.1,15.1,0,0,1-5.191,5.444,13.064,13.064,0,0,1-6.8,1.791m2.9-3.254a8.68,8.68,0,0,0,4.949-1.545A14.264,14.264,0,0,0,314.3,667.1V651.169a7.4,7.4,0,0,1-2.816,2.317q-1.855.936-4.025,1.869a29.216,29.216,0,0,0-4.145,2.194,10.572,10.572,0,0,0-3.26,3.295,9.729,9.729,0,0,0-1.286,5.283,7.533,7.533,0,0,0,1.73,5.2,5.962,5.962,0,0,0,4.708,1.952" fill="#181b46"/>
    <path id="Path_2351" data-name="Path 2351" d="M344.24,691.246a34.9,34.9,0,0,1-8.049-.9,14.636,14.636,0,0,1-6.076-2.8,6.038,6.038,0,0,1-2.293-4.839,6.338,6.338,0,0,1,2.254-4.877,14.816,14.816,0,0,1,6.115-3.09l.483,1.3a5.043,5.043,0,0,0-2.816,2.276,7.153,7.153,0,0,0-1.046,3.821,6.292,6.292,0,0,0,3.42,5.731,17.533,17.533,0,0,0,8.893,1.993,27.169,27.169,0,0,0,7.081-.937,12.825,12.825,0,0,0,5.715-3.131,7.693,7.693,0,0,0,2.253-5.772,5.767,5.767,0,0,0-1.892-4.429q-1.892-1.75-7.444-1.746h-5.955a30,30,0,0,1-4.99-.407,7.991,7.991,0,0,1-3.942-1.709,4.934,4.934,0,0,1-1.531-3.981,7.994,7.994,0,0,1,2.254-5.324q2.253-2.565,8.289-5.247l.967.731a37.52,37.52,0,0,0-4.749,2.971,4.348,4.348,0,0,0-2.011,3.533c0,1.738,1.286,2.6,3.862,2.6h10.059a19.245,19.245,0,0,1,6.239.977,10.188,10.188,0,0,1,4.626,3.09,8.323,8.323,0,0,1,1.771,5.526,12,12,0,0,1-2.414,7.157,16.933,16.933,0,0,1-7.2,5.4,29.86,29.86,0,0,1-11.869,2.075m.4-32.6a18.418,18.418,0,0,1-7.163-1.34,10.89,10.89,0,0,1-5.07-4.186,15.395,15.395,0,0,1,0-14.634,10.921,10.921,0,0,1,5.07-4.187,19.933,19.933,0,0,1,14.365,0,10.961,10.961,0,0,1,5.031,4.187,15.387,15.387,0,0,1,0,14.634,10.929,10.929,0,0,1-5.031,4.186,18.345,18.345,0,0,1-7.2,1.34m0-1.463a5.556,5.556,0,0,0,4.789-2.436q1.728-2.441,1.729-8.944t-1.729-8.94a5.88,5.88,0,0,0-9.538,0q-1.771,2.435-1.771,8.94t1.771,8.944a5.579,5.579,0,0,0,4.749,2.436m11.588-17.477-1.448-.567a11.817,11.817,0,0,1,3.864-4.881,9.24,9.24,0,0,1,5.712-2.111,4.82,4.82,0,0,1,3.382,1.179,4.564,4.564,0,0,1,1.286,3.537A4.181,4.181,0,0,1,367.7,640.4a4.414,4.414,0,0,1-2.7,1.019,3.506,3.506,0,0,1-2.253-.854,3.755,3.755,0,0,1-1.208-2.724,10.311,10.311,0,0,1,1.126-4.795l1.048.243a14.367,14.367,0,0,0-4.83,2.723,15.03,15.03,0,0,0-2.656,3.7" fill="#181b46"/>
    <path id="Path_2352" data-name="Path 2352" d="M406.934,633.2v33.981q0,3.66,1.327,5.406t4.788,1.746v1.709q-2.5-.246-4.989-.246a38.959,38.959,0,0,0-4.466.246,16.856,16.856,0,0,0-3.9.892v-9.589q-2.013,5.281-5.674,7.518a14.255,14.255,0,0,1-7.524,2.235,13.518,13.518,0,0,1-4.91-.813,9.177,9.177,0,0,1-3.461-2.276,8.682,8.682,0,0,1-2.091-4.228,30.89,30.89,0,0,1-.565-6.421v-20.4a9.154,9.154,0,0,0-1.288-5.406q-1.289-1.75-4.828-1.75v-1.7q2.574.24,4.99.242a33.907,33.907,0,0,0,4.466-.283,22.206,22.206,0,0,0,3.9-.855v31.947a30.826,30.826,0,0,0,.322,4.634,5.958,5.958,0,0,0,1.611,3.414,5.7,5.7,0,0,0,4.184,1.3,8.739,8.739,0,0,0,5.594-1.952,13.11,13.11,0,0,0,3.862-5.283,19.073,19.073,0,0,0,1.409-7.482V642.959a9.161,9.161,0,0,0-1.288-5.406q-1.289-1.75-4.83-1.75v-1.7q2.577.24,4.99.242a33.96,33.96,0,0,0,4.468-.283,22.245,22.245,0,0,0,3.9-.855" fill="#181b46"/>
    <path id="Path_2353" data-name="Path 2353" d="M435.179,632.96q7.082,0,11.066,4.347t3.983,13.537H421.82l-.08-1.545H442.5a27.01,27.01,0,0,0-.643-7.358,12.765,12.765,0,0,0-2.535-5.4,5.6,5.6,0,0,0-4.465-2.033q-3.705,0-6.56,3.738t-3.42,11.87l.241.324q-.164,1.221-.241,2.683c-.055.974-.082,1.951-.082,2.925a23.281,23.281,0,0,0,1.771,9.511,14.538,14.538,0,0,0,4.628,6.056,9.937,9.937,0,0,0,5.916,2.075,13.529,13.529,0,0,0,4.587-.773,11.171,11.171,0,0,0,4.024-2.559,15.577,15.577,0,0,0,3.219-4.8l1.609.653a16.874,16.874,0,0,1-2.9,5.2,15.526,15.526,0,0,1-5.07,4.1A15.189,15.189,0,0,1,435.5,677.1a17.9,17.9,0,0,1-9.939-2.683,17.344,17.344,0,0,1-6.358-7.436,25.648,25.648,0,0,1-2.214-10.937,30.638,30.638,0,0,1,2.254-12.313,18.128,18.128,0,0,1,6.357-7.966,16.538,16.538,0,0,1,9.577-2.806" fill="#181b46"/>
    <path id="Path_2354" data-name="Path 2354" d="M514.531,618.408q-.321,3.094-.44,5.974c-.082,1.927-.123,3.4-.123,4.433q0,1.947.082,3.656t.16,3.008h-1.848a51.246,51.246,0,0,0-1.533-8.981,7.87,7.87,0,0,0-3.377-4.758q-2.415-1.461-7.486-1.463H494.9a14.609,14.609,0,0,0-4.146.448,2.8,2.8,0,0,0-1.89,1.87,14.809,14.809,0,0,0-.484,4.428v40.324a12.086,12.086,0,0,0,.6,4.388,3.337,3.337,0,0,0,2.374,1.952,25.186,25.186,0,0,0,5.152.649v1.627q-2.1-.16-5.312-.2t-6.52-.041q-3.136,0-5.875.041c-1.824.025-3.3.1-4.425.2v-1.627a16.421,16.421,0,0,0,4.146-.649,2.911,2.911,0,0,0,1.889-1.952,14.952,14.952,0,0,0,.481-4.388V627.023a14.93,14.93,0,0,0-.481-4.428,3.03,3.03,0,0,0-1.889-1.952,13.679,13.679,0,0,0-4.146-.608v-1.627q2.977.079,6.278.123t6.516.083q3.216.036,6,.036h4.544q3.7,0,8.41-.036t8.41-.206M502.058,648.65H485.965v-1.627h16.093Zm1.528-12.358q-.321,4.635-.279,7.075c.024,1.623.041,3.114.041,4.47s.024,2.843.078,4.47.189,3.985.4,7.074H501.98q-.327-2.6-.765-5.082a7.759,7.759,0,0,0-1.935-4.063q-1.485-1.59-5.028-1.586v-1.627a6.492,6.492,0,0,0,4.063-1.1,6.305,6.305,0,0,0,2.054-2.806,15.957,15.957,0,0,0,.883-3.533q.247-1.83.485-3.295Z" fill="#181b46"/>
    <path id="Path_2355" data-name="Path 2355" d="M535.373,632.96a18.773,18.773,0,0,1,9.256,2.276,16.171,16.171,0,0,1,6.557,7.153q2.46,4.881,2.457,12.683t-2.457,12.641a16.2,16.2,0,0,1-6.557,7.112,19.876,19.876,0,0,1-18.471,0,16.133,16.133,0,0,1-6.6-7.112q-2.453-4.838-2.453-12.641t2.453-12.683a16.109,16.109,0,0,1,6.6-7.153,18.852,18.852,0,0,1,9.215-2.276m0,1.627q-4.586,0-7.522,4.8t-2.938,15.69q0,10.895,2.938,15.648t7.522,4.754q4.592,0,7.527-4.754t2.937-15.648q0-10.9-2.937-15.69t-7.527-4.8" fill="#181b46"/>
    <path id="Path_2356" data-name="Path 2356" d="M594.768,633.2v33.981q0,3.66,1.331,5.406t4.786,1.746v1.709q-2.5-.246-4.987-.246a39.03,39.03,0,0,0-4.47.246,16.879,16.879,0,0,0-3.9.892v-9.589q-2.01,5.281-5.674,7.518a14.238,14.238,0,0,1-7.522,2.235,13.518,13.518,0,0,1-4.91-.813,9.138,9.138,0,0,1-3.459-2.276,8.662,8.662,0,0,1-2.1-4.228,31.121,31.121,0,0,1-.562-6.421v-20.4a9.185,9.185,0,0,0-1.286-5.406q-1.289-1.75-4.832-1.75v-1.7q2.577.24,4.992.242a33.886,33.886,0,0,0,4.466-.283,22.165,22.165,0,0,0,3.9-.855v31.947a30.547,30.547,0,0,0,.324,4.634,5.967,5.967,0,0,0,1.607,3.414,5.713,5.713,0,0,0,4.186,1.3,8.729,8.729,0,0,0,5.592-1.952,13.1,13.1,0,0,0,3.866-5.283,19.09,19.09,0,0,0,1.405-7.482V642.959a9.147,9.147,0,0,0-1.286-5.406q-1.289-1.75-4.827-1.75v-1.7q2.57.24,4.987.242a33.885,33.885,0,0,0,4.466-.283,22.166,22.166,0,0,0,3.9-.855" fill="#181b46"/>
    <path id="Path_2357" data-name="Path 2357" d="M630.5,632.96a13.963,13.963,0,0,1,5.111.813,8.947,8.947,0,0,1,5.591,6.34,26.678,26.678,0,0,1,.645,6.585V668.4q0,3.414,1.41,4.635t4.708,1.216v1.709c-.916-.054-2.309-.124-4.187-.2s-3.7-.123-5.472-.123-3.5.041-5.189.123-2.966.148-3.825.2v-1.709q2.9,0,4.1-1.216t1.208-4.635V644.911a24.936,24.936,0,0,0-.4-4.634,6.04,6.04,0,0,0-1.812-3.414,6.169,6.169,0,0,0-4.306-1.3,9.428,9.428,0,0,0-5.916,1.951,12.743,12.743,0,0,0-3.94,5.325,19.3,19.3,0,0,0-1.409,7.518V668.4q0,3.414,1.208,4.635t4.1,1.216v1.709c-.858-.054-2.132-.124-3.825-.2s-3.418-.123-5.189-.123-3.595.041-5.472.123-3.275.148-4.187.2v-1.709q3.3,0,4.709-1.216t1.409-4.635V642.96a9.154,9.154,0,0,0-1.29-5.407q-1.289-1.75-4.828-1.75v-1.7q2.577.24,4.992.242a33.919,33.919,0,0,0,4.466-.283,22.227,22.227,0,0,0,3.9-.855V642.8q2.09-5.529,5.834-7.683a15.522,15.522,0,0,1,7.847-2.153" fill="#181b46"/>
    <path id="Path_2358" data-name="Path 2358" d="M669.693,632.96a13.539,13.539,0,0,1,6.639,1.7,8.7,8.7,0,0,1,4.146,5.854l-1.044.814a9.032,9.032,0,0,0-3.5-4.959,10.045,10.045,0,0,0-5.592-1.545q-4.752,0-7.925,4.959t-3.1,15.283A40.276,40.276,0,0,0,660.56,666a13.269,13.269,0,0,0,3.7,6.5,8.757,8.757,0,0,0,5.994,2.152,8.218,8.218,0,0,0,6.117-2.925q2.736-2.926,3.3-8.615l.966,1.138q-.641,6.176-3.9,9.511a11.778,11.778,0,0,1-8.813,3.332,15.612,15.612,0,0,1-8.73-2.441,15.2,15.2,0,0,1-5.715-7.313,32.983,32.983,0,0,1-1.972-12.276,26.75,26.75,0,0,1,2.535-12.317,17.629,17.629,0,0,1,6.68-7.358,17.421,17.421,0,0,1,8.973-2.436m16.9-20.731V667.1q0,3.66,1.327,5.407t4.79,1.746v1.709c-1.664-.165-3.327-.243-4.991-.243a38.741,38.741,0,0,0-4.466.243,16.826,16.826,0,0,0-3.9.895V621.986a9.177,9.177,0,0,0-1.286-5.406c-.863-1.167-2.469-1.75-4.832-1.75v-1.705q2.577.246,4.992.242a33.919,33.919,0,0,0,4.466-.283,22.154,22.154,0,0,0,3.9-.855" fill="#181b46"/>
    <path id="Path_2359" data-name="Path 2359" d="M706.636,676.534a12.214,12.214,0,0,1-5.715-1.261,8.584,8.584,0,0,1-3.661-3.538,10.787,10.787,0,0,1-1.249-5.283,9.738,9.738,0,0,1,1.652-5.855,12.3,12.3,0,0,1,4.223-3.656,33.62,33.62,0,0,1,5.432-2.317q2.859-.932,5.431-1.787a16.8,16.8,0,0,0,4.227-1.993,3.5,3.5,0,0,0,1.648-3.007V642.8a10.816,10.816,0,0,0-1-5.2,5.046,5.046,0,0,0-2.7-2.4,11.062,11.062,0,0,0-3.78-.608,17.964,17.964,0,0,0-4.305.567,6.418,6.418,0,0,0-3.665,2.358,4.8,4.8,0,0,1,2.658,1.627,4.9,4.9,0,0,1,1.126,3.332,4.155,4.155,0,0,1-1.286,3.213,4.7,4.7,0,0,1-3.3,1.175,3.92,3.92,0,0,1-3.418-1.5,5.621,5.621,0,0,1-1.085-3.373,5.271,5.271,0,0,1,1.044-3.414,12.864,12.864,0,0,1,2.658-2.436,17.6,17.6,0,0,1,4.786-2.239,21.927,21.927,0,0,1,6.639-.933,18.1,18.1,0,0,1,5.633.772,10.111,10.111,0,0,1,3.866,2.235,9.191,9.191,0,0,1,2.736,4.758,30.482,30.482,0,0,1,.641,6.705v22.6a5.388,5.388,0,0,0,.6,2.925,2.126,2.126,0,0,0,1.894.9,3.706,3.706,0,0,0,1.688-.407,12.025,12.025,0,0,0,1.931-1.3l.888,1.38a26.687,26.687,0,0,1-3.221,2.157,8.447,8.447,0,0,1-4.1.855,8.2,8.2,0,0,1-3.862-.814,5.215,5.215,0,0,1-2.3-2.4,9.27,9.27,0,0,1-.764-4.022,15.062,15.062,0,0,1-5.189,5.444,13.067,13.067,0,0,1-6.8,1.791m2.9-3.254a8.7,8.7,0,0,0,4.951-1.545,14.257,14.257,0,0,0,4.141-4.634V651.169a7.36,7.36,0,0,1-2.814,2.317c-1.237.624-2.576,1.249-4.027,1.869a29.059,29.059,0,0,0-4.141,2.194,10.536,10.536,0,0,0-3.262,3.295,9.729,9.729,0,0,0-1.286,5.283,7.533,7.533,0,0,0,1.73,5.2,5.968,5.968,0,0,0,4.708,1.952" fill="#181b46"/>
    <path id="Path_2360" data-name="Path 2360" d="M746.713,620.6V634.18h11.91V635.8h-11.91v31.462q0,3.822,1.368,5.366a4.8,4.8,0,0,0,3.784,1.545,5.433,5.433,0,0,0,4.182-1.993q1.769-1.99,3.061-6.7l1.606.4a18.6,18.6,0,0,1-3.175,7.97q-2.379,3.247-7.285,3.25a12.538,12.538,0,0,1-4.506-.69,9.526,9.526,0,0,1-3.139-1.993,10.091,10.091,0,0,1-2.457-4.47,28.133,28.133,0,0,1-.682-6.91V635.8h-7.728V634.18h7.728V621.74c1.339-.053,2.629-.16,3.862-.325a15.2,15.2,0,0,0,3.381-.813" fill="#181b46"/>
    <path id="Path_2361" data-name="Path 2361" d="M774.075,633.2v35.2q0,3.414,1.41,4.634t4.708,1.216v1.709c-.916-.053-2.3-.123-4.145-.2s-3.719-.124-5.6-.124q-2.736,0-5.551.124c-1.881.078-3.274.148-4.186.2v-1.709q3.3,0,4.708-1.216t1.409-4.634V642.96a9.149,9.149,0,0,0-1.29-5.407q-1.287-1.749-4.827-1.75v-1.7q2.575.241,4.992.243a33.925,33.925,0,0,0,4.466-.284,22.23,22.23,0,0,0,3.9-.854m-4.186-19.429a4.944,4.944,0,0,1,3.624,1.545,5.144,5.144,0,0,1,0,7.317,5.018,5.018,0,0,1-7.244,0,5.144,5.144,0,0,1,0-7.317,4.929,4.929,0,0,1,3.62-1.545" fill="#181b46"/>
    <path id="Path_2362" data-name="Path 2362" d="M802.481,632.96a18.772,18.772,0,0,1,9.256,2.276,16.171,16.171,0,0,1,6.557,7.153q2.46,4.881,2.457,12.683t-2.457,12.641a16.2,16.2,0,0,1-6.557,7.112,19.876,19.876,0,0,1-18.471,0,16.133,16.133,0,0,1-6.6-7.112q-2.453-4.838-2.453-12.641t2.453-12.683a16.109,16.109,0,0,1,6.6-7.153,18.852,18.852,0,0,1,9.215-2.276m0,1.627q-4.586,0-7.522,4.8t-2.938,15.69q0,10.895,2.938,15.648t7.522,4.754q4.591,0,7.527-4.754t2.937-15.648q0-10.9-2.937-15.69t-7.527-4.8" fill="#181b46"/>
    <path id="Path_2363" data-name="Path 2363" d="M852.382,632.96a13.963,13.963,0,0,1,5.111.813,8.947,8.947,0,0,1,5.591,6.34,26.677,26.677,0,0,1,.645,6.585V668.4q0,3.414,1.41,4.635t4.708,1.216v1.709c-.916-.054-2.309-.124-4.187-.2s-3.7-.123-5.472-.123-3.5.041-5.189.123-2.966.148-3.825.2v-1.709q2.9,0,4.1-1.216t1.208-4.635V644.911a24.931,24.931,0,0,0-.4-4.634,6.039,6.039,0,0,0-1.812-3.414,6.169,6.169,0,0,0-4.306-1.3,9.429,9.429,0,0,0-5.916,1.951,12.743,12.743,0,0,0-3.94,5.325,19.3,19.3,0,0,0-1.409,7.518V668.4q0,3.414,1.208,4.635t4.1,1.216v1.709c-.858-.054-2.132-.124-3.825-.2s-3.418-.123-5.189-.123-3.6.041-5.472.123-3.274.148-4.187.2v-1.709q3.3,0,4.709-1.216c.936-.814,1.409-2.359,1.409-4.635V642.96a9.154,9.154,0,0,0-1.29-5.407q-1.289-1.75-4.828-1.75v-1.7q2.577.24,4.992.242a33.917,33.917,0,0,0,4.466-.283,22.225,22.225,0,0,0,3.9-.855V642.8q2.09-5.529,5.834-7.683a15.522,15.522,0,0,1,7.847-2.153" fill="#181b46"/>
    <rect id="Rectangle_630" data-name="Rectangle 630" width="92.231" height="90.753" transform="translate(522.06 409.956)" fill="#fca600"/>
    <rect id="Rectangle_631" data-name="Rectangle 631" width="89.413" height="84.958" transform="translate(542.475 341.735)" fill="#90b214"/>
    <rect id="Rectangle_632" data-name="Rectangle 632" width="112.425" height="111.488" transform="translate(464.48 315.205)" fill="#41b0b3"/>
    <rect id="Rectangle_633" data-name="Rectangle 633" width="34.43" height="84.958" transform="translate(542.475 341.735)" fill="#429b2b"/>
    <rect id="Rectangle_634" data-name="Rectangle 634" width="96.531" height="105.442" transform="translate(445.944 375.725)" fill="#ed6c16"/>
    <rect id="Rectangle_635" data-name="Rectangle 635" width="20.415" height="71.212" transform="translate(522.06 409.956)" fill="#e64e1a"/>
    <path id="Path_2364" data-name="Path 2364" d="M538.837,361.521c-3.5,7.774-13.884,10.661-23.154,6.437-9.27-4.192-13.921-13.9-10.415-21.671,3.55-7.78,13.919-10.663,23.183-6.467,9.26,4.215,13.92,13.9,10.386,21.7" fill="#fff"/>
    <path id="Path_2365" data-name="Path 2365" d="M579.026,392.994c-6.37-2.291-9.308-10.308-6.58-17.891,2.737-7.565,10.131-11.875,16.485-9.588,6.362,2.316,9.3,10.3,6.579,17.9-2.755,7.6-10.123,11.887-16.484,9.576" fill="#fff"/>
    <path id="Path_2366" data-name="Path 2366" d="M564.2,354.59a23.884,23.884,0,0,0-2.933.8,41.119,41.119,0,0,0-6.016,2.534,109.262,109.262,0,0,0-11.1,6.859,79.464,79.464,0,0,1-10.531,6.339,21.875,21.875,0,0,1-10.673,2.343c-15.267-1.034-43.118-31.817-52.481-21.009-8.417,9.715,25.907,21.325,31.95,35.808,3.7,8.871,5.427,24.634,3.36,41.105-1.186,9.451-1.647,16.966-1.647,16.966a26.049,26.049,0,0,0,1.278,8.418c1.875,5.385,5.571,7.637,9.432,3.131,3.078-4.03,3.85-27.081,3.85-27.081.441-3.916,2.316-7.059,7.112-7.276,5.332-.242,5.361,2.079,4.786,23.858-.538,20.366,7.014,16.706,10.015,13.85,2.974-2.865,5.477-13.484,2.857-45.314-2.315-28.123,4.281-22.9,4.281-22.9s12.344,7.3,15.751,10.715c.118.119.226.233.322.341,0,0,.423.287.146,1.338-1.929,7.669-5.28,13.389-10.956,23.864s12.4,8.091,12.4,8.091-.023,35,9.059,27.216c9.1-7.826-2.984-29.233,6.206-26.259,9.17,2.993,2.252,28.135,10.972,25.288s6.2-24.342,6.2-24.342,16.17-4.113,11.934-11.426c-4.273-7.3-15.055-13.559-10.022-18.62,5.015-5.031,26.485-25.884,15.741-28.6-7.631-1.941-14.1,8.866-22.691,13.4-8.466,4.467-18,1.326-18,1.326-9.912-2.839-19.975-9.691-21.511-13.919-1.13-3.047,11.433-12.947,18.1-18.64,4.065-3.473,2.818-5.71.98-6.995a6.972,6.972,0,0,0-1.416-.574,13.277,13.277,0,0,0-5.971-.75c-.26.032-.518.073-.776.122" fill="#fff"/>
  </g>
</svg>
