<svg xmlns="http://www.w3.org/2000/svg" width="336.363" height="552.282" viewBox="0 0 336.363 552.282">
  <g id="Group_7242" data-name="Group 7242" transform="translate(-366.582 -191.558)">
    <rect id="Rectangle_630" data-name="Rectangle 630" width="147.421" height="145.061" transform="translate(507.822 343.004)" fill="#fea800"/>
    <rect id="Rectangle_631" data-name="Rectangle 631" width="142.917" height="135.795" transform="translate(540.454 233.963)" fill="#90b314"/>
    <rect id="Rectangle_632" data-name="Rectangle 632" width="179.701" height="178.2" transform="translate(415.784 191.558)" fill="#3fb0b3"/>
    <rect id="Rectangle_633" data-name="Rectangle 633" width="55.034" height="135.795" transform="translate(540.454 233.963)" fill="#439c2b"/>
    <rect id="Rectangle_634" data-name="Rectangle 634" width="154.295" height="168.539" transform="translate(386.159 288.292)" fill="#ee6e16"/>
    <rect id="Rectangle_635" data-name="Rectangle 635" width="32.632" height="113.823" transform="translate(507.822 343.007)" fill="#e74e18"/>
    <path id="Path_2320" data-name="Path 2320" d="M458.48,241.044c-5.6,12.427-22.191,17.043-37.01,10.293-14.816-6.7-22.25-22.219-16.647-34.64,5.677-12.44,22.247-17.043,37.056-10.336,14.8,6.735,22.25,22.207,16.6,34.683" transform="translate(76.158 24.543)" fill="#fff"/>
    <path id="Path_2321" data-name="Path 2321" d="M449.888,262.136c-10.181-3.663-14.878-16.477-10.519-28.6,4.375-12.09,16.2-18.98,26.349-15.323,10.169,3.7,14.862,16.465,10.519,28.614-4.405,12.149-16.18,19-26.349,15.308" transform="translate(148.988 53.758)" fill="#fff"/>
    <path id="Path_2322" data-name="Path 2322" d="M536.829,216.7a38.124,38.124,0,0,0-4.687,1.278,65.725,65.725,0,0,0-9.618,4.05,174.494,174.494,0,0,0-17.736,10.964c-5.429,3.651-10.89,7.354-16.833,10.132-5.33,2.49-11.128,4.146-17.059,3.747-24.4-1.655-68.922-50.857-83.886-33.582-13.454,15.527,41.409,34.086,51.068,57.237,5.915,14.178,8.675,39.374,5.371,65.7-1.9,15.107-2.633,27.119-2.633,27.119a41.588,41.588,0,0,0,2.045,13.455c3,8.607,8.9,12.208,15.076,5,4.919-6.441,6.153-43.284,6.153-43.284.705-6.259,3.7-11.283,11.369-11.632,8.52-.384,8.567,3.326,7.648,38.136-.86,32.552,11.212,26.7,16.007,22.139,4.755-4.582,8.755-21.554,4.566-72.43-3.7-44.951,6.843-36.611,6.843-36.611s19.732,11.669,25.177,17.127c.189.189.362.371.514.544,0,0,.678.458.235,2.138-3.081,12.26-8.44,21.4-17.514,38.145s19.815,12.932,19.815,12.932-.037,55.943,14.479,43.5c14.54-12.508-4.771-46.724,9.918-41.972,14.658,4.786,3.6,44.97,17.538,40.422s9.909-38.909,9.909-38.909,25.845-6.574,19.076-18.262c-6.831-11.673-24.066-21.674-16.019-29.761,8.016-8.044,42.334-41.375,25.158-45.719-12.2-3.1-22.531,14.172-36.267,21.421-13.532,7.14-28.771,2.119-28.771,2.119-15.843-4.539-31.927-15.49-34.384-22.247-1.807-4.873,18.275-20.7,28.923-29.8,6.5-5.55,4.5-9.126,1.565-11.181a11.144,11.144,0,0,0-2.262-.919,21.255,21.255,0,0,0-9.544-1.2c-.415.053-.829.118-1.24.195" transform="translate(38.349 37.811)" fill="#fff"/>
    <path id="Path_2323" data-name="Path 2323" d="M422.581,356.212a9.065,9.065,0,0,0-3.378.684,2.88,2.88,0,0,0-1.494,1.819,13.5,13.5,0,0,0-.39,3.737V382a45.235,45.235,0,0,1-.616,8.025,17.385,17.385,0,0,1-2.048,5.748,11.371,11.371,0,0,1-4.774,4.418,15.315,15.315,0,0,1-7.116,1.624q-7.146,0-10.914-3.508a13.191,13.191,0,0,1-3.833-6.042,38.842,38.842,0,0,1-.974-10.07V361.8a11.754,11.754,0,0,0-.39-3.576,2.334,2.334,0,0,0-1.46-1.494,12.946,12.946,0,0,0-3.412-.52v-1.3q2.729.2,8.316.2,5.262,0,8.251-.2v1.3a12.945,12.945,0,0,0-3.412.52,2.333,2.333,0,0,0-1.46,1.494,11.754,11.754,0,0,0-.39,3.576v21.5a43.525,43.525,0,0,0,.715,8.641,10.065,10.065,0,0,0,2.958,5.522q2.241,2.079,6.593,2.079,6.887,0,9.68-4.418t2.794-12.409V362.452q0-3.513-1.265-4.811t-4.647-1.429v-1.3q2.339.2,6.627.2,3.9,0,6.042-.2Z" transform="translate(31.822 342.017)" fill="#00a5ae"/>
    <path id="Path_2324" data-name="Path 2324" d="M413.912,355.3a16.721,16.721,0,0,1,3.412,1.785,4.678,4.678,0,0,0,2.206.909,1,1,0,0,0,.91-.681,7.636,7.636,0,0,0,.52-2.178h1.5q-.329,3.773-.325,13.253h-1.5a16.828,16.828,0,0,0-3.02-8.867,8.865,8.865,0,0,0-7.635-3.607,7.939,7.939,0,0,0-5.717,2.113,7.176,7.176,0,0,0-2.209,5.426,7.906,7.906,0,0,0,1.138,4.285,11.233,11.233,0,0,0,2.893,3.118q1.754,1.3,5,3.316l1.884,1.169a64.218,64.218,0,0,1,6.466,4.449,15.857,15.857,0,0,1,3.8,4.384,11.368,11.368,0,0,1,1.429,5.782q0,5.917-3.9,9.13a15,15,0,0,1-9.875,3.214,16.7,16.7,0,0,1-5.1-.65,18.2,18.2,0,0,1-3.8-1.754,4.722,4.722,0,0,0-2.206-.91,1,1,0,0,0-.909.684,7.661,7.661,0,0,0-.52,2.178h-1.494q.255-3.578.26-15.592h1.494a21.191,21.191,0,0,0,3.245,10.652q2.8,4.093,8.576,4.093a8.737,8.737,0,0,0,5.98-2.175q2.464-2.176,2.466-6.466a8.571,8.571,0,0,0-2.435-6.172,38.877,38.877,0,0,0-7.7-5.714,71.122,71.122,0,0,1-6.206-4.161,14.92,14.92,0,0,1-3.864-4.384,11.692,11.692,0,0,1-1.494-6.008q0-5.457,3.508-8.35a15.23,15.23,0,0,1,13.219-2.274" transform="translate(63.391 341.535)" fill="#00a5ae"/>
    <path id="Path_2325" data-name="Path 2325" d="M448.4,399.832v1.3q-2.6-.2-6.955-.2-5.587,0-8.316.2v-1.3a10.685,10.685,0,0,0,3.539-.616,1.8,1.8,0,0,0,1.074-1.788,8.925,8.925,0,0,0-.78-3.053L433,383.72H417.279l-2.664,6.887a16.986,16.986,0,0,0-1.3,5.327,3.227,3.227,0,0,0,1.4,2.921,8.252,8.252,0,0,0,4.257.978v1.3q-3.7-.2-7.471-.2-2.924,0-4.873.2v-1.3q3.248-.779,5.132-5.652l15.267-39.37h1.039l15.852,40.865q1.559,4.028,4.486,4.158m-15.92-17.411L425.2,362.995,417.8,382.42Z" transform="translate(83.836 341.799)" fill="#00a5ae"/>
    <path id="Path_2326" data-name="Path 2326" d="M442.678,356.212a12.947,12.947,0,0,0-3.412.52,2.334,2.334,0,0,0-1.46,1.494,11.754,11.754,0,0,0-.39,3.576v32.224a11.7,11.7,0,0,0,.39,3.57,2.334,2.334,0,0,0,1.46,1.494,12.952,12.952,0,0,0,3.412.52v1.3q-2.993-.2-8.251-.2-5.587,0-8.316.2v-1.3a12.9,12.9,0,0,0,3.409-.52,2.331,2.331,0,0,0,1.463-1.494,11.7,11.7,0,0,0,.39-3.57V361.8a11.758,11.758,0,0,0-.39-3.576,2.331,2.331,0,0,0-1.463-1.494,12.9,12.9,0,0,0-3.409-.52v-1.3q2.729.2,8.316.2,5.193,0,8.251-.2Z" transform="translate(124.636 342.017)" fill="#00a5ae"/>
    <path id="Path_2327" data-name="Path 2327" d="M474.03,356.212a9.1,9.1,0,0,0-3.381.684,2.885,2.885,0,0,0-1.491,1.819,13.5,13.5,0,0,0-.39,3.737v38.786h-1.5l-27.283-42.167v34.306a12.447,12.447,0,0,0,.421,3.765,2.938,2.938,0,0,0,1.658,1.788,11.349,11.349,0,0,0,3.83.681v1.3q-2.339-.2-6.624-.2-3.9,0-6.042.2v-1.3a9.05,9.05,0,0,0,3.375-.681,2.882,2.882,0,0,0,1.5-1.819,13.5,13.5,0,0,0,.39-3.734V361.8a11.75,11.75,0,0,0-.39-3.576,2.331,2.331,0,0,0-1.463-1.494,12.918,12.918,0,0,0-3.409-.52v-1.3q2.139.2,6.042.2,2.923,0,5.064-.2l22.934,35.343v-27.8a12.4,12.4,0,0,0-.421-3.771,2.938,2.938,0,0,0-1.655-1.785,11.354,11.354,0,0,0-3.836-.684v-1.3q2.339.2,6.63.2,3.9,0,6.042-.2Z" transform="translate(139.541 342.017)" fill="#00a5ae"/>
    <path id="Path_2328" data-name="Path 2328" d="M475.423,355.724a22.51,22.51,0,0,1,5.33,3.118,2.081,2.081,0,0,0,1.231.582q1.3,0,1.689-3.9h1.494q-.255,4.223-.26,14.943h-1.494a50.394,50.394,0,0,0-1.3-6.076,10.824,10.824,0,0,0-1.949-3.542,11.976,11.976,0,0,0-4.969-3.8,16.667,16.667,0,0,0-6.531-1.268,10.755,10.755,0,0,0-7.372,2.794,18.156,18.156,0,0,0-4.9,7.957,37.733,37.733,0,0,0-1.757,12.118,34.859,34.859,0,0,0,1.887,12.149,17,17,0,0,0,5.228,7.7,11.9,11.9,0,0,0,7.567,2.633,16.6,16.6,0,0,0,6.3-1.238,10.57,10.57,0,0,0,4.807-3.7,12.5,12.5,0,0,0,1.887-3.9,46.032,46.032,0,0,0,1.1-6.364h1.494q0,11.174.26,15.592h-1.494a11.587,11.587,0,0,0-.551-2.955c-.238-.588-.575-.882-1.008-.882a2.862,2.862,0,0,0-1.361.52,27.335,27.335,0,0,1-5.59,3.153,17.23,17.23,0,0,1-6.432,1.073,20.548,20.548,0,0,1-10.816-2.8,18.611,18.611,0,0,1-7.211-8.087,28.713,28.713,0,0,1-2.565-12.635,29.14,29.14,0,0,1,2.63-12.672,20.4,20.4,0,0,1,7.341-8.573A19.209,19.209,0,0,1,468.8,354.62a17.679,17.679,0,0,1,6.627,1.1" transform="translate(170.758 341.403)" fill="#00a5ae"/>
    <path id="Path_2329" data-name="Path 2329" d="M421.511,309.623a45.271,45.271,0,0,1,10.723,6.277,4.233,4.233,0,0,0,2.487,1.179q2.613,0,3.4-7.849h3.007q-.524,8.506-.523,30.083H437.6a101.906,101.906,0,0,0-2.617-12.229,21.74,21.74,0,0,0-3.923-7.128,24.132,24.132,0,0,0-10.005-7.651,33.612,33.612,0,0,0-13.142-2.549,21.652,21.652,0,0,0-14.844,5.621Q386.719,321,383.192,331.4t-3.53,24.391q0,14.256,3.793,24.456t10.528,15.5a23.98,23.98,0,0,0,15.234,5.3,33.591,33.591,0,0,0,12.687-2.484,21.368,21.368,0,0,0,9.677-7.456,25.084,25.084,0,0,0,3.793-7.846,92.637,92.637,0,0,0,2.224-12.817h3.007q0,22.5.523,31.389h-3.007a23.218,23.218,0,0,0-1.114-5.952q-.719-1.763-2.026-1.763a5.771,5.771,0,0,0-2.747,1.043,55.127,55.127,0,0,1-11.246,6.345,34.7,34.7,0,0,1-12.947,2.159,41.426,41.426,0,0,1-21.777-5.624,37.525,37.525,0,0,1-14.516-16.285q-5.17-10.65-5.167-25.433,0-14.386,5.3-25.5a41.023,41.023,0,0,1,14.776-17.263,38.668,38.668,0,0,1,21.514-6.15,35.592,35.592,0,0,1,13.34,2.224" transform="translate(0 242.537)" fill="#161944"/>
    <path id="Path_2330" data-name="Path 2330" d="M450.595,309.623a45.271,45.271,0,0,1,10.723,6.277,4.233,4.233,0,0,0,2.487,1.179q2.613,0,3.4-7.849h3.007q-.524,8.506-.523,30.083h-3.007a101.931,101.931,0,0,0-2.617-12.229,21.738,21.738,0,0,0-3.923-7.128,24.132,24.132,0,0,0-10.005-7.651,33.613,33.613,0,0,0-13.142-2.549,21.653,21.653,0,0,0-14.844,5.621Q415.8,321,412.276,331.4t-3.53,24.391q0,14.256,3.793,24.456t10.528,15.5a23.979,23.979,0,0,0,15.233,5.3,33.592,33.592,0,0,0,12.687-2.484,21.367,21.367,0,0,0,9.677-7.456,25.084,25.084,0,0,0,3.793-7.846,92.637,92.637,0,0,0,2.224-12.817h3.007q0,22.5.523,31.389H467.2a23.229,23.229,0,0,0-1.114-5.952q-.719-1.763-2.026-1.763a5.771,5.771,0,0,0-2.747,1.043,55.127,55.127,0,0,1-11.246,6.345,34.7,34.7,0,0,1-12.947,2.159,41.425,41.425,0,0,1-21.776-5.624,37.526,37.526,0,0,1-14.516-16.285q-5.17-10.65-5.167-25.433,0-14.386,5.3-25.5a41.023,41.023,0,0,1,14.776-17.263,38.668,38.668,0,0,1,21.514-6.15,35.593,35.593,0,0,1,13.34,2.224" transform="translate(60.893 242.537)" fill="#161944"/>
    <path id="Path_2331" data-name="Path 2331" d="M479.678,309.623A45.271,45.271,0,0,1,490.4,315.9a4.233,4.233,0,0,0,2.487,1.179q2.613,0,3.4-7.849h3.007q-.524,8.506-.523,30.083h-3.007a101.931,101.931,0,0,0-2.617-12.229,21.736,21.736,0,0,0-3.923-7.128,24.131,24.131,0,0,0-10.005-7.651,33.612,33.612,0,0,0-13.142-2.549,21.652,21.652,0,0,0-14.844,5.621Q444.886,321,441.359,331.4t-3.53,24.391q0,14.256,3.793,24.456t10.528,15.5a23.98,23.98,0,0,0,15.234,5.3,33.592,33.592,0,0,0,12.687-2.484,21.369,21.369,0,0,0,9.677-7.456,25.081,25.081,0,0,0,3.793-7.846,92.614,92.614,0,0,0,2.224-12.817h3.007q0,22.5.523,31.389h-3.007a23.218,23.218,0,0,0-1.114-5.952q-.719-1.763-2.026-1.763a5.771,5.771,0,0,0-2.747,1.043,55.127,55.127,0,0,1-11.246,6.345,34.7,34.7,0,0,1-12.947,2.159,41.425,41.425,0,0,1-21.777-5.624,37.527,37.527,0,0,1-14.516-16.285q-5.17-10.65-5.167-25.433,0-14.386,5.3-25.5a41.023,41.023,0,0,1,14.776-17.263,38.668,38.668,0,0,1,21.514-6.15,35.593,35.593,0,0,1,13.34,2.224" transform="translate(121.784 242.537)" fill="#161944"/>
    <path id="Path_2332" data-name="Path 2332" d="M486.717,310.608a26.136,26.136,0,0,0-6.865,1.046,4.705,4.705,0,0,0-2.942,3.01,23.5,23.5,0,0,0-.786,7.193v64.869a23.5,23.5,0,0,0,.786,7.19,4.5,4.5,0,0,0,2.942,2.942,23.646,23.646,0,0,0,6.865.718h9.547q8.107,0,12.359-2.286a13.521,13.521,0,0,0,6.212-7.391q1.958-5.1,2.877-14.776h3.007q-.394,4.051-.393,10.723,0,7.453.916,16.74-8.9-.394-29.95-.393-25.11,0-37.926.393v-2.617a25.849,25.849,0,0,0,6.865-1.046,4.7,4.7,0,0,0,2.945-3.007,23.589,23.589,0,0,0,.786-7.19V321.857a23.6,23.6,0,0,0-.786-7.193,4.709,4.709,0,0,0-2.945-3.01,26.114,26.114,0,0,0-6.865-1.046v-2.617q5.494.394,16.74.393,10.464,0,16.61-.393Z" transform="translate(181.702 243.776)" fill="#161944"/>
  </g>
</svg>
