<svg xmlns="http://www.w3.org/2000/svg" width="441.832" height="725.453" viewBox="0 0 441.832 725.453">
  <g id="Group_7242" data-name="Group 7242" transform="translate(-366.582 -191.558)">
    <rect id="Rectangle_630" data-name="Rectangle 630" width="193.646" height="190.545" transform="translate(552.108 390.491)" fill="#fea800"/>
    <rect id="Rectangle_631" data-name="Rectangle 631" width="187.729" height="178.374" transform="translate(594.973 247.26)" fill="#90b314"/>
    <rect id="Rectangle_632" data-name="Rectangle 632" width="236.047" height="234.076" transform="translate(431.212 191.558)" fill="#3fb0b3"/>
    <rect id="Rectangle_633" data-name="Rectangle 633" width="72.29" height="178.374" transform="translate(594.973 247.26)" fill="#439c2b"/>
    <rect id="Rectangle_634" data-name="Rectangle 634" width="202.676" height="221.385" transform="translate(392.297 318.624)" fill="#ee6e16"/>
    <rect id="Rectangle_635" data-name="Rectangle 635" width="42.864" height="149.514" transform="translate(552.108 390.495)" fill="#e74e18"/>
    <path id="Path_2320" data-name="Path 2320" d="M475.89,252.885c-7.355,16.324-29.149,22.387-48.615,13.52-19.461-8.806-29.227-29.186-21.867-45.5,7.457-16.34,29.222-22.387,48.676-13.577,19.441,8.847,29.227,29.17,21.806,45.559" transform="translate(111.443 35.914)" fill="#fff"/>
    <path id="Path_2321" data-name="Path 2321" d="M453.7,276.215c-13.374-4.812-19.543-21.644-13.817-37.565,5.746-15.881,21.274-24.931,34.611-20.128,13.358,4.86,19.522,21.627,13.817,37.586-5.787,15.958-21.254,24.96-34.611,20.107" transform="translate(218.016 78.665)" fill="#fff"/>
    <path id="Path_2322" data-name="Path 2322" d="M584.468,218.922a50.087,50.087,0,0,0-6.156,1.678,86.323,86.323,0,0,0-12.634,5.319c-8.14,4.161-15.723,9.306-23.3,14.4-7.132,4.8-14.3,9.66-22.111,13.309-7,3.271-14.617,5.445-22.407,4.921-32.055-2.174-90.532-66.8-110.189-44.112-17.673,20.4,54.393,44.774,67.08,75.183,7.77,18.624,11.395,51.719,7.055,86.3-2.491,19.843-3.458,35.623-3.458,35.623a54.631,54.631,0,0,0,2.686,17.673c3.938,11.305,11.7,16.036,19.8,6.571,6.461-8.461,8.083-56.856,8.083-56.856.927-8.221,4.864-14.82,14.934-15.28,11.192-.5,11.253,4.369,10.046,50.094-1.13,42.759,14.727,35.074,21.026,29.08,6.246-6.019,11.5-28.312,6-95.141-4.86-59.046,8.989-48.09,8.989-48.09s25.919,15.328,33.071,22.5c.248.248.475.488.674.715,0,0,.89.6.309,2.808-4.047,16.1-11.086,28.113-23,50.106s26.028,16.987,26.028,16.987-.049,73.485,19.018,57.14c19.1-16.43-6.266-61.375,13.028-55.133,19.254,6.287,4.73,59.071,23.037,53.1,18.319-5.958,13.016-51.11,13.016-51.11s33.949-8.635,25.057-23.988c-8.973-15.333-31.612-28.471-21.042-39.093,10.529-10.566,55.608-54.349,33.046-60.054-16.019-4.076-29.6,18.616-47.639,28.137-17.775,9.379-37.793,2.784-37.793,2.784-20.81-5.962-41.938-20.347-45.165-29.222-2.373-6.4,24-27.187,37.992-39.138,8.538-7.29,5.917-11.988,2.056-14.686a14.646,14.646,0,0,0-2.971-1.207,27.92,27.92,0,0,0-12.537-1.573c-.545.069-1.089.154-1.63.256" transform="translate(56.117 55.329)" fill="#fff"/>
    <path id="Path_2323" data-name="Path 2323" d="M435.374,356.62a11.906,11.906,0,0,0-4.437.9,3.782,3.782,0,0,0-1.963,2.39,17.734,17.734,0,0,0-.512,4.909V390.5a59.417,59.417,0,0,1-.809,10.541,22.833,22.833,0,0,1-2.69,7.55,14.936,14.936,0,0,1-6.27,5.8,20.116,20.116,0,0,1-9.347,2.134q-9.387,0-14.337-4.608a17.327,17.327,0,0,1-5.035-7.937q-1.28-4.432-1.28-13.228V363.963a15.439,15.439,0,0,0-.512-4.7,3.065,3.065,0,0,0-1.918-1.963,17.014,17.014,0,0,0-4.482-.683v-1.707q3.584.256,10.923.26,6.913,0,10.838-.26v1.707a17.015,17.015,0,0,0-4.482.683,3.065,3.065,0,0,0-1.918,1.963,15.439,15.439,0,0,0-.512,4.7v28.243a57.16,57.16,0,0,0,.939,11.35,13.22,13.22,0,0,0,3.885,7.254q2.944,2.731,8.66,2.731,9.046,0,12.715-5.8t3.67-16.3V364.816q0-4.614-1.662-6.319t-6.1-1.877v-1.707q3.072.256,8.7.26,5.12,0,7.937-.26Z" transform="translate(46.566 500.479)" fill="#00a5ae"/>
    <path id="Path_2324" data-name="Path 2324" d="M419.258,355.492a21.961,21.961,0,0,1,4.482,2.345,6.145,6.145,0,0,0,2.9,1.195,1.311,1.311,0,0,0,1.195-.894,10.027,10.027,0,0,0,.683-2.861h1.967q-.433,4.956-.427,17.409h-1.967a22.1,22.1,0,0,0-3.966-11.647q-3.456-4.736-10.029-4.738a10.428,10.428,0,0,0-7.51,2.776,9.426,9.426,0,0,0-2.9,7.128,10.385,10.385,0,0,0,1.5,5.628,14.76,14.76,0,0,0,3.8,4.1q2.3,1.713,6.567,4.356l2.475,1.536a84.374,84.374,0,0,1,8.493,5.844,20.833,20.833,0,0,1,4.994,5.758,14.932,14.932,0,0,1,1.877,7.6q0,7.772-5.124,11.992t-12.971,4.222a21.929,21.929,0,0,1-6.7-.854,23.893,23.893,0,0,1-4.994-2.3,6.2,6.2,0,0,0-2.9-1.195,1.316,1.316,0,0,0-1.195.9,10.067,10.067,0,0,0-.683,2.861h-1.963q.335-4.7.341-20.481h1.963q.591,8.619,4.263,13.991t11.265,5.376a11.476,11.476,0,0,0,7.855-2.857q3.237-2.859,3.239-8.493a11.26,11.26,0,0,0-3.2-8.107,51.067,51.067,0,0,0-10.111-7.506,93.405,93.405,0,0,1-8.152-5.466,19.6,19.6,0,0,1-5.076-5.758,15.359,15.359,0,0,1-1.963-7.892q0-7.168,4.608-10.968a20.006,20.006,0,0,1,17.365-2.987" transform="translate(92.761 499.774)" fill="#00a5ae"/>
    <path id="Path_2325" data-name="Path 2325" d="M461.5,413.949v1.707q-3.42-.256-9.135-.26-7.339,0-10.923.26v-1.707a14.04,14.04,0,0,0,4.649-.809,2.358,2.358,0,0,0,1.41-2.349,11.727,11.727,0,0,0-1.024-4.011l-5.206-14H420.62l-3.5,9.046a22.312,22.312,0,0,0-1.707,7,4.239,4.239,0,0,0,1.833,3.836,10.841,10.841,0,0,0,5.592,1.284v1.707q-4.864-.256-9.814-.26-3.84,0-6.4.26v-1.707q4.267-1.024,6.742-7.424l20.055-51.715h1.365l20.823,53.678q2.048,5.291,5.892,5.462m-20.912-22.871-9.558-25.516L421.3,391.078Z" transform="translate(122.679 500.161)" fill="#00a5ae"/>
    <path id="Path_2326" data-name="Path 2326" d="M447.873,356.62a17.013,17.013,0,0,0-4.482.683,3.065,3.065,0,0,0-1.918,1.963,15.444,15.444,0,0,0-.512,4.7v42.328a15.364,15.364,0,0,0,.512,4.689,3.065,3.065,0,0,0,1.918,1.963,17.008,17.008,0,0,0,4.482.683v1.707q-3.932-.256-10.838-.256-7.339,0-10.923.256v-1.707a16.943,16.943,0,0,0,4.478-.683,3.062,3.062,0,0,0,1.922-1.963,15.364,15.364,0,0,0,.512-4.689V363.963a15.444,15.444,0,0,0-.512-4.7,3.062,3.062,0,0,0-1.922-1.963,16.948,16.948,0,0,0-4.478-.683v-1.707q3.584.256,10.923.26,6.821,0,10.838-.26Z" transform="translate(182.382 500.479)" fill="#00a5ae"/>
    <path id="Path_2327" data-name="Path 2327" d="M486.823,356.62a11.95,11.95,0,0,0-4.442.9,3.79,3.79,0,0,0-1.959,2.39,17.739,17.739,0,0,0-.512,4.909v50.947h-1.967l-35.838-55.389v45.063a16.343,16.343,0,0,0,.553,4.945,3.859,3.859,0,0,0,2.178,2.349,14.91,14.91,0,0,0,5.031.894v1.707q-3.072-.256-8.7-.256-5.121,0-7.937.256v-1.707a11.89,11.89,0,0,0,4.434-.894,3.786,3.786,0,0,0,1.967-2.389,17.747,17.747,0,0,0,.512-4.9V363.963a15.444,15.444,0,0,0-.512-4.7,3.062,3.062,0,0,0-1.922-1.963,16.978,16.978,0,0,0-4.478-.683v-1.707q2.81.256,7.937.26,3.84,0,6.652-.26l30.125,46.424V364.816a16.288,16.288,0,0,0-.553-4.954,3.859,3.859,0,0,0-2.174-2.345,14.914,14.914,0,0,0-5.039-.9v-1.707q3.072.256,8.709.26,5.12,0,7.937-.26Z" transform="translate(204.193 500.479)" fill="#00a5ae"/>
    <path id="Path_2328" data-name="Path 2328" d="M483.978,356.071a29.564,29.564,0,0,1,7,4.1,2.734,2.734,0,0,0,1.617.764q1.707,0,2.219-5.116h1.963q-.335,5.547-.341,19.628h-1.963a66.2,66.2,0,0,0-1.707-7.981,14.214,14.214,0,0,0-2.56-4.653,15.729,15.729,0,0,0-6.526-4.986,21.889,21.889,0,0,0-8.578-1.666,14.127,14.127,0,0,0-9.684,3.67,23.848,23.848,0,0,0-6.441,10.452A49.561,49.561,0,0,0,456.67,386.2a45.79,45.79,0,0,0,2.479,15.958,22.328,22.328,0,0,0,6.868,10.111,15.635,15.635,0,0,0,9.94,3.458,21.8,21.8,0,0,0,8.278-1.625,13.885,13.885,0,0,0,6.315-4.86,16.43,16.43,0,0,0,2.479-5.124,60.511,60.511,0,0,0,1.447-8.359h1.963q0,14.678.341,20.481h-1.963a15.216,15.216,0,0,0-.723-3.881c-.313-.772-.756-1.158-1.325-1.158a3.76,3.76,0,0,0-1.788.683,35.906,35.906,0,0,1-7.343,4.141,22.632,22.632,0,0,1-8.449,1.41,26.992,26.992,0,0,1-14.207-3.674,24.445,24.445,0,0,1-9.473-10.623,37.716,37.716,0,0,1-3.369-16.6,38.279,38.279,0,0,1,3.454-16.645,26.8,26.8,0,0,1,9.643-11.261,25.233,25.233,0,0,1,14.036-4.011,23.223,23.223,0,0,1,8.7,1.451" transform="translate(249.873 499.581)" fill="#00a5ae"/>
    <path id="Path_2329" data-name="Path 2329" d="M438.734,310.321a59.477,59.477,0,0,1,14.085,8.245,5.56,5.56,0,0,0,3.267,1.548q3.432,0,4.466-10.31h3.95q-.689,11.173-.687,39.516h-3.95a133.847,133.847,0,0,0-3.438-16.064,28.556,28.556,0,0,0-5.153-9.363,31.7,31.7,0,0,0-13.142-10.05A44.149,44.149,0,0,0,420.87,310.5a28.441,28.441,0,0,0-19.5,7.384q-8.339,7.388-12.972,21.046t-4.637,32.038q0,18.726,4.982,32.124t13.829,20.355a31.5,31.5,0,0,0,20.01,6.957,44.125,44.125,0,0,0,16.665-3.263,28.068,28.068,0,0,0,12.711-9.794,32.945,32.945,0,0,0,4.982-10.306,121.671,121.671,0,0,0,2.922-16.836h3.95q0,29.552.687,41.231h-3.95a30.5,30.5,0,0,0-1.463-7.819q-.945-2.316-2.662-2.316a7.581,7.581,0,0,0-3.609,1.37A72.421,72.421,0,0,1,438.047,431a45.575,45.575,0,0,1-17.007,2.837q-16.324,0-28.6-7.388a49.291,49.291,0,0,1-19.067-21.392q-6.791-13.989-6.786-33.408,0-18.9,6.961-33.5a53.884,53.884,0,0,1,19.408-22.676,50.793,50.793,0,0,1,28.259-8.079,46.755,46.755,0,0,1,17.523,2.922" transform="translate(0 354.908)" fill="#fff"/>
    <path id="Path_2330" data-name="Path 2330" d="M467.818,310.321a59.472,59.472,0,0,1,14.085,8.245,5.56,5.56,0,0,0,3.267,1.548q3.432,0,4.466-10.31h3.95q-.689,11.173-.687,39.516h-3.95a133.9,133.9,0,0,0-3.438-16.064,28.555,28.555,0,0,0-5.153-9.363,31.7,31.7,0,0,0-13.142-10.05,44.15,44.15,0,0,0-17.263-3.349,28.442,28.442,0,0,0-19.5,7.384q-8.339,7.388-12.971,21.046t-4.637,32.038q0,18.726,4.982,32.124t13.829,20.355a31.5,31.5,0,0,0,20.01,6.957,44.126,44.126,0,0,0,16.666-3.263,28.067,28.067,0,0,0,12.711-9.794,32.945,32.945,0,0,0,4.982-10.306,121.671,121.671,0,0,0,2.922-16.836h3.95q0,29.552.687,41.231h-3.95a30.512,30.512,0,0,0-1.463-7.819q-.945-2.316-2.662-2.316a7.582,7.582,0,0,0-3.609,1.37A72.414,72.414,0,0,1,467.131,431a45.575,45.575,0,0,1-17.007,2.837q-16.324,0-28.6-7.388a49.292,49.292,0,0,1-19.067-21.392q-6.791-13.989-6.786-33.408,0-18.9,6.961-33.5a53.886,53.886,0,0,1,19.408-22.676A50.793,50.793,0,0,1,450.3,307.4a46.754,46.754,0,0,1,17.523,2.922" transform="translate(89.106 354.908)" fill="#fff"/>
    <path id="Path_2331" data-name="Path 2331" d="M496.9,310.321a59.475,59.475,0,0,1,14.085,8.245,5.559,5.559,0,0,0,3.267,1.548q3.432,0,4.466-10.31h3.95q-.689,11.173-.687,39.516h-3.95a133.866,133.866,0,0,0-3.438-16.064,28.554,28.554,0,0,0-5.153-9.363,31.7,31.7,0,0,0-13.142-10.05,44.149,44.149,0,0,0-17.263-3.349,28.441,28.441,0,0,0-19.5,7.384q-8.339,7.388-12.971,21.046t-4.637,32.038q0,18.726,4.982,32.124t13.829,20.355a31.5,31.5,0,0,0,20.01,6.957,44.126,44.126,0,0,0,16.666-3.263,28.068,28.068,0,0,0,12.711-9.794,32.945,32.945,0,0,0,4.982-10.306,121.667,121.667,0,0,0,2.922-16.836h3.95q0,29.552.687,41.231h-3.95a30.5,30.5,0,0,0-1.463-7.819q-.945-2.316-2.662-2.316a7.581,7.581,0,0,0-3.609,1.37A72.421,72.421,0,0,1,496.214,431a45.575,45.575,0,0,1-17.007,2.837q-16.324,0-28.6-7.388a49.292,49.292,0,0,1-19.067-21.392q-6.791-13.989-6.786-33.408,0-18.9,6.961-33.5a53.885,53.885,0,0,1,19.409-22.676,50.793,50.793,0,0,1,28.259-8.079,46.754,46.754,0,0,1,17.523,2.922" transform="translate(178.209 354.908)" fill="#fff"/>
    <path id="Path_2332" data-name="Path 2332" d="M497.174,311.429a34.332,34.332,0,0,0-9.017,1.374,6.18,6.18,0,0,0-3.865,3.954q-1.036,2.92-1.032,9.448v85.209q0,6.528,1.032,9.444a5.905,5.905,0,0,0,3.865,3.865,31.058,31.058,0,0,0,9.017.943h12.541q10.649,0,16.235-3a17.76,17.76,0,0,0,8.16-9.708q2.572-6.693,3.779-19.408h3.95q-.518,5.321-.516,14.085,0,9.789,1.2,21.989-11.685-.518-39.341-.516-32.984,0-49.818.516v-3.438a33.958,33.958,0,0,0,9.017-1.374,6.171,6.171,0,0,0,3.869-3.95q1.03-2.92,1.032-9.444V326.2q0-6.534-1.032-9.448a6.186,6.186,0,0,0-3.869-3.954,34.3,34.3,0,0,0-9.017-1.374v-3.438q7.217.518,21.989.516,13.745,0,21.818-.516Z" transform="translate(265.888 356.722)" fill="#fff"/>
  </g>
</svg>
