<?xml version="1.0" encoding="UTF-8"?>
<svg width="18px" height="18px" viewBox="0 0 18 18" version="1.1" xmlns="http://www.w3.org/2000/svg" xmlns:xlink="http://www.w3.org/1999/xlink">
    <title>1CF379F3-BF26-4ADF-9680-559F85ED6239</title>
    <g id="Page-1" stroke="none" stroke-width="1" fill="none" fill-rule="evenodd">
        <g id="Contact-us" transform="translate(-174.000000, -763.000000)" fill="#3A3F47" fill-rule="nonzero">
            <g id="Group-2" transform="translate(160.000000, 749.000000)">
                <path d="M23,32 C27.9349282,32 32,27.9368723 32,23.0043042 C32,18.071736 27.9263158,14 23,14 C18.0650718,14 14,18.071736 14,23.0043042 C14,27.9368723 18.0650718,32 23,32 Z M23,29.9770445 C19.1330144,29.9770445 16.0325359,26.8694405 16.0325359,23.0043042 C16.0325359,19.1391679 19.1244019,16.0229555 23,16.0229555 C26.8669856,16.0229555 29.9760766,19.1391679 29.984689,23.0043042 C29.984689,26.8694405 26.8669856,29.9770445 23,29.9770445 Z M23,24.2008608 C23.4220096,24.2008608 23.7578947,23.8651363 23.7578947,23.4347202 L23.7578947,17.9426112 C23.7578947,17.5208034 23.4220096,17.1850789 23,17.1850789 C22.569378,17.1850789 22.2334928,17.5208034 22.2334928,17.9426112 L22.2334928,22.6771879 L18.7885167,22.6771879 C18.3578947,22.6771879 18.030622,23.0129125 18.030622,23.4347202 C18.030622,23.8651363 18.3578947,24.2008608 18.7885167,24.2008608 L23,24.2008608 Z" id="ô€«"></path>
            </g>
        </g>
    </g>
</svg>