<?xml version="1.0" standalone="no"?>
<!DOCTYPE svg PUBLIC "-//W3C//DTD SVG 20010904//EN"
 "http://www.w3.org/TR/2001/REC-SVG-20010904/DTD/svg10.dtd">
<svg version="1.0" xmlns="http://www.w3.org/2000/svg"
 width="512.000000pt" height="512.000000pt" viewBox="0 0 512.000000 512.000000"
 preserveAspectRatio="xMidYMid meet">

<g transform="translate(0.000000,512.000000) scale(0.100000,-0.100000)"
fill="#000000" stroke="none">
<path d="M312 4385 c-148 -33 -264 -149 -297 -299 -14 -63 -15 -237 -13 -1556
3 -1388 4 -1488 21 -1537 37 -108 148 -217 256 -251 53 -16 191 -17 2276 -17
1842 0 2229 2 2273 14 116 29 233 143 270 260 16 52 17 160 17 1556 0 1234 -2
1509 -14 1553 -29 114 -138 230 -255 270 -48 16 -193 17 -2261 19 -1848 1
-2220 -1 -2273 -12z m1529 -648 c18 -12 44 -38 56 -56 23 -34 23 -36 23 -401
0 -365 0 -367 -23 -401 -12 -18 -38 -44 -56 -56 l-34 -23 -527 0 -527 0 -34
23 c-18 12 -44 38 -56 56 -23 34 -23 36 -23 401 0 365 0 367 23 401 12 18 38
44 56 56 l34 23 527 0 527 0 34 -23z m2284 8 c354 -93 475 -544 215 -805 -302
-301 -820 -87 -820 340 0 316 297 545 605 465z m-2844 -1608 c63 -42 79 -79
79 -177 0 -98 -16 -135 -79 -177 -33 -22 -41 -23 -281 -23 -240 0 -248 1 -281
23 -63 42 -79 79 -79 177 0 98 16 135 79 177 33 22 41 23 281 23 240 0 248 -1
281 -23z m1040 0 c63 -42 79 -79 79 -177 0 -98 -16 -135 -79 -177 -33 -22 -41
-23 -281 -23 -240 0 -248 1 -281 23 -63 42 -79 79 -79 177 0 98 16 135 79 177
33 22 41 23 281 23 240 0 248 -1 281 -23z m1040 0 c63 -42 79 -79 79 -177 0
-98 -16 -135 -79 -177 -33 -22 -41 -23 -281 -23 -240 0 -248 1 -281 23 -63 42
-79 79 -79 177 0 98 16 135 79 177 33 22 41 23 281 23 240 0 248 -1 281 -23z
m1040 0 c63 -42 79 -79 79 -177 0 -98 -16 -135 -79 -177 -33 -22 -41 -23 -281
-23 -240 0 -248 1 -281 23 -63 42 -79 79 -79 177 0 98 16 135 79 177 33 22 41
23 281 23 240 0 248 -1 281 -23z m-2047 -708 c13 -7 30 -25 37 -40 15 -37 -2
-82 -37 -98 -18 -8 -256 -11 -840 -11 l-816 0 -29 29 c-16 16 -29 39 -29 51 0
12 13 35 29 51 l29 29 816 0 c584 0 822 -3 840 -11z m1040 0 c13 -7 30 -25 37
-40 15 -37 -2 -82 -37 -98 -17 -7 -143 -11 -400 -11 l-376 0 -29 29 c-16 16
-29 39 -29 51 0 12 13 35 29 51 l29 29 376 0 c257 0 383 -4 400 -11z"/>
</g>
</svg>
