<?xml version="1.0" encoding="UTF-8"?>
<svg width="30px" height="45px" viewBox="0 0 30 45" version="1.1" xmlns="http://www.w3.org/2000/svg" xmlns:xlink="http://www.w3.org/1999/xlink">
    <title>54B280AD-FBD4-40E7-9041-7A7DCE2119E0</title>
    <g id="Page-1" stroke="none" stroke-width="1" fill="none" fill-rule="evenodd">
        <g id="Donate-Now" transform="translate(-1197.000000, -2101.000000)" fill="#3A3F47" fill-rule="nonzero" stroke="#3A3F47" stroke-width="1.22857143">
            <g id="Other-ways-of-donation" transform="translate(160.000000, 1960.000000)">
                <g id="Crypto" transform="translate(944.000000, 78.000000)">
                    <path d="M121.523275,94.4615732 C122.158908,95.0974596 122.158908,96.1195386 121.523275,96.755425 C119.64736,98.5977474 117.334439,99.9476313 114.795072,100.682188 L114.795072,105.380048 C114.795072,106.274723 114.06036,107 113.154046,107 C112.247733,107 111.513021,106.274723 111.513021,105.380048 L111.513021,101.323689 C111.027278,101.369048 110.541534,101.394967 110.049227,101.394967 C109.390901,101.393209 108.733287,101.352095 108.079996,101.271851 L108.079996,105.380048 C108.079996,106.274723 107.345284,107 106.438971,107 C105.532658,107 104.797946,106.274723 104.797946,105.380048 L104.797946,100.500753 C98.3442664,98.2617352 94.0188565,92.252777 94,85.5 C94.0152636,78.7390922 98.3476821,72.7225126 104.811074,70.4862869 L104.811074,65.6199518 C104.811074,64.7252771 105.545786,64 106.452099,64 C107.358413,64 108.093125,64.7252771 108.093125,65.6199518 L108.093125,69.7281495 C109.227525,69.5844811 110.374687,69.5670925 111.513021,69.676311 L111.513021,65.6199518 C111.513021,64.7252771 112.247733,64 113.154046,64 C114.06036,64 114.795072,64.7252771 114.795072,65.6199518 L114.795072,70.3113321 C117.336881,71.0504591 119.650229,72.4072761 121.523275,74.2575347 C122.144329,74.8940281 122.134017,75.9044389 121.500097,76.5284502 C120.866177,77.1524616 119.842597,77.1597836 119.199583,76.5449066 C117.452138,74.8265092 115.234768,73.6487398 112.819277,73.1559675 L112.819277,73.1559675 C110.858653,72.70818 108.816735,72.7415524 106.872202,73.2531646 C104.675576,73.8254087 102.671378,74.9610674 101.062973,76.5449066 C97.8207916,79.7520443 96.5606233,84.4243435 97.758091,88.7983451 C98.9555588,93.1723466 102.428313,96.5819813 106.865638,97.7403556 C108.796454,98.2526642 110.825285,98.2882692 112.773329,97.8440325 C115.206059,97.3657444 117.441592,96.1890716 119.199583,94.4615732 C119.507454,94.1568872 119.925483,93.9856515 120.361429,93.9856515 C120.797375,93.9856515 121.215405,94.1568872 121.523275,94.4615732 Z" id="Path"></path>
                </g>
            </g>
        </g>
    </g>
</svg>