<?xml version="1.0" encoding="UTF-8"?>
<svg width="16px" height="16px" viewBox="0 0 16 16" version="1.1" xmlns="http://www.w3.org/2000/svg" xmlns:xlink="http://www.w3.org/1999/xlink">
    <title>E139C96D-C114-4E51-B534-82362355246F</title>
    <g id="Page-1" stroke="none" stroke-width="1" fill="none" fill-rule="evenodd">
        <g id="Invoices" transform="translate(-1324.000000, -414.000000)" fill="#2D2D2D" fill-rule="nonzero">
            <g id="Components-/-Invoice-/-Rows" transform="translate(80.000000, 392.000000)">
                <g id="Download">
                    <g transform="translate(1244.000000, 22.000000)">
                        <path d="M15.9899371,11.6327044 L15.9899371,15.1698113 C15.9899371,15.2402516 15.9798742,15.3056604 15.9647799,15.3660377 L15.9647799,15.3660377 C15.9647799,15.3660377 15.9647799,15.3660377 15.9647799,15.3660377 C15.8943396,15.7132075 15.5874214,15.9748428 15.2251572,15.9748428 L0.769811321,15.9748428 C0.382389937,15.9748428 0.0603773585,15.6779874 0.0201257862,15.3006289 C0.0100628931,15.2553459 0.0100628931,15.2150943 0.0100628931,15.1647799 L0.0100628931,11.627673 C0.0100628931,11.2100629 0.352201258,10.872956 0.764779874,10.872956 C0.971069182,10.872956 1.16226415,10.9584906 1.29811321,11.0943396 C1.43396226,11.2301887 1.51949686,11.4213836 1.51949686,11.627673 L1.51949686,14.4603774 L14.4855346,14.4603774 L14.4855346,11.627673 C14.4855346,11.2100629 14.827673,10.872956 15.2402516,10.872956 C15.4465409,10.872956 15.6377358,10.9584906 15.7735849,11.0943396 C15.9044025,11.2352201 15.9899371,11.4264151 15.9899371,11.6327044 Z" id="Path"></path>
                        <path d="M12.3522013,8.09056604 L8.64402516,11.7987421 C8.63899371,11.808805 8.62893082,11.8138365 8.62389937,11.8188679 C8.48805031,11.954717 8.31194969,12.0402516 8.13584906,12.0654088 C8.12075472,12.0654088 8.10566038,12.0704403 8.09056604,12.0704403 C8.06037736,12.0754717 8.03018868,12.0754717 8,12.0754717 L8,12.0754717 L7.91446541,12.0704403 C7.89937107,12.0704403 7.88427673,12.0654088 7.86918239,12.0654088 C7.68805031,12.0402516 7.51698113,11.954717 7.38113208,11.8188679 C7.37610063,11.8138365 7.36603774,11.8037736 7.36100629,11.7987421 L3.65283019,8.09056604 C3.48176101,7.91949686 3.39622642,7.69308176 3.39622642,7.46666667 C3.39622642,7.24025157 3.48176101,7.01383648 3.65283019,6.8427673 C3.99496855,6.50062893 4.55345912,6.50062893 4.90062893,6.8427673 L7.12955975,9.07169811 L7.12955975,0.905660377 C7.12955975,0.422641509 7.52704403,0.0251572327 8.01006289,0.0251572327 C8.25157233,0.0251572327 8.47295597,0.125786164 8.63396226,0.281761006 C8.79496855,0.442767296 8.89056604,0.659119497 8.89056604,0.905660377 L8.89056604,9.07169811 L11.1194969,6.8427673 C11.4616352,6.50062893 12.0201258,6.50062893 12.3672956,6.8427673 C12.6943396,7.18993711 12.6943396,7.74842767 12.3522013,8.09056604 Z" id="Path"></path>
                    </g>
                </g>
            </g>
        </g>
    </g>
</svg>