<?xml version="1.0" encoding="UTF-8"?>
<svg width="15px" height="15px" viewBox="0 0 15 15" version="1.1" xmlns="http://www.w3.org/2000/svg" xmlns:xlink="http://www.w3.org/1999/xlink">
    <title>BB0C4554-3110-4327-815C-10DA603A6534</title>
    <g id="Page-1" stroke="none" stroke-width="1" fill="none" fill-rule="evenodd">
        <g id="Files-Details---General-Info" transform="translate(-1284.000000, -248.000000)" fill="#585858">
            <g id="Edit" transform="translate(1256.000000, 238.000000)">
                <path d="M37.8009363,10.9232041 L29.2472766,19.4744981 C29.1698195,19.5517744 29.1147781,19.6486154 29.0880168,19.7547032 L28.0256132,23.9920488 C27.9632888,24.23342 28.0161141,24.4900456 28.1687034,24.6871814 C28.3212927,24.8843171 28.5564871,24.9997948 28.8057844,25 C28.8737262,25.0003155 28.9414453,24.9921895 29.007379,24.9757903 L33.240866,23.9174619 C33.3469581,23.8907016 33.443803,23.8356625 33.5210825,23.7582086 L42.0767581,15.1988511 C42.8628459,14.4396532 43.1781076,13.3153957 42.9013723,12.2581877 C42.624637,11.2009798 41.7989711,10.3753476 40.7417199,10.0986236 C39.6844687,9.82189964 38.5601652,10.1371485 37.8009363,10.9232041 Z M30.61812,19.8151791 L37.175993,13.2575743 L39.7422925,15.8237689 L33.1844195,22.3813737 L30.61812,19.8151791 Z M30.0415594,20.942047 L32.0575056,22.9579107 L29.3662174,23.6332251 L30.0415594,20.942047 Z M41.221997,14.3441249 L40.5970536,14.9690427 L38.0307541,12.4028481 L38.6556975,11.7779303 C39.3643615,11.0692953 40.5133329,11.0692953 41.221997,11.7779303 C41.930661,12.4865654 41.930661,13.6354898 41.221997,14.3441249 L41.221997,14.3441249 Z" id="4.-Icons-/-b.Others-/-Edit"></path>
            </g>
        </g>
    </g>
</svg>