<?xml version="1.0" encoding="UTF-8"?>
<svg width="18px" height="14px" viewBox="0 0 18 14" version="1.1" xmlns="http://www.w3.org/2000/svg" xmlns:xlink="http://www.w3.org/1999/xlink">
    <title>55AEAFD4-E09A-4A7B-A7BB-8E0BC7F9827F</title>
    <g id="Page-1" stroke="none" stroke-width="1" fill="none" fill-rule="evenodd">
        <g id="Contact-us" transform="translate(-174.000000, -905.000000)" fill="#3A3F47" fill-rule="nonzero">
            <g id="Group-2" transform="translate(160.000000, 889.000000)">
                <path d="M23.0118577,23.7498598 C23.3517787,23.7498598 23.6600791,23.5849692 24.0237154,23.2237801 L30.9328063,16.3925967 C30.6166008,16.1334829 30.0711462,16 29.3043478,16 L16.5375494,16 C15.8498024,16 15.3517787,16.125631 15.0592885,16.3690409 L21.9920949,23.2237801 C22.3557312,23.5849692 22.6640316,23.7498598 23.0118577,23.7498598 Z M14.229249,28.6180595 L19.9841897,22.9411105 L14.2529644,17.3191251 C14.0869565,17.5939428 14,18.0336511 14,18.653954 L14,27.3381941 C14,27.9349411 14.0790514,28.3589456 14.229249,28.6180595 Z M31.7786561,28.6102075 C31.9209486,28.3432417 32,27.9270892 32,27.3381941 L32,18.653954 C32,18.049355 31.9130435,17.6017947 31.7470356,17.3348289 L26.0316206,22.9411105 L31.7786561,28.6102075 Z M29.4624506,30 C30.1818182,30 30.6956522,29.8586652 31.0039526,29.5916994 L25.1462451,23.8048233 L24.687747,24.2523836 C24.1343874,24.7863152 23.6047431,25.0375771 23.0118577,25.0375771 C22.4110672,25.0375771 21.8814229,24.7863152 21.3280632,24.2523836 L20.8695652,23.8048233 L15.0197628,29.5838474 C15.3517787,29.8586652 15.9130435,30 16.6956522,30 L29.4624506,30 Z" id="ô€–"></path>
            </g>
        </g>
    </g>
</svg>