<?xml version="1.0" encoding="UTF-8"?>
<svg width="20px" height="20px" viewBox="0 0 20 20" version="1.1" xmlns="http://www.w3.org/2000/svg" xmlns:xlink="http://www.w3.org/1999/xlink">
    <title>36F19C11-2F2A-446D-B1E7-68A4634809AD</title>
    <g id="Page-1" stroke="none" stroke-width="1" fill="none" fill-rule="evenodd">
        <g id="Register" transform="translate(-892.000000, -565.000000)">
            <rect fill="#FFFFFF" x="0" y="0" width="1440" height="900"></rect>
            <g id="Form" transform="translate(876.000000, 182.000000)">
                <g id="Text-Field" transform="translate(0.000000, 365.000000)">
                    <rect id="Rectangle" stroke-opacity="0.25" stroke="#74798C" fill="#FFFFFF" x="0.5" y="0.5" width="483" height="55" rx="6"></rect>
                    <g id="4.-Icons-/-a.Text-Field--/-Hide-Password" transform="translate(16.000000, 18.000000)" fill="#74798C" fill-rule="nonzero">
                        <path d="M9.99633297,16.5 C16.0176018,16.5 20,11.526087 20,10.0037681 C20,8.47391304 16.0102677,3.5 9.99633297,3.5 C4.07040704,3.5 0,8.47391304 0,10.0037681 C0,11.526087 4.07040704,16.5 9.99633297,16.5 Z M10.003667,14.0507246 C7.80344701,14.0507246 6.05060506,12.1968116 6.04324825,10.0037681 C6.03593693,7.74289855 7.80344701,5.95681159 10.003667,5.95681159 C12.1892189,5.95681159 13.956729,7.74289855 13.956729,10.0037681 C13.956729,12.1968116 12.1892189,14.0507246 10.003667,14.0507246 Z M9.99633297,11.5562319 C10.8324166,11.5562319 11.5144848,10.8553623 11.5144848,10.0037681 C11.5144848,9.15217391 10.8324166,8.45130435 9.99633297,8.45130435 C9.16024936,8.45130435 8.48551522,9.15217391 8.48551522,10.0037681 C8.48551522,10.8553623 9.16024936,11.5562319 9.99633297,11.5562319 Z" id="􀋮"></path>
                    </g>
                </g>
            </g>
        </g>
    </g>
</svg>