<?xml version="1.0" encoding="UTF-8"?>
<svg width="16px" height="16px" viewBox="0 0 16 16" version="1.1" xmlns="http://www.w3.org/2000/svg" xmlns:xlink="http://www.w3.org/1999/xlink">
    <title>CD43832B-B54E-4D02-9670-8A9EAF324953</title>
    <g id="Page-1" stroke="none" stroke-width="1" fill="none" fill-rule="evenodd">
        <g id="News-Details---Option-1" transform="translate(-707.000000, -408.000000)" fill="#3A3F47" fill-rule="nonzero">
            <g id="Social-Media" transform="translate(614.000000, 408.000000)">
                <path d="M101,0 C96.5815385,0 93,3.59981444 93,8.04082264 C93,12.0723674 95.9544615,15.4006495 99.8043077,15.9820628 L99.8043077,10.1716406 L97.8246154,10.1716406 L97.8246154,8.05814133 L99.8043077,8.05814133 L99.8043077,6.6516159 C99.8043077,4.32286996 100.932923,3.30106696 102.858462,3.30106696 C103.780308,3.30106696 104.268308,3.36972321 104.499077,3.40126798 L104.499077,5.24632751 L103.185846,5.24632751 C102.368615,5.24632751 102.083077,6.02505026 102.083077,6.9033555 L102.083077,8.05875986 L104.478769,8.05875986 L104.153846,10.1722592 L102.083077,10.1722592 L102.083077,16 C105.987692,15.4668316 109,12.1113345 109,8.04082264 C109,3.59981444 105.418462,0 101,0 Z" id="Facebook"></path>
            </g>
        </g>
    </g>
</svg>