<?xml version="1.0" encoding="UTF-8"?>
<svg width="16px" height="16px" viewBox="0 0 16 16" version="1.1" xmlns="http://www.w3.org/2000/svg" xmlns:xlink="http://www.w3.org/1999/xlink">
    <title>9C7DECFD-727E-4D3E-8118-F639DD13C817</title>
    <g id="Page-1" stroke="none" stroke-width="1" fill="none" fill-rule="evenodd">
        <g id="Homepage" transform="translate(-1003.000000, -5354.000000)" fill="#FFFFFF" fill-rule="nonzero">
            <g id="Generic-/-Footer" transform="translate(0.000000, 4846.000000)">
                <g id="Social-Media" transform="translate(1003.000000, 508.000000)">
                    <path d="M8,0 C3.58153846,0 0,3.59981444 0,8.04082264 C0,12.0723674 2.95446154,15.4006495 6.80430769,15.9820628 L6.80430769,10.1716406 L4.82461538,10.1716406 L4.82461538,8.05814133 L6.80430769,8.05814133 L6.80430769,6.6516159 C6.80430769,4.32286996 7.93292308,3.30106696 9.85846154,3.30106696 C10.7803077,3.30106696 11.2683077,3.36972321 11.4990769,3.40126798 L11.4990769,5.24632751 L10.1858462,5.24632751 C9.36861538,5.24632751 9.08307692,6.02505026 9.08307692,6.9033555 L9.08307692,8.05875986 L11.4787692,8.05875986 L11.1538462,10.1722592 L9.08307692,10.1722592 L9.08307692,16 C12.9876923,15.4668316 16,12.1113345 16,8.04082264 C16,3.59981444 12.4184615,0 8,0 Z" id="Facebook"></path>
                </g>
            </g>
        </g>
    </g>
</svg>