<?xml version="1.0" encoding="UTF-8"?>
<svg width="20px" height="19px" viewBox="0 0 20 19" version="1.1" xmlns="http://www.w3.org/2000/svg" xmlns:xlink="http://www.w3.org/1999/xlink">
    <title>7631976A-2949-45B5-B8AD-85041B846A65</title>
    <g id="Page-1" stroke="none" stroke-width="1" fill="none" fill-rule="evenodd">
        <g id="Contact-us" transform="translate(-452.000000, -903.000000)" fill="#3A3F47" fill-rule="nonzero">
            <g id="Group-2" transform="translate(439.000000, 889.000000)">
                <path d="M26.9191074,14 C27.7621261,14 28.3990392,14.2043506 28.8298466,14.6130519 C29.260654,15.0217532 29.4760576,15.6624616 29.4760576,16.5351771 L29.4760576,16.5351771 L29.4753882,16.9968559 L30.3128777,16.9961184 C31.1868898,16.9961184 31.8532466,17.2189067 32.3119479,17.6644833 C32.7706493,18.1100598 33,18.7692059 33,19.6419214 L33,19.6419214 L33,27.7268316 C33,28.5934013 32.7706493,29.2494744 32.3119479,29.6950509 C31.8532466,30.1406275 31.1868898,30.3634158 30.3128777,30.3634158 L30.3128777,30.3634158 L29.3920781,30.3640058 L29.3923756,31.2299854 C29.3923756,31.8445738 29.242058,32.2932234 28.9414226,32.575934 C28.6407872,32.8586447 28.1929335,33 27.5978615,33 L27.5978615,33 L18.4114365,33 C17.8101658,33 17.3607624,32.8586447 17.0632264,32.575934 C16.7656904,32.2932234 16.6169224,31.8445738 16.6169224,31.2299854 L16.6169224,31.2299854 L16.615881,30.3640058 L15.7057183,30.3634158 C14.8255075,30.3634158 14.1545018,30.1406275 13.6927011,29.6950509 C13.2309004,29.2494744 13,28.5934013 13,27.7268316 L13,27.7268316 L13,19.6419214 C13,18.7692059 13.2401984,18.1100598 13.7205951,17.6644833 C14.2009918,17.2189067 14.8626995,16.9961184 15.7057183,16.9961184 L15.7057183,16.9961184 L16.5325709,16.9968559 L16.5332404,16.5351771 C16.5332404,15.6624616 16.7594917,15.0217532 17.2119944,14.6130519 C17.6644971,14.2043506 18.2936619,14 19.0994886,14 L19.0994886,14 Z M27.2073454,27.2751092 L18.8019526,27.2751092 C18.5849992,27.2751092 18.4207345,27.3288857 18.3091585,27.4364386 C18.1975825,27.5439916 18.1417945,27.705321 18.1417945,27.920427 L18.1417945,27.920427 L18.1417945,30.9165454 C18.1417945,31.1377972 18.1975825,31.3021996 18.3091585,31.4097525 C18.4207345,31.5173055 18.5849992,31.571082 18.8019526,31.571082 L18.8019526,31.571082 L27.2073454,31.571082 C27.4304974,31.571082 27.5963118,31.5173055 27.7047885,31.4097525 C27.8132651,31.3021996 27.8675035,31.1377972 27.8675035,30.9165454 L27.8675035,30.9165454 L27.8675035,27.920427 C27.8675035,27.705321 27.8132651,27.5439916 27.7047885,27.4364386 C27.5963118,27.3288857 27.4304974,27.2751092 27.2073454,27.2751092 L27.2073454,27.2751092 Z M19.1273826,22.8039787 L18.3277545,22.8039787 C18.0550132,22.8039787 17.9186425,22.9361152 17.9186425,23.2003882 L17.9186425,24.002426 C17.9186425,24.266699 18.0550132,24.3988355 18.3277545,24.3988355 L19.1273826,24.3988355 C19.400124,24.3988355 19.5364947,24.266699 19.5364947,24.002426 L19.5364947,23.2003882 C19.5364947,22.9361152 19.400124,22.8039787 19.1273826,22.8039787 Z M21.9818689,22.8039787 L21.1729428,22.8039787 C20.9064001,22.8039787 20.7731288,22.9361152 20.7731288,23.2003882 L20.7731288,24.002426 C20.7731288,24.266699 20.9064001,24.3988355 21.1729428,24.3988355 L21.9818689,24.3988355 C22.2484116,24.3988355 22.3816829,24.266699 22.3816829,24.002426 L22.3816829,23.2003882 C22.3816829,22.9361152 22.2484116,22.8039787 21.9818689,22.8039787 Z M24.8363552,22.8039787 L24.0274291,22.8039787 C23.7546877,22.8039787 23.6183171,22.9361152 23.6183171,23.2003882 L23.6183171,24.002426 C23.6183171,24.266699 23.7546877,24.3988355 24.0274291,24.3988355 L24.8363552,24.3988355 C25.1090965,24.3988355 25.2454672,24.266699 25.2454672,24.002426 L25.2454672,23.2003882 C25.2454672,22.9361152 25.1090965,22.8039787 24.8363552,22.8039787 Z M27.6908415,22.8039787 L26.8819154,22.8039787 C26.6153727,22.8039787 26.4821013,22.9361152 26.4821013,23.2003882 L26.4821013,24.002426 C26.4821013,24.266699 26.6153727,24.3988355 26.8819154,24.3988355 L27.6908415,24.3988355 C27.9573842,24.3988355 28.0906555,24.266699 28.0906555,24.002426 L28.0906555,23.2003882 C28.0906555,22.9361152 27.9573842,22.8039787 27.6908415,22.8039787 Z M19.1273826,19.8908297 L18.3277545,19.8908297 C18.0550132,19.8908297 17.9186425,20.0260391 17.9186425,20.296458 L17.9186425,21.089277 C17.9186425,21.3596959 18.0550132,21.4949054 18.3277545,21.4949054 L19.1273826,21.4949054 C19.400124,21.4949054 19.5364947,21.3596959 19.5364947,21.089277 L19.5364947,20.296458 C19.5364947,20.0260391 19.400124,19.8908297 19.1273826,19.8908297 Z M21.9818689,19.8908297 L21.1729428,19.8908297 C20.9064001,19.8908297 20.7731288,20.0260391 20.7731288,20.296458 L20.7731288,21.089277 C20.7731288,21.3596959 20.9064001,21.4949054 21.1729428,21.4949054 L21.9818689,21.4949054 C22.2484116,21.4949054 22.3816829,21.3596959 22.3816829,21.089277 L22.3816829,20.296458 C22.3816829,20.0260391 22.2484116,19.8908297 21.9818689,19.8908297 Z M24.8363552,19.8908297 L24.0274291,19.8908297 C23.7546877,19.8908297 23.6183171,20.0260391 23.6183171,20.296458 L23.6183171,21.089277 C23.6183171,21.3596959 23.7546877,21.4949054 24.0274291,21.4949054 L24.8363552,21.4949054 C25.1090965,21.4949054 25.2454672,21.3596959 25.2454672,21.089277 L25.2454672,20.296458 C25.2454672,20.0260391 25.1090965,19.8908297 24.8363552,19.8908297 Z M27.6908415,19.8908297 L26.8819154,19.8908297 C26.6153727,19.8908297 26.4821013,20.0260391 26.4821013,20.296458 L26.4821013,21.089277 C26.4821013,21.3596959 26.6153727,21.4949054 26.8819154,21.4949054 L27.6908415,21.4949054 C27.9573842,21.4949054 28.0906555,21.3596959 28.0906555,21.089277 L28.0906555,20.296458 C28.0906555,20.0260391 27.9573842,19.8908297 27.6908415,19.8908297 Z M26.9284054,15.3920427 L19.0901906,15.3920427 C18.7368666,15.3920427 18.4734232,15.4765486 18.2998605,15.6455604 C18.1262978,15.8145722 18.0395165,16.0711629 18.0395165,16.4153324 L18.0395165,16.4153324 L18.0392934,16.9968559 L27.9686657,16.9968559 L27.9697815,16.4153324 C27.9697815,16.0711629 27.8814505,15.8145722 27.7047885,15.6455604 C27.5281265,15.4765486 27.2693321,15.3920427 26.9284054,15.3920427 L26.9284054,15.3920427 Z M25.9149233,30.1052887 C26.107082,30.1052887 26.269797,30.037684 26.4030683,29.9024745 C26.5363397,29.7672651 26.6029754,29.6043992 26.6029754,29.4138768 C26.6029754,29.2233544 26.5363397,29.0604884 26.4030683,28.925279 C26.269797,28.7900695 26.107082,28.7224648 25.9149233,28.7224648 L20.1036727,28.7224648 C19.9053154,28.7224648 19.739501,28.7900695 19.6062297,28.925279 C19.4729583,29.0604884 19.4063226,29.2233544 19.4063226,29.4138768 C19.4063226,29.6043992 19.4729583,29.7672651 19.6062297,29.9024745 C19.739501,30.037684 19.9053154,30.1052887 20.1036727,30.1052887 L25.9149233,30.1052887 Z" id="􀪌"></path>
            </g>
        </g>
    </g>
</svg>