<?xml version="1.0" encoding="UTF-8"?>
<svg width="36px" height="21px" viewBox="0 0 36 21" version="1.1" xmlns="http://www.w3.org/2000/svg" xmlns:xlink="http://www.w3.org/1999/xlink">
    <title>C6B5D2FC-9102-4DC7-89FB-A95F26F1EC8C</title>
    <g id="Page-1" stroke="none" stroke-width="1" fill="none" fill-rule="evenodd">
        <g id="Sparkle-of-Hope" transform="translate(-1097.000000, -638.000000)" fill="#E9823B">
            <g id="Newsletter" transform="translate(189.000000, 450.000000)">
                <g id="Side" transform="translate(894.000000, 174.000000)">
                    <g id="Group" transform="translate(14.000000, 14.000000)">
                        <path d="M34.7142857,9.1875 L2.57142857,9.1875 L2.57142857,1.3125 C2.57142857,0.587626266 1.99579468,0 1.28571429,0 C0.575633893,0 0,0.587626266 0,1.3125 L0,19.6875 C0,20.4123737 0.575633893,21 1.28571429,21 C1.99579468,21 2.57142857,20.4123737 2.57142857,19.6875 L2.57142857,15.75 L33.4285714,15.75 L33.4285714,19.6875 C33.4285714,20.4123737 34.0042053,21 34.7142857,21 C35.4243661,21 36,20.4123737 36,19.6875 L36,10.5 C36,9.77512627 35.4243661,9.1875 34.7142857,9.1875 Z" id="Path" fill-rule="nonzero"></path>
                        <rect id="Rectangle" x="5" y="3" width="9" height="4" rx="2"></rect>
                    </g>
                </g>
            </g>
        </g>
    </g>
</svg>