<svg xmlns="http://www.w3.org/2000/svg" width="20" height="20" viewBox="0 0 20 20">
  <g id="Group_21098" data-name="Group 21098" transform="translate(-1346 -890)">
    <circle id="Ellipse_20" data-name="Ellipse 20" cx="10" cy="10" r="10" transform="translate(1346 890)" fill="#62f079"/>
    <path id="Icon_ionic-ios-checkmark" data-name="Icon ionic-ios-checkmark" d="M22.371,13.282l-.981-1.009a.211.211,0,0,0-.156-.067h0a.2.2,0,0,0-.156.067l-6.8,6.849-2.474-2.474a.215.215,0,0,0-.312,0l-.992.992a.222.222,0,0,0,0,.318l3.121,3.121a.987.987,0,0,0,.652.318,1.034,1.034,0,0,0,.646-.306h.006l7.451-7.49A.238.238,0,0,0,22.371,13.282Z" transform="translate(1339.566 883.199)" fill="#fff"/>
  </g>
</svg>
