<svg xmlns="http://www.w3.org/2000/svg" width="20" height="20" viewBox="0 0 20 20">
  <path id="dashboard" d="M11.869,8H13.3c.5,0,.905,0,1.234.022a2.865,2.865,0,0,1,.92.189,2.778,2.778,0,0,1,1.5,1.5,2.865,2.865,0,0,1,.189.92c.022.329.022.733.022,1.234V13.3c0,.5,0,.905-.022,1.234a2.865,2.865,0,0,1-.189.92,2.778,2.778,0,0,1-1.5,1.5,2.865,2.865,0,0,1-.92.189c-.329.022-.733.022-1.234.022H11.869c-.5,0-.905,0-1.234-.022a2.865,2.865,0,0,1-.92-.189,2.778,2.778,0,0,1-1.5-1.5,2.865,2.865,0,0,1-.189-.92C8,14.2,8,13.8,8,13.3V11.869c0-.5,0-.905.022-1.234a2.865,2.865,0,0,1,.189-.92,2.778,2.778,0,0,1,1.5-1.5,2.865,2.865,0,0,1,.92-.189C10.964,8,11.368,8,11.869,8ZM10.711,9.131a1.792,1.792,0,0,0-.571.107,1.667,1.667,0,0,0-.9.9,1.792,1.792,0,0,0-.107.571c-.02.287-.02.653-.02,1.178v1.389c0,.525,0,.891.02,1.178a1.792,1.792,0,0,0,.107.571,1.667,1.667,0,0,0,.9.9,1.792,1.792,0,0,0,.571.107c.287.02.653.02,1.178.02h1.389c.525,0,.891,0,1.178-.02a1.792,1.792,0,0,0,.571-.107,1.667,1.667,0,0,0,.9-.9,1.792,1.792,0,0,0,.107-.571c.02-.287.02-.653.02-1.178V11.889c0-.525,0-.891-.02-1.178a1.792,1.792,0,0,0-.107-.571,1.667,1.667,0,0,0-.9-.9,1.792,1.792,0,0,0-.571-.107c-.287-.02-.653-.02-1.178-.02H11.889C11.364,9.111,11,9.111,10.711,9.131Zm1.158,9.7H13.3c.5,0,.905,0,1.234.022a2.865,2.865,0,0,1,.92.189,2.778,2.778,0,0,1,1.5,1.5,2.865,2.865,0,0,1,.189.92c.022.329.022.733.022,1.234v1.428c0,.5,0,.905-.022,1.234a2.865,2.865,0,0,1-.189.92,2.778,2.778,0,0,1-1.5,1.5,2.865,2.865,0,0,1-.92.189C14.2,28,13.8,28,13.3,28H11.869c-.5,0-.905,0-1.234-.022a2.865,2.865,0,0,1-.92-.189,2.778,2.778,0,0,1-1.5-1.5,2.865,2.865,0,0,1-.189-.92C8,25.036,8,24.632,8,24.131V22.7c0-.5,0-.905.022-1.234a2.865,2.865,0,0,1,.189-.92,2.778,2.778,0,0,1,1.5-1.5,2.865,2.865,0,0,1,.92-.189C10.964,18.833,11.368,18.833,11.869,18.833Zm-1.158,1.131a1.792,1.792,0,0,0-.571.107,1.667,1.667,0,0,0-.9.9,1.792,1.792,0,0,0-.107.571c-.02.287-.02.653-.02,1.178v1.389c0,.525,0,.891.02,1.178a1.792,1.792,0,0,0,.107.571,1.667,1.667,0,0,0,.9.9,1.792,1.792,0,0,0,.571.107c.287.02.653.02,1.178.02h1.389c.525,0,.891,0,1.178-.02a1.792,1.792,0,0,0,.571-.107,1.667,1.667,0,0,0,.9-.9,1.792,1.792,0,0,0,.107-.571c.02-.287.02-.653.02-1.178V22.722c0-.525,0-.891-.02-1.178a1.792,1.792,0,0,0-.107-.571,1.667,1.667,0,0,0-.9-.9,1.792,1.792,0,0,0-.571-.107c-.287-.02-.653-.02-1.178-.02H11.889C11.364,19.944,11,19.945,10.711,19.964ZM22.7,8h1.428c.5,0,.905,0,1.234.022a2.865,2.865,0,0,1,.92.189,2.778,2.778,0,0,1,1.5,1.5,2.865,2.865,0,0,1,.189.92c.022.329.022.733.022,1.234V24.131c0,.5,0,.905-.022,1.234a2.865,2.865,0,0,1-.189.92,2.778,2.778,0,0,1-1.5,1.5,2.865,2.865,0,0,1-.92.189c-.329.022-.733.022-1.234.022H22.7c-.5,0-.905,0-1.234-.022a2.865,2.865,0,0,1-.92-.189,2.778,2.778,0,0,1-1.5-1.5,2.865,2.865,0,0,1-.189-.92c-.022-.329-.022-.733-.022-1.234V11.869c0-.5,0-.905.022-1.234a2.865,2.865,0,0,1,.189-.92,2.778,2.778,0,0,1,1.5-1.5,2.865,2.865,0,0,1,.92-.189C21.8,8,22.2,8,22.7,8ZM21.544,9.131a1.792,1.792,0,0,0-.571.107,1.667,1.667,0,0,0-.9.9,1.792,1.792,0,0,0-.107.571c-.02.287-.02.653-.02,1.178V24.111c0,.525,0,.891.02,1.178a1.792,1.792,0,0,0,.107.571,1.667,1.667,0,0,0,.9.9,1.792,1.792,0,0,0,.571.107c.287.02.653.02,1.178.02h1.389c.525,0,.891,0,1.178-.02a1.792,1.792,0,0,0,.571-.107,1.667,1.667,0,0,0,.9-.9,1.792,1.792,0,0,0,.107-.571c.02-.287.02-.653.02-1.178V11.889c0-.525,0-.891-.02-1.178a1.792,1.792,0,0,0-.107-.571,1.667,1.667,0,0,0-.9-.9,1.792,1.792,0,0,0-.571-.107c-.287-.02-.653-.02-1.178-.02H22.722C22.2,9.111,21.831,9.111,21.544,9.131Z" transform="translate(-8 -8)" fill="#3f3f3f" fill-rule="evenodd"/>
</svg>
