<svg xmlns="http://www.w3.org/2000/svg" width="15.337" height="20" viewBox="0 0 15.337 20">
  <g id="Group_108" data-name="Group 108" transform="translate(-1205.955 -403)">
    <path id="Path_53" data-name="Path 53" d="M20.75,10.466l-.322,9.75a3.212,3.212,0,0,1-3.221,3.106h-6.12a3.212,3.212,0,0,1-3.221-3.1l-.322-9.753a.806.806,0,0,1,1.611-.053l.322,9.752a1.611,1.611,0,0,0,1.611,1.549h6.12a1.611,1.611,0,0,0,1.611-1.552l.322-9.749a.806.806,0,0,1,1.611.053Zm1.065-3.245a.805.805,0,0,1-.805.805H7.283a.805.805,0,0,1,0-1.611h2.5A1.028,1.028,0,0,0,10.8,5.492a2.409,2.409,0,0,1,2.4-2.17h1.876a2.409,2.409,0,0,1,2.4,2.17,1.028,1.028,0,0,0,1.025.925h2.5a.805.805,0,0,1,.805.805ZM12.2,6.416h3.888a2.658,2.658,0,0,1-.205-.76.805.805,0,0,0-.8-.725H13.209a.805.805,0,0,0-.8.725,2.658,2.658,0,0,1-.206.76Zm.811,12.2V11.76a.805.805,0,1,0-1.611,0v6.86a.805.805,0,0,0,1.611,0Zm3.877,0V11.76a.805.805,0,1,0-1.611,0v6.86a.805.805,0,0,0,1.611,0Z" transform="translate(1199.477 399.678)" fill="#d4d9e6"/>
  </g>
</svg>
