<svg xmlns="http://www.w3.org/2000/svg" width="72" height="62.003" viewBox="0 0 72 62.003">
  <g id="Group_21489" data-name="Group 21489" transform="translate(-573 -183.499)">
    <g id="Group_21486" data-name="Group 21486" transform="translate(5)">
      <path id="warning" d="M51.311,42.6l-19.5-39a6.5,6.5,0,0,0-11.626,0l-19.5,39A6.5,6.5,0,0,0,6.5,52.008h39A6.5,6.5,0,0,0,51.311,42.6ZM29.244,43.883a1.624,1.624,0,0,1-1.625,1.625h-3.25a1.624,1.624,0,0,1-1.625-1.625v-3.25a1.624,1.624,0,0,1,1.625-1.625h3.25a1.624,1.624,0,0,1,1.625,1.625Zm0-13a1.624,1.624,0,0,1-1.625,1.625h-3.25a1.624,1.624,0,0,1-1.625-1.625V14.632A1.625,1.625,0,0,1,24.369,13h3.25a1.625,1.625,0,0,1,1.625,1.625Z" transform="translate(568.003 183.493)" fill="#ac1549"/>
      <path id="warning-2" data-name="warning" d="M51.311,42.6l-19.5-39a6.5,6.5,0,0,0-11.626,0l-19.5,39A6.5,6.5,0,0,0,6.5,52.008h39A6.5,6.5,0,0,0,51.311,42.6ZM29.244,43.883a1.624,1.624,0,0,1-1.625,1.625h-3.25a1.624,1.624,0,0,1-1.625-1.625v-3.25a1.624,1.624,0,0,1,1.625-1.625h3.25a1.624,1.624,0,0,1,1.625,1.625Zm0-13a1.624,1.624,0,0,1-1.625,1.625h-3.25a1.624,1.624,0,0,1-1.625-1.625V14.632A1.625,1.625,0,0,1,24.369,13h3.25a1.625,1.625,0,0,1,1.625,1.625Z" transform="translate(588.003 193.493)" fill="#fff"/>
    </g>
    <path id="warning-3" data-name="warning" d="M29.244,43.883a1.624,1.624,0,0,1-1.625,1.625h-3.25a1.624,1.624,0,0,1-1.625-1.625v-3.25a1.624,1.624,0,0,1,1.625-1.625h3.25a1.624,1.624,0,0,1,1.625,1.625Zm0-13a1.624,1.624,0,0,1-1.625,1.625h-3.25a1.624,1.624,0,0,1-1.625-1.625V14.632A1.625,1.625,0,0,1,24.369,13h3.25a1.625,1.625,0,0,1,1.625,1.625Z" transform="translate(593.003 193.493)" fill="#ce2f66"/>
  </g>
</svg>
