<svg xmlns="http://www.w3.org/2000/svg" width="20.12" height="20.502" viewBox="0 0 20.12 20.502">
  <g id="Group_21406" data-name="Group 21406" transform="translate(-1180.328 -287.498)">
    <g id="Logout" transform="translate(1172.736 277.803)">
      <path id="Path_1007" data-name="Path 1007" d="M23.549,23.2H20.286a.566.566,0,0,1,0-1.131h3.264a5.615,5.615,0,0,0,5.609-5.609V13.291a.566.566,0,0,1,1.131,0v3.167a6.749,6.749,0,0,1-6.74,6.74Zm8.976-6.54a.566.566,0,0,1-.4-.166l-2.812-2.812a.566.566,0,1,1,.8-.8l2.814,2.813a.566.566,0,0,1-.4.965Z" transform="translate(-5.378 -3.001)" fill="#3f3f3f"/>
      <path id="Path_1008" data-name="Path 1008" d="M37.89,16.66a.566.566,0,0,1-.4-.965l2.8-2.8a.565.565,0,1,1,.8.8l-2.8,2.8A.566.566,0,0,1,37.89,16.66Z" transform="translate(-16.346 -3.003)" fill="#3f3f3f"/>
    </g>
    <path id="Path_1011" data-name="Path 1011" d="M41.83,59.743H54.251a3.77,3.77,0,0,0,3.77-3.77V54a.539.539,0,1,0-1.077,0v1.979a2.693,2.693,0,0,1-2.693,2.693H41.83a2.693,2.693,0,0,1-2.693-2.693V43.56a2.693,2.693,0,0,1,2.693-2.693h.932a.539.539,0,0,0,0-1.077H41.83a3.77,3.77,0,0,0-3.77,3.77V55.981A3.77,3.77,0,0,0,41.83,59.743Z" transform="translate(1142.268 248.257)" fill="#3f3f3f"/>
  </g>
</svg>
