<svg xmlns="http://www.w3.org/2000/svg" xmlns:xlink="http://www.w3.org/1999/xlink" width="67.238" height="38.992" viewBox="0 0 67.238 38.992">
  <defs>
    <linearGradient id="linear-gradient" y1="0.5" x2="1" y2="0.5" gradientUnits="objectBoundingBox">
      <stop offset="0" stop-color="#6625fd"/>
      <stop offset="0.081" stop-color="#633ffa"/>
      <stop offset="0.233" stop-color="#5e6bf6"/>
      <stop offset="0.387" stop-color="#5a8ff3"/>
      <stop offset="0.54" stop-color="#57abf0"/>
      <stop offset="0.694" stop-color="#54bfee"/>
      <stop offset="0.847" stop-color="#53cbed"/>
      <stop offset="1" stop-color="#53d0ed"/>
    </linearGradient>
    <linearGradient id="linear-gradient-2" y1="0.5" x2="1" y2="0.5" gradientUnits="objectBoundingBox">
      <stop offset="0" stop-color="#ff4c6b"/>
      <stop offset="0.044" stop-color="#fe3d85"/>
      <stop offset="0.101" stop-color="#fd2f9f"/>
      <stop offset="0.159" stop-color="#fd25b2"/>
      <stop offset="0.218" stop-color="#fd1fbe"/>
      <stop offset="0.281" stop-color="#fd1dc2"/>
      <stop offset="0.669" stop-color="#924ff3"/>
      <stop offset="0.888" stop-color="#5f4ced"/>
    </linearGradient>
  </defs>
  <g id="Group_20910" data-name="Group 20910" transform="translate(-411.582 -326.224)">
    <path id="Path_1013" data-name="Path 1013" d="M454.167,333.878a8.291,8.291,0,0,1,4.692-1.094h19.96v-6.561H458.74a16.607,16.607,0,0,0-5.885.974,12.045,12.045,0,0,0-4.295,2.705v-3.68H411.582v27.833h6.76V332.785H442a5.323,5.323,0,0,1-1.471,3.161,4.494,4.494,0,0,1-3.221,1.093H421.483v6.243h8.469l10.736,10.775h10.895V343.282h25.01v-6.243H451.941A5.737,5.737,0,0,1,454.167,333.878Zm-9.344,16-6.521-6.717a12.514,12.514,0,0,0,6.521-2.342Z" fill="url(#linear-gradient)"/>
    <path id="Path_1014" data-name="Path 1014" d="M418.342,332.785H442a5.323,5.323,0,0,1-1.471,3.161,4.494,4.494,0,0,1-3.221,1.093H421.483v6.243h8.469l3.314,3.326c.168-.1.337-.2.506-.3l.383-.222q.349-.2.7-.4.26-.146.52-.291l.467-.256.516-.278q.3-.158.6-.314t.584-.3l.411-.209q.4-.2.811-.4h0l-.46-.473a17.256,17.256,0,0,0,2.31-.395h0q.443-.2.888-.4l.018-.008q1.344-.587,2.711-1.12c.2-.135.4-.275.591-.423v.2q1.322-.5,2.666-.953l.087-.029q.411-.137.824-.27l.163-.052q1.718-.548,3.47-1.015l.267-.071q.369-.1.74-.19l.295-.073q1.19-.294,2.4-.552l.34-.073q.338-.071.677-.138l.415-.082q.332-.064.664-.126l.42-.076q.815-.146,1.636-.277h-7.941a5.737,5.737,0,0,1,2.227-3.161,8.291,8.291,0,0,1,4.692-1.094h19.96v-6.561H458.74a16.607,16.607,0,0,0-5.885.974,12.045,12.045,0,0,0-4.295,2.705v-3.68H411.582v27.833h6.76Z" fill="url(#linear-gradient-2)"/>
    <path id="Path_1015" data-name="Path 1015" d="M510.408,642.492l-.437.156a1.611,1.611,0,0,0-1.235-.469,1.5,1.5,0,0,0-.98.309,1.017,1.017,0,0,0,0,1.581,1.8,1.8,0,0,0,2.223-.174l.413.228a1.866,1.866,0,0,1-.707.528,2.485,2.485,0,0,1-.944.162,2.061,2.061,0,0,1-1.279-.385,1.423,1.423,0,0,1,.008-2.3,2.042,2.042,0,0,1,1.271-.389A1.984,1.984,0,0,1,510.408,642.492Zm7,.786a1.379,1.379,0,0,1-.585,1.154,2.306,2.306,0,0,1-2.557,0,1.413,1.413,0,0,1,.008-2.3,2.058,2.058,0,0,1,1.275-.393,2.031,2.031,0,0,1,1.271.393A1.382,1.382,0,0,1,517.4,643.277Zm-.5,0a.978.978,0,0,0-.433-.826,1.714,1.714,0,0,0-1.912.038,1.02,1.02,0,0,0-.008,1.584,1.532,1.532,0,0,0,.995.3,1.506,1.506,0,0,0,.988-.3A.979.979,0,0,0,516.9,643.277Zm8.113,1.455h-.481v-2.373h-.012l-1.507,1.892-1.5-1.892h-.012v2.373h-.481v-2.9h.6l1.391,1.753,1.4-1.753h.6Zm6.077-2.9a.985.985,0,0,1,.705.246.865.865,0,0,1,.261.659.819.819,0,0,1-.271.662,1.193,1.193,0,0,1-.788.229h-1.728v1.106h-.481v-2.9Zm-.085,1.363q.557,0,.558-.449,0-.481-.589-.481h-1.7v.93Zm7.312,1.539h-.526l-.334-.649H535.5l-.334.649h-.526l1.535-2.9h.606Zm-1.094-1.082-.74-1.406-.748,1.406Zm7.707,1.082h-.6l-2.216-2.38v2.38h-.481v-2.9h.6l2.217,2.381V641.83h.48Zm6.9-2.9-1.588,1.755v1.146h-.481v-1.146l-1.588-1.755h.6l1.231,1.355,1.225-1.355Z" transform="translate(-84.448 -279.6)" fill="#939598"/>
  </g>
</svg>
