<svg xmlns="http://www.w3.org/2000/svg" width="20" height="15.799" viewBox="0 0 20 15.799">
  <g id="Group_21091" data-name="Group 21091" transform="translate(-4 -6.462)">
    <path id="Path_1034" data-name="Path 1034" d="M21.842,9.813H16.033L17.2,7.075c.083-.249,0-.415-.249-.581-.249-.083-.415,0-.581.249L15.7,8.153H6.075A2.108,2.108,0,0,0,4,10.228v5.809a2.055,2.055,0,0,0,2.075,2.075H6.49v2.075c0,.166.083.332.249.332.083,0,.083.083.166.083a.3.3,0,0,0,.249-.083l3.237-2.407h1.079L10.307,20.85c-.083.249,0,.415.249.581h.166a.456.456,0,0,0,.415-.249l.664-1.411H17.61l3.237,2.407a.3.3,0,0,0,.249.083c.083,0,.166,0,.166-.083a.445.445,0,0,0,.249-.332V19.772h.415A2.055,2.055,0,0,0,24,17.7V11.888A2.181,2.181,0,0,0,21.842,9.813ZM10.224,17.282a.3.3,0,0,0-.249.083L7.32,19.357V17.7a.392.392,0,0,0-.415-.415h-.83A1.276,1.276,0,0,1,4.83,16.037V10.228A1.276,1.276,0,0,1,6.075,8.983h9.378l-3.651,8.3Zm12.863.415a1.276,1.276,0,0,1-1.245,1.245h-.83a.392.392,0,0,0-.415.415v1.66l-2.656-1.992a.3.3,0,0,0-.249-.083H12.05l3.651-8.3h6.224a1.276,1.276,0,0,1,1.245,1.245V17.7Z" fill="#3f3f3f"/>
    <path id="Path_1035" data-name="Path 1035" d="M20.9,13.5h-1.66A1.276,1.276,0,0,0,18,14.745v3.32a.415.415,0,1,0,.83,0V16.82h2.49v1.245a.415.415,0,0,0,.83,0v-3.32A1.276,1.276,0,0,0,20.9,13.5ZM18.83,15.99V14.745a.392.392,0,0,1,.415-.415H20.9a.392.392,0,0,1,.415.415V15.99Z" transform="translate(-2.382 -1.197)" fill="#3f3f3f"/>
    <path id="Path_1036" data-name="Path 1036" d="M4.337,12.882a2.731,2.731,0,0,1-1.494.42A2,2,0,0,1,1.308,12.7,1.679,1.679,0,0,1,.84,11.509a1.642,1.642,0,0,1,.258-.9A1.6,1.6,0,0,1,1.8,10,1.687,1.687,0,0,1,.977,8.4a1.612,1.612,0,0,1,.557-1.292A1.567,1.567,0,0,1,2.576,6.72a1.523,1.523,0,0,1,1.3.654v.533a1.482,1.482,0,0,0-1.252-.695,1.043,1.043,0,0,0-.808.335,1.235,1.235,0,0,0-.307.868,1.342,1.342,0,0,0,.371.993,1.272,1.272,0,0,0,.953.363H4.264v.5H2.851a1.555,1.555,0,0,0-1.187.428,1.116,1.116,0,0,0-.307.8,1.2,1.2,0,0,0,.428.953,1.566,1.566,0,0,0,1.058.347h.016a2.429,2.429,0,0,0,1.478-.412Z" transform="translate(6.733 3.162)" fill="#3f3f3f"/>
  </g>
</svg>
