<svg xmlns="http://www.w3.org/2000/svg" width="52.199" height="52.199" viewBox="0 0 52.199 52.199">
  <g id="Group_21046" data-name="Group 21046" transform="translate(-4 -4)" opacity="0.14">
    <g id="Group_21045" data-name="Group 21045" transform="translate(4 4)">
      <path id="Path_1027" data-name="Path 1027" d="M18.236,30.1a2.373,2.373,0,0,0-2.373-2.373H6.373a2.373,2.373,0,1,0,0,4.745h9.491A2.373,2.373,0,0,0,18.236,30.1Zm35.59-2.373H44.336a2.373,2.373,0,1,0,0,4.745h9.491a2.373,2.373,0,1,0,0-4.745ZM30.1,4a2.373,2.373,0,0,0-2.373,2.373v9.491a2.373,2.373,0,1,0,4.745,0V6.373A2.373,2.373,0,0,0,30.1,4Zm0,37.963a2.373,2.373,0,0,0-2.373,2.373v9.491a2.373,2.373,0,1,0,4.745,0V44.336A2.373,2.373,0,0,0,30.1,41.963ZM18.355,38.489,11.645,45.2A2.373,2.373,0,1,0,15,48.555l6.711-6.711a2.373,2.373,0,1,0-3.356-3.355Zm23.49-16.778L48.554,15a2.373,2.373,0,0,0,0-3.356h0a2.371,2.371,0,0,0-3.353,0h0l-6.712,6.71a2.373,2.373,0,0,0,3.356,3.356ZM15,11.644a2.373,2.373,0,1,0-3.392,3.318l.037.037,6.71,6.711a2.374,2.374,0,0,0,3.356-3.356ZM41.844,38.489a2.373,2.373,0,0,0-3.356,3.355L45.2,48.555a2.371,2.371,0,0,0,3.354,0h0a2.375,2.375,0,0,0,0-3.356Z" transform="translate(-4 -4)" fill="#ce2f66"/>
    </g>
  </g>
</svg>
