<svg xmlns="http://www.w3.org/2000/svg" width="21.207" height="21.701" viewBox="0 0 21.207 21.701">
  <g id="IC_Unpin_menu" data-name="IC Unpin menu" transform="translate(0.707 1.043)">
    <g id="Group_20931" data-name="Group 20931" transform="translate(-1420.191 -1558.382)">
      <path id="Path_1016" data-name="Path 1016" d="M1462,1590.231l3.515,3.514c-.926,2.125-3.705,1.8-3.705,1.8l-4.43,5.558c1.019,3.051-.746,4.25-.746,4.25l-8.9-9.077" transform="translate(-25.318 -29.282)" fill="none" stroke="#d4d9e6" stroke-linecap="round" stroke-linejoin="round" stroke-width="1"/>
      <path id="Path_1017" data-name="Path 1017" d="M1461.411,1561.112l-2.836-2.73c-2.118.884-1.865,3.7-1.865,3.7l-5.588,4.341c-2.982-1.1-4.207.651-4.207.651l9.042,9" transform="translate(-24.571)" fill="none" stroke="#d4d9e6" stroke-linecap="round" stroke-linejoin="round" stroke-width="1"/>
      <line id="Line_29" data-name="Line 29" x1="6.445" y2="6.445" transform="translate(1420.192 1571.343)" fill="none" stroke="#d4d9e6" stroke-linecap="round" stroke-linejoin="round" stroke-width="1"/>
    </g>
    <line id="Line_30" data-name="Line 30" x2="10" y2="19" transform="translate(7.733 0.307)" fill="none" stroke="#fff" stroke-linecap="round" stroke-linejoin="round" stroke-width="2"/>
    <path id="Path_1018" data-name="Path 1018" d="M0,0,10,19" transform="translate(7.733 0.307)" fill="none" stroke="#d4d9e6" stroke-linecap="round" stroke-width="1"/>
  </g>
</svg>
