<svg xmlns="http://www.w3.org/2000/svg" width="23.646" height="23.646" viewBox="0 0 23.646 23.646">
  <g id="Group_8" data-name="Group 8" transform="translate(-36.249 -35.849)">
    <path id="Path_2" data-name="Path 2" d="M56.812,49.76a8.9,8.9,0,0,1-1.085,2.618.379.379,0,0,0,.057.452c.323.323.648.646.969.969l.052.055a.645.645,0,0,1,.112.2.668.668,0,0,1,.017.067c.027.1,0-.042,0,.02a1.062,1.062,0,0,1,0,.154c0,.075,0,.017,0,0-.007.035-.015.067-.025.1s-.015.045-.022.065c.027-.067-.017.03-.022.037l-.037.06c-.055.084.042-.035-.032.037a.284.284,0,0,1-.027.027l-.035.035-.176.176-1.224,1.224c-.109.109-.216.221-.328.328l-.03.027c-.077.077.027-.015-.022.02-.025.017-.05.032-.075.047s-.042.022-.062.032c.055-.027,0,0-.007,0-.032.01-.067.017-.1.027-.075.022.047,0-.037.007a1.253,1.253,0,0,1-.137,0c-.1,0,.06.022-.037-.007-.022-.007-.045-.01-.067-.017l-.065-.022c.072.027-.03-.017-.037-.022l-.06-.037c-.079-.052.03.037-.037-.032-.338-.343-.683-.681-1.023-1.021a.379.379,0,0,0-.452-.057,8.7,8.7,0,0,1-2.613,1.09.376.376,0,0,0-.273.36c0,.459,0,.921,0,1.381,0,.032,0,.062,0,.094,0,.094.02-.03,0,.017a.743.743,0,0,0-.02.079.6.6,0,0,1-.02.062c.025-.075-.007.012-.015.03s-.027.045-.042.07-.057.07-.007.015a1.186,1.186,0,0,1-.112.112c.055-.047-.032.02-.055.035a.694.694,0,0,1-.084.045c.06-.027-.01,0-.032.007s-.042.01-.065.017c-.094.027.042,0-.017,0-.03,0-.057,0-.087,0H47.282c-.154,0-.31,0-.464,0l-.07,0c-.092,0,.03.02-.017,0a.743.743,0,0,0-.079-.02.6.6,0,0,1-.062-.02c.077.027-.017-.01-.03-.015a.4.4,0,0,1-.055-.032c-.01-.007-.087-.07-.027-.017a1.186,1.186,0,0,1-.112-.112c.05.055-.03-.047-.042-.07s-.025-.047-.037-.072c.03.065,0,.012,0,0l-.022-.079a.292.292,0,0,1-.01-.05h0c-.012-.492,0-.983,0-1.478a.38.38,0,0,0-.273-.36,8.9,8.9,0,0,1-2.618-1.085.379.379,0,0,0-.452.057c-.323.323-.646.648-.969.969l-.055.052a.645.645,0,0,1-.2.112.666.666,0,0,1-.067.017c-.1.027.042,0-.02,0a1.063,1.063,0,0,1-.154,0c-.075,0-.017,0,0,0-.035-.007-.067-.015-.1-.025l-.065-.022c.067.027-.03-.017-.037-.022l-.06-.037c-.084-.055.035.042-.037-.032a.284.284,0,0,1-.027-.027l-.035-.035-.176-.176-1.224-1.224c-.109-.109-.221-.216-.328-.328l-.027-.03c-.077-.077.015.027-.02-.022-.017-.025-.032-.05-.047-.075s-.022-.042-.032-.062c.027.055,0,0,0-.007-.01-.032-.017-.067-.027-.1-.022-.075,0,.047-.007-.037a1.253,1.253,0,0,1,0-.137c0-.1-.022.06.007-.037.007-.022.01-.045.017-.067s.015-.045.022-.065c-.027.072.017-.03.022-.037l.037-.06c.052-.079-.037.03.032-.037.343-.338.68-.683,1.021-1.023a.379.379,0,0,0,.057-.452,8.684,8.684,0,0,1-1.093-2.615.375.375,0,0,0-.36-.273c-.459,0-.921,0-1.381,0-.032,0-.062,0-.094,0-.094,0,.03.02-.017,0a.744.744,0,0,0-.079-.02.6.6,0,0,1-.062-.02c.075.025-.012-.007-.03-.015s-.045-.027-.07-.042-.07-.057-.015-.007a1.186,1.186,0,0,1-.112-.112c.047.055-.02-.032-.035-.055a.693.693,0,0,1-.045-.084c.027.06,0-.01-.007-.032s-.01-.042-.017-.065c-.027-.094,0,.042,0-.017,0-.03,0-.057,0-.087V46.892c0-.154,0-.31,0-.464,0-.022,0-.047,0-.07,0-.092-.02.03,0-.017a.743.743,0,0,0,.02-.079.6.6,0,0,1,.02-.062c-.027.077.01-.017.015-.03a.4.4,0,0,1,.032-.055c.007-.01.07-.087.017-.027a1.188,1.188,0,0,1,.112-.112c-.055.05.047-.03.07-.042l.072-.037c-.065.03-.012,0,0,0l.079-.022a.293.293,0,0,1,.05-.01h0c.492-.012.983,0,1.478,0a.38.38,0,0,0,.36-.273A8.9,8.9,0,0,1,40.4,42.973a.379.379,0,0,0-.057-.452c-.323-.323-.648-.646-.969-.969l-.052-.055a.645.645,0,0,1-.112-.2.666.666,0,0,1-.017-.067c-.027-.1,0,.042,0-.02a1.062,1.062,0,0,1,0-.154c0-.075,0-.017,0,0,.007-.035.015-.067.025-.1s.015-.045.022-.065c-.027.067.017-.03.022-.037l.037-.06c.055-.084-.042.035.032-.037a.283.283,0,0,1,.027-.027l.035-.035.176-.176,1.224-1.224c.109-.109.216-.221.328-.328l.03-.027c.077-.077-.027.015.022-.02.025-.017.05-.032.075-.047s.042-.022.062-.032c-.055.027,0,0,.007,0,.032-.01.067-.017.1-.027.075-.022-.047,0,.037-.007a1.253,1.253,0,0,1,.137,0c.1,0-.06-.022.037.007.022.007.045.01.067.017l.065.022c-.072-.027.03.017.037.022l.06.037c.079.052-.03-.037.037.032.338.343.683.681,1.023,1.021a.379.379,0,0,0,.452.057,8.684,8.684,0,0,1,2.615-1.093.376.376,0,0,0,.273-.36c0-.459,0-.921,0-1.381,0-.032,0-.062,0-.094,0-.094-.02.03,0-.017a.742.742,0,0,0,.02-.079.6.6,0,0,1,.02-.062c-.025.075.007-.012.015-.03s.027-.045.042-.07.057-.07.007-.015a1.186,1.186,0,0,1,.112-.112c-.055.047.032-.02.055-.035a.693.693,0,0,1,.084-.045c-.06.027.01,0,.032-.007s.042-.01.065-.017c.094-.027-.042,0,.017,0,.03,0,.057,0,.087,0h2.034c.154,0,.31,0,.464,0l.07,0c.092,0-.03-.02.017,0a.743.743,0,0,0,.079.02.6.6,0,0,1,.062.02c-.077-.027.017.01.03.015a.4.4,0,0,1,.055.032c.01.007.087.07.027.017a1.187,1.187,0,0,1,.112.112c-.05-.055.03.047.042.07s.025.047.037.072c-.03-.065,0-.012,0,0l.022.079a.293.293,0,0,1,.01.05h0c.012.492,0,.983,0,1.478a.38.38,0,0,0,.273.36,8.9,8.9,0,0,1,2.618,1.085.379.379,0,0,0,.452-.057c.323-.323.646-.648.969-.969l.055-.052a.645.645,0,0,1,.2-.112.667.667,0,0,1,.067-.017c.1-.027-.042,0,.02,0a1.063,1.063,0,0,1,.154,0c.075,0,.017,0,0,0,.035.007.067.015.1.025l.065.022c-.067-.027.03.017.037.022l.06.037c.084.055-.035-.042.037.032a.283.283,0,0,1,.027.027l.035.035.176.176L56.444,40.4c.109.109.221.216.328.328l.027.03c.077.077-.015-.027.02.022.017.025.032.05.047.075s.022.042.032.062c-.027-.055,0,0,0,.007.01.032.017.067.027.1.022.075,0-.047.007.037a1.251,1.251,0,0,1,0,.137c0,.1.022-.06-.007.037-.007.022-.01.045-.017.067s-.015.045-.022.065c.027-.072-.017.03-.022.037l-.037.06c-.052.079.037-.03-.032.037-.343.338-.68.683-1.021,1.023a.379.379,0,0,0-.057.452,8.684,8.684,0,0,1,1.093,2.615.375.375,0,0,0,.36.273c.459,0,.921,0,1.381,0,.032,0,.062,0,.094,0,.094,0-.03-.02.017,0a.741.741,0,0,0,.079.02.6.6,0,0,1,.062.02c-.075-.025.012.007.03.015s.045.027.07.042.07.057.015.007a1.188,1.188,0,0,1,.112.112c-.047-.055.02.032.035.055a.694.694,0,0,1,.045.084c-.027-.06,0,.01.007.032s.01.042.017.065c.027.094,0-.042,0,.017,0,.03,0,.057,0,.087v2.034c0,.154,0,.31,0,.464,0,.022,0,.047,0,.07,0,.092.02-.03,0,.017a.743.743,0,0,0-.02.079.6.6,0,0,1-.02.062c.027-.077-.01.017-.015.03a.4.4,0,0,1-.032.055c-.007.01-.07.087-.017.027a1.188,1.188,0,0,1-.112.112c.055-.05-.047.03-.07.042l-.072.037c.065-.03.012,0,0,0l-.079.022a.293.293,0,0,1-.05.01h0c-.492.012-.983,0-1.478,0a.373.373,0,1,0,0,.745c.467,0,.936.007,1.4,0a1.33,1.33,0,0,0,1.229-.852,1.866,1.866,0,0,0,.084-.693V46.84c0-.161.01-.325,0-.487a1.319,1.319,0,0,0-.988-1.2,4.081,4.081,0,0,0-.921-.04h-.8c.119.092.238.181.36.273a9.787,9.787,0,0,0-1.16-2.8c-.02.151-.04.3-.057.452.33-.33.666-.656.991-.991a1.33,1.33,0,0,0,.263-1.485,1.948,1.948,0,0,0-.437-.549L55.85,38.731c-.109-.109-.216-.224-.33-.328a1.318,1.318,0,0,0-1.607-.147,4.718,4.718,0,0,0-.661.618l-.551.551c.152-.02.3-.04.452-.057a9.786,9.786,0,0,0-2.8-1.16c.092.119.181.238.273.36,0-.467.007-.936,0-1.4a1.33,1.33,0,0,0-.852-1.229,1.866,1.866,0,0,0-.693-.084H47.24c-.161,0-.325-.01-.487,0a1.319,1.319,0,0,0-1.2.988,4.082,4.082,0,0,0-.04.921v.8c.092-.119.181-.238.273-.36a9.786,9.786,0,0,0-2.8,1.16c.151.02.3.04.452.057-.33-.33-.656-.666-.991-.991a1.33,1.33,0,0,0-1.485-.263,1.948,1.948,0,0,0-.549.437l-1.286,1.286c-.109.109-.224.216-.328.33a1.318,1.318,0,0,0-.147,1.607,4.719,4.719,0,0,0,.618.661l.551.551c-.02-.151-.04-.3-.057-.452a9.786,9.786,0,0,0-1.16,2.8c.119-.092.238-.181.36-.273-.467,0-.936-.007-1.4,0a1.33,1.33,0,0,0-1.229.852,1.866,1.866,0,0,0-.084.693V48.5c0,.161-.01.325,0,.487a1.319,1.319,0,0,0,.988,1.2,4.082,4.082,0,0,0,.921.04h.8c-.119-.092-.238-.181-.36-.273a9.786,9.786,0,0,0,1.16,2.8c.02-.151.04-.3.057-.452-.33.33-.666.656-.991.991a1.33,1.33,0,0,0-.263,1.485,1.948,1.948,0,0,0,.437.549l1.286,1.286c.109.109.216.224.33.328a1.318,1.318,0,0,0,1.607.147,4.719,4.719,0,0,0,.661-.618l.551-.551c-.151.02-.3.04-.452.057a9.786,9.786,0,0,0,2.8,1.16c-.092-.119-.181-.238-.273-.36,0,.467-.007.936,0,1.4a1.33,1.33,0,0,0,.852,1.229,1.867,1.867,0,0,0,.693.084H48.9c.161,0,.325.01.487,0a1.319,1.319,0,0,0,1.2-.988,4.081,4.081,0,0,0,.04-.921v-.8c-.092.119-.181.238-.273.36a9.786,9.786,0,0,0,2.8-1.16c-.152-.02-.3-.04-.452-.057.33.33.656.666.991.991a1.33,1.33,0,0,0,1.485.263,1.948,1.948,0,0,0,.549-.437l1.286-1.286c.109-.109.224-.216.328-.33a1.318,1.318,0,0,0,.147-1.607,4.718,4.718,0,0,0-.618-.661l-.551-.551c.02.151.04.3.057.452a9.786,9.786,0,0,0,1.16-2.8.381.381,0,0,0-.261-.459A.387.387,0,0,0,56.812,49.76Z" transform="translate(0 0)" fill="#3f3f3f"/>
    <path id="Path_3" data-name="Path 3" d="M328.656,324.845c0,.117,0,.231-.012.348,0,.052-.01.1-.015.154,0,.02-.012.094,0,.02l-.015.1a4.44,4.44,0,0,1-.159.651c-.03.094-.067.186-.1.281s.02-.042-.007.017c-.01.025-.022.05-.035.075-.025.055-.052.109-.079.161a4.356,4.356,0,0,1-.33.544l-.1.132c.045-.06-.04.047-.052.065-.072.087-.149.171-.229.253s-.139.137-.211.2c-.04.037-.082.072-.122.107l-.05.042-.05.04c.027-.022.032-.025.01-.007a4.655,4.655,0,0,1-.531.348c-.1.052-.194.1-.293.147l-.06.027c-.1.045.042-.017-.017.007s-.112.045-.169.065a4.41,4.41,0,0,1-.643.179c-.045.01-.089.017-.134.025l-.1.015c.015,0,.072-.007,0,0-.114.012-.228.022-.343.027a4.617,4.617,0,0,1-.693-.027c-.109-.012.047.007-.02,0l-.084-.012c-.05-.007-.1-.017-.149-.027q-.171-.034-.343-.082c-.1-.027-.191-.057-.286-.092l-.154-.06c-.067-.027-.015-.007,0,0-.035-.015-.07-.03-.1-.047a4.2,4.2,0,0,1-.556-.31c-.092-.06-.179-.122-.266-.189.057.045-.032-.027-.052-.042-.05-.042-.1-.084-.147-.127a4.22,4.22,0,0,1-.437-.457c-.012-.017-.1-.124-.052-.065-.032-.042-.065-.087-.1-.132-.062-.089-.122-.179-.179-.273s-.109-.189-.159-.286c-.022-.045-.045-.089-.065-.134-.012-.025-.022-.05-.035-.074-.045-.1.025.07-.015-.032a4.36,4.36,0,0,1-.2-.633q-.034-.149-.06-.3c0-.027-.01-.057-.012-.084-.01-.065.01.089,0-.02-.007-.062-.012-.124-.017-.189a4.085,4.085,0,0,1,0-.676c0-.057.01-.114.017-.171.007-.075,0-.017,0,0,0-.027.007-.057.012-.084.02-.117.042-.233.07-.348a4.461,4.461,0,0,1,.2-.616c.025-.06-.037.079.007-.017.01-.02.017-.04.027-.06.022-.05.047-.1.072-.149.05-.1.1-.194.159-.286s.117-.184.179-.273c.027-.04.057-.079.087-.119s-.055.067.012-.015c.02-.025.04-.05.062-.075a4.429,4.429,0,0,1,.452-.464c.037-.032.074-.065.112-.094.017-.012.122-.1.065-.052.087-.067.174-.129.266-.189a4.261,4.261,0,0,1,.571-.315l.074-.035c.06-.025-.082.032.017-.007.047-.017.092-.037.139-.055.109-.04.221-.074.333-.107s.194-.05.293-.07c.055-.012.112-.022.166-.03l.067-.01c.045-.007.045-.007,0,0a.375.375,0,0,1,.05,0,4.376,4.376,0,0,1,.676-.025c.114,0,.229.015.343.027.015,0,.074.01,0,0l.084.012c.062.01.122.02.184.032a4.392,4.392,0,0,1,.641.184c.042.015.082.032.124.047.1.04-.067-.032.032.015l.06.027c.1.045.2.094.293.147a3.951,3.951,0,0,1,.544.358c-.057-.045,0,0,.015.012l.062.052c.037.032.074.062.109.1.084.077.166.154.246.236s.132.144.194.219l.052.062c.012.015.057.072.012.015.037.047.072.094.107.144a4.477,4.477,0,0,1,.328.546c.025.05.047.1.072.149.01.02.017.04.027.06.045.1-.025-.07.015.032s.079.206.112.31a4.308,4.308,0,0,1,.152.636c0,.027.01.057.012.084-.01-.072,0-.012,0,0,0,.057.012.114.017.171,0,.109.007.224.007.34a.373.373,0,0,0,.745,0,4.764,4.764,0,0,0-.877-2.752,4.864,4.864,0,0,0-2.268-1.731,4.769,4.769,0,0,0-3.616,8.817,4.861,4.861,0,0,0,2.958.335,4.793,4.793,0,0,0,3.735-3.9,5.336,5.336,0,0,0,.065-.767.371.371,0,1,0-.743,0Z" transform="translate(-276.568 -277.171)" fill="#3f3f3f"/>
  </g>
</svg>
