<svg xmlns="http://www.w3.org/2000/svg" width="20" height="20" viewBox="0 0 20 20">
  <path id="image" d="M19,2H5A3,3,0,0,0,2,5V19a3,3,0,0,0,3,3H19a2.973,2.973,0,0,0,.54-.055c.066-.012.129-.03.194-.047a2.971,2.971,0,0,0,.312-.1c.074-.028.147-.057.219-.091s.164-.085.244-.133.151-.086.222-.136l.018-.011.021-.018a.487.487,0,0,0,.043-.029c.007-.007.009-.016.015-.022A2.987,2.987,0,0,0,22,19V5A3,3,0,0,0,19,2Zm.575,18.905A1.95,1.95,0,0,1,19,21H5a2,2,0,0,1-2-2V14.275l3.763-3.763a1.753,1.753,0,0,1,2.475,0l3.4,3.4,0,.007,6.969,6.969ZM21,19a1.988,1.988,0,0,1-.523,1.337l-6.768-6.768,1.056-1.055a1.787,1.787,0,0,1,2.473,0L21,16.277Zm0-4.137-3.057-3.057a2.75,2.75,0,0,0-3.887,0L13,12.862,9.944,9.806a2.753,2.753,0,0,0-3.889,0L3,12.861V5A2,2,0,0,1,5,3H19a2,2,0,0,1,2,2ZM13.5,6A1.5,1.5,0,1,0,15,7.5,1.5,1.5,0,0,0,13.5,6Zm0,2a.5.5,0,1,1,.5-.5A.5.5,0,0,1,13.5,8Z" transform="translate(-2 -2)" fill="#d4d9e6"/>
</svg>
