<?xml version="1.0" encoding="UTF-8"?>
<svg width="16px" height="16px" viewBox="0 0 22 22" version="1.1" xmlns="http://www.w3.org/2000/svg" xmlns:xlink="http://www.w3.org/1999/xlink">
    <title>27785B79-9C26-4986-9E5D-B52307A93236</title>
    <g id="Page-1" stroke="none" stroke-width="1" fill="none" fill-rule="evenodd">
        <g id="Menu" transform="translate(-850.000000, -836.000000)" fill="#fff">
            <g id="Social-Media" transform="translate(808.000000, 836.000000)">
                <g id="Insta-icon" transform="translate(42.000000, 0.000000)">
                    <path d="M6.11111111,0 C2.73655556,0 0,2.73655556 0,6.11111111 L0,15.8888889 C0,19.2634444 2.73655556,22 6.11111111,22 L15.8888889,22 C19.2634444,22 22,19.2634444 22,15.8888889 L22,6.11111111 C22,2.73655556 19.2634444,0 15.8888889,0 L6.11111111,0 Z M18.3333333,2.44444444 C19.008,2.44444444 19.5555556,2.992 19.5555556,3.66666667 C19.5555556,4.34133333 19.008,4.88888889 18.3333333,4.88888889 C17.6586667,4.88888889 17.1111111,4.34133333 17.1111111,3.66666667 C17.1111111,2.992 17.6586667,2.44444444 18.3333333,2.44444444 Z M11,4.88888889 C14.3745556,4.88888889 17.1111111,7.62544444 17.1111111,11 C17.1111111,14.3745556 14.3745556,17.1111111 11,17.1111111 C7.62544444,17.1111111 4.88888889,14.3745556 4.88888889,11 C4.88888889,7.62544444 7.62544444,4.88888889 11,4.88888889 Z M11,7.33333333 C8.97495592,7.33333333 7.33333333,8.97495592 7.33333333,11 C7.33333333,13.0250441 8.97495592,14.6666667 11,14.6666667 C13.0250441,14.6666667 14.6666667,13.0250441 14.6666667,11 C14.6666667,8.97495592 13.0250441,7.33333333 11,7.33333333 Z" id="Shape"></path>
                </g>
            </g>
        </g>
    </g>
</svg>