<?xml version="1.0" encoding="UTF-8"?>
<svg width="20px" height="20px" viewBox="0 0 20 20" version="1.1" xmlns="http://www.w3.org/2000/svg" xmlns:xlink="http://www.w3.org/1999/xlink">
    <title>645B7A75-8661-475E-BCD8-83ADC5EDFACE</title>
    <g id="Page-1" stroke="none" stroke-width="1" fill="none" fill-rule="evenodd">
        <g id="Menu" transform="translate(-1390.000000, -30.000000)" fill="#2D2D2D">
            <g transform="translate(1360.000000, 0.000000)" id="4.-Icons-/-b.Others-/-Not-Available">
                <g transform="translate(30.000000, 30.000000)">
                    <path d="M11.9275625,10.0017391 L19.5985255,2.33277166 C20.1354607,1.79591886 20.1321865,0.935809989 19.5985255,0.401412308 C19.0640466,-0.135439724 18.203805,-0.128893 17.6701448,0.401412308 L10,8.07038048 L2.3298554,0.401412308 C1.79292099,-0.135439724 0.932679354,-0.132165978 0.40147391,0.401412308 C-0.135460509,0.939082967 -0.132186261,1.79837398 0.40147391,2.33277166 L8.07243697,10.0017391 L0.40147391,17.6674335 C-0.135460509,18.2042855 -0.132186261,19.0643951 0.40147391,19.5979734 C0.935953602,20.1356441 1.79619447,20.1323711 2.3298554,19.5979734 L10,11.929006 L17.6701448,19.5979734 C18.2070792,20.1356441 19.0673208,20.1323711 19.5985255,19.5979734 C20.1354607,19.0611214 20.1321865,18.2010118 19.5985255,17.6674335 L11.9275625,10.0017391 Z"></path>
                </g>
            </g>
        </g>
    </g>
</svg>