<?xml version="1.0" encoding="UTF-8"?>
<svg width="11px" height="18px" viewBox="0 0 11 18" version="1.1" xmlns="http://www.w3.org/2000/svg" xmlns:xlink="http://www.w3.org/1999/xlink">
    <title>DA2AC53A-0EBD-4DE0-B389-06A497FEDE10</title>
    <g id="Page-1" stroke="none" stroke-width="1" fill="none" fill-rule="evenodd">
        <g id="Contact-us" transform="translate(-457.000000, -833.000000)" fill="#3A3F47" fill-rule="nonzero">
            <g id="Group-2" transform="translate(439.000000, 819.000000)">
                <path d="M26.6966561,32 C27.3856157,32 27.9417463,31.79442 28.3650478,31.3832599 C28.7883493,30.9720999 29,30.4287812 29,29.753304 L29,16.246696 C29,15.5770925 28.7883493,15.0352423 28.3650478,14.6211454 C27.9417463,14.2070485 27.3856157,14 26.6966561,14 L20.3383758,14 C19.6377389,14 19.0728503,14.2070485 18.6437102,14.6211454 C18.2145701,15.0352423 18,15.5770925 18,16.246696 L18,29.7621145 C18,30.4317181 18.2145701,30.9720999 18.6437102,31.3832599 C19.0728503,31.79442 19.6377389,32 20.3383758,32 L26.6966561,32 Z M24.8136943,15.8942731 L22.2038217,15.8942731 C22.1045648,15.8942731 22.0242834,15.8634361 21.9629777,15.8017621 C21.901672,15.7400881 21.8710191,15.6593245 21.8710191,15.5594714 C21.8710191,15.4537445 21.901672,15.3700441 21.9629777,15.30837 C22.0242834,15.246696 22.1045648,15.215859 22.2038217,15.215859 L24.8136943,15.215859 C24.9071125,15.215859 24.9844745,15.246696 25.0457803,15.30837 C25.107086,15.3700441 25.1377389,15.4537445 25.1377389,15.5594714 C25.1377389,15.6593245 25.107086,15.7400881 25.0457803,15.8017621 C24.9844745,15.8634361 24.9071125,15.8942731 24.8136943,15.8942731 Z M27.5023885,28.9955947 L19.5151274,28.9955947 L19.5151274,17.0132159 L27.5023885,17.0132159 L27.5023885,28.9955947 Z M23.508758,31.1189427 C23.3044055,31.1189427 23.1292463,31.0455213 22.9832803,30.8986784 C22.8373142,30.7518355 22.7643312,30.5726872 22.7643312,30.3612335 C22.7643312,30.1556535 22.8373142,29.979442 22.9832803,29.8325991 C23.1292463,29.6857562 23.3044055,29.6123348 23.508758,29.6123348 C23.718949,29.6123348 23.8955679,29.6857562 24.0386146,29.8325991 C24.1816614,29.979442 24.2531847,30.1556535 24.2531847,30.3612335 C24.2531847,30.5726872 24.1816614,30.7518355 24.0386146,30.8986784 C23.8955679,31.0455213 23.718949,31.1189427 23.508758,31.1189427 Z" id="ô€Ÿ"></path>
            </g>
        </g>
    </g>
</svg>