<?xml version="1.0" encoding="UTF-8"?>
<svg width="19px" height="21px" viewBox="0 0 19 21" version="1.1" xmlns="http://www.w3.org/2000/svg" xmlns:xlink="http://www.w3.org/1999/xlink">
    <title>225DAF46-4508-4BAC-B58B-EDEF5967244F</title>
    <g id="Page-1" stroke="none" stroke-width="1" fill="none" fill-rule="evenodd">
        <g id="Sparkle-of-Hope" transform="translate(-1097.000000, -1206.000000)" fill="#1E22AA" fill-rule="nonzero">
            <g id="Newsletter" transform="translate(189.000000, 450.000000)">
                <g id="Side" transform="translate(894.000000, 174.000000)">
                    <g id="Group-3" transform="translate(0.000000, 556.000000)">
                        <g id="noun_Survey_1868399" transform="translate(14.000000, 26.000000)">
                            <path d="M5.9375,4.66666667 L13.0625,4.66666667 C13.7183381,4.66666667 14.25,4.14433221 14.25,3.5 L14.25,2.33333333 L11.875,2.33333333 C11.875,1.04466892 10.8116763,0 9.5,0 C8.18832372,0 7.125,1.04466892 7.125,2.33333333 L4.75,2.33333333 L4.75,3.5 C4.75,4.14433221 5.28166186,4.66666667 5.9375,4.66666667 Z" id="Path"></path>
                            <path d="M16.03125,2.39215667 C17.743088,2.67359189 18.9979495,4.12814354 19,5.83333333 L19,5.83333333 L19,17.5 C19,19.4329966 17.4050144,21 15.4375,21 L15.4375,21 L3.5625,21 C1.59498558,21 0,19.4329966 0,17.5 L0,17.5 L0,5.83333333 C0.00205049925,4.12814354 1.25691203,2.67359189 2.96875,2.39215667 L2.96875,2.39215667 L2.96875,3.5 C2.97064772,5.11005762 4.29869135,6.41480224 5.9375,6.41666667 L5.9375,6.41666667 L13.0625,6.41666667 C14.7013086,6.41480224 16.0293523,5.11005762 16.03125,3.5 L16.03125,3.5 Z M13.25,15 L5.25,15 C4.55964406,15 4,15.5596441 4,16.25 C4,16.9403559 4.55964406,17.5 5.25,17.5 L5.25,17.5 L13.25,17.5 C13.9403559,17.5 14.5,16.9403559 14.5,16.25 C14.5,15.5596441 13.9403559,15 13.25,15 L13.25,15 Z M13.25,10 L5.25,10 C4.55964406,10 4,10.5596441 4,11.25 C4,11.9403559 4.55964406,12.5 5.25,12.5 L5.25,12.5 L13.25,12.5 C13.9403559,12.5 14.5,11.9403559 14.5,11.25 C14.5,10.5596441 13.9403559,10 13.25,10 L13.25,10 Z" id="Combined-Shape"></path>
                        </g>
                    </g>
                </g>
            </g>
        </g>
    </g>
</svg>