<?xml version="1.0" encoding="UTF-8"?>
<svg width="38px" height="38px" fill="#3a3f47" version="1.1" viewBox="0 0 700 700" xmlns="http://www.w3.org/2000/svg" xmlns:xlink="http://www.w3.org/1999/xlink">
 
 <g>
  <path d="m469.67 126.11c1.207-19.668-5.7734-38.957-19.285-53.297-13.516-14.34-32.355-22.453-52.059-22.418h-147.67c-2.7031-0.054688-5.0586 1.832-5.6016 4.4805l-74.254 373.35c-0.33984 1.668 0.09375 3.4023 1.1836 4.707 1.0898 1.3086 2.7148 2.0508 4.4141 2.0156h67.203l-13.387 67.926c-0.32422 1.6484 0.10938 3.3555 1.1758 4.6484 1.0547 1.3008 2.6367 2.0625 4.3125 2.0742h74.703c2.707 0.054688 5.0625-1.832 5.6016-4.4805l28.953-144.87 61.039-0.003906c25.988-0.039063 51.168-9.0547 71.27-25.527 20.105-16.469 33.898-39.383 39.051-64.855l11.871-59.246c3.8125-19.008-0.26953-38.746-11.309-54.684-11.035-15.938-28.078-26.703-47.211-29.82zm-286.83 297.64 72.406-362.15h143.08c16.551-0.011718 32.375 6.7891 43.762 18.801 11.387 12.012 17.332 28.176 16.438 44.703 0 1.8477-0.33594 3.6953-0.61719 5.6016-0.28125 1.9023 0 2.0703-0.44922 3.0781l-0.50391 2.5195-11.199 56.727h0.003907c-4.6484 22.945-17.082 43.574-35.199 58.402-18.113 14.828-40.793 22.941-64.203 22.965h-65.801c-2.7031-0.054688-5.0586 1.832-5.5977 4.4805l-28.898 144.88zm334.38-215.32-11.871 59.246c-4.6367 22.938-17.059 43.57-35.164 58.398-18.105 14.828-40.777 22.941-64.18 22.969h-65.742c-2.7227-0.046875-5.0859 1.8672-5.6016 4.5391l-28.84 144.81h-63.281l13.609-67.871 29.008-144.93h61.207c25.938-0.11719 51.047-9.168 71.09-25.633 20.043-16.461 33.801-39.332 38.949-64.754l11.816-58.016c16.051 2.7422 30.312 11.855 39.543 25.27 9.2266 13.418 12.637 29.992 9.457 45.965z"/>
  <use x="70" y="644" xlink:href="#v"/>
  <use x="90.550781" y="644" xlink:href="#b"/>
  <use x="104.359375" y="644" xlink:href="#a"/>
  <use x="123.347656" y="644" xlink:href="#f"/>
  <use x="142.242188" y="644" xlink:href="#c"/>
  <use x="155.628906" y="644" xlink:href="#a"/>
  <use x="174.617188" y="644" xlink:href="#k"/>
  <use x="204.410156" y="644" xlink:href="#e"/>
  <use x="224.453125" y="644" xlink:href="#j"/>
  <use x="252.453125" y="644" xlink:href="#i"/>
  <use x="270.292969" y="644" xlink:href="#f"/>
  <use x="289.1875" y="644" xlink:href="#b"/>
  <use x="302.996094" y="644" xlink:href="#h"/>
  <use x="329.410156" y="644" xlink:href="#u"/>
  <use x="357.273438" y="644" xlink:href="#a"/>
  <use x="376.265625" y="644" xlink:href="#t"/>
  <use x="385.859375" y="644" xlink:href="#a"/>
  <use x="404.851562" y="644" xlink:href="#b"/>
  <use x="418.660156" y="644" xlink:href="#c"/>
  <use x="432.046875" y="644" xlink:href="#d"/>
  <use x="451.28125" y="644" xlink:href="#e"/>
  <use x="471.324219" y="644" xlink:href="#a"/>
  <use x="490.3125" y="644" xlink:href="#b"/>
  <use x="504.125" y="644" xlink:href="#a"/>
  <use x="523.113281" y="644" xlink:href="#g"/>
  <use x="543.046875" y="644" xlink:href="#h"/>
  <use x="70" y="672" xlink:href="#s"/>
  <use x="82.183594" y="672" xlink:href="#b"/>
  <use x="95.992188" y="672" xlink:href="#d"/>
  <use x="115.226562" y="672" xlink:href="#r"/>
  <use x="154.152344" y="672" xlink:href="#c"/>
  <use x="167.535156" y="672" xlink:href="#q"/>
  <use x="187.46875" y="672" xlink:href="#a"/>
  <use x="216.207031" y="672" xlink:href="#p"/>
  <use x="239.640625" y="672" xlink:href="#d"/>
  <use x="258.878906" y="672" xlink:href="#o"/>
  <use x="278.8125" y="672" xlink:href="#g"/>
  <use x="308.492188" y="672" xlink:href="#n"/>
  <use x="329.015625" y="672" xlink:href="#b"/>
  <use x="342.820312" y="672" xlink:href="#d"/>
  <use x="362.058594" y="672" xlink:href="#m"/>
  <use x="371.65625" y="672" xlink:href="#a"/>
  <use x="390.648438" y="672" xlink:href="#l"/>
  <use x="407.242188" y="672" xlink:href="#c"/>
 </g>
</svg>
