<?xml version="1.0" encoding="UTF-8"?>
<svg width="18px" height="18px" viewBox="0 0 18 18" version="1.1" xmlns="http://www.w3.org/2000/svg" xmlns:xlink="http://www.w3.org/1999/xlink">
    <title>9C6A33D0-1779-42B9-BAA9-658913FBA3D9</title>
    <g id="Page-1" stroke="none" stroke-width="1" fill="none" fill-rule="evenodd">
        <g id="Contact-us" transform="translate(-174.000000, -833.000000)" fill="#3A3F47" fill-rule="nonzero">
            <g id="Group-2" transform="translate(160.000000, 819.000000)">
                <path d="M27.978125,32 C29.215625,32 30.3125,31.5598335 31.19375,30.5952133 C31.7,30.0239334 32,29.3777315 32,28.7315297 C32,28.1977107 31.803125,27.6919875 31.296875,27.3361082 L28.409375,25.2851197 C27.95,24.9573361 27.565625,24.8074922 27.21875,24.8074922 C26.76875,24.8074922 26.375,25.0603538 25.934375,25.5005203 L25.240625,26.1841831 C25.1375,26.2872008 25.00625,26.3246618 24.875,26.3246618 C24.734375,26.3246618 24.584375,26.2684703 24.48125,26.2122789 C23.890625,25.8844953 22.859375,25.0041623 21.9125,24.0676379 C20.975,23.1217482 20.084375,22.1009365 19.765625,21.5015609 C19.709375,21.3985432 19.653125,21.2486993 19.653125,21.1082206 C19.653125,20.9864724 19.690625,20.855359 19.79375,20.7523413 L20.478125,20.049948 C20.91875,19.6097815 21.171875,19.2164412 21.171875,18.7669095 C21.171875,18.4203954 21.021875,18.0364204 20.69375,17.5775234 L18.65,14.7117586 C18.29375,14.2154006 17.76875,14 17.215625,14 C16.578125,14 15.93125,14.2715921 15.36875,14.805411 C14.421875,15.6951093 14,16.8002081 14,18.0364204 C14,20.817898 16.146875,24.1987513 18.959375,27.0083247 C21.78125,29.8272633 25.19375,32 27.978125,32 Z" id="􀌿"></path>
            </g>
        </g>
    </g>
</svg>