<?xml version="1.0" encoding="UTF-8"?>
<svg width="18px" height="18px" viewBox="0 0 18 18" version="1.1" xmlns="http://www.w3.org/2000/svg" xmlns:xlink="http://www.w3.org/1999/xlink">
    <title>18C0A135-318E-46EE-83AF-23C12DB16D30</title>
    <g id="Page-1" stroke="none" stroke-width="1" fill="none" fill-rule="evenodd">
        <g id="Emails-Listing" transform="translate(-1239.000000, -247.000000)" fill="#FFFFFF" fill-rule="nonzero">
            <g id="Buttons-/-Add-Item" transform="translate(1219.000000, 238.000000)">
                <g id="Shape">
                    <path d="M35.3650602,11.6349398 C31.8518072,8.12168675 26.1481928,8.12168675 22.6349398,11.6349398 C19.1216867,15.1481928 19.1216867,20.8518072 22.6349398,24.3650602 C26.1481928,27.8783133 31.8518072,27.8783133 35.3650602,24.3650602 C38.8783133,20.8518072 38.8783133,15.126506 35.3650602,11.6349398 Z M33.0879518,18.5096386 C32.9578313,18.639759 32.7626506,18.726506 32.5674699,18.726506 L29.7481928,18.726506 L29.7481928,21.5457831 C29.7481928,21.7409639 29.6614458,21.9361446 29.5313253,22.0662651 C29.4012048,22.1963855 29.2060241,22.2831325 29.0108434,22.2831325 C28.5987952,22.2831325 28.273494,21.9578313 28.273494,21.5457831 L28.273494,18.726506 L25.4542169,18.726506 C25.0421687,18.726506 24.7168675,18.4012048 24.7168675,17.9891566 C24.7168675,17.5771084 25.0421687,17.2518072 25.4542169,17.2518072 L28.273494,17.2518072 L28.273494,14.4325301 C28.273494,14.0204819 28.5987952,13.6951807 29.0108434,13.6951807 L29.0108434,13.6951807 C29.4228916,13.6951807 29.7481928,14.0204819 29.7481928,14.4325301 L29.7481928,17.2518072 L32.5674699,17.2518072 C32.9795181,17.2518072 33.3048193,17.5771084 33.3048193,17.9891566 C33.2831325,18.1843373 33.2180723,18.3795181 33.0879518,18.5096386 Z"></path>
                </g>
            </g>
        </g>
    </g>
</svg>