<?xml version="1.0" encoding="UTF-8"?>
<svg width="20px" height="20px" viewBox="0 0 20 20" version="1.1" xmlns="http://www.w3.org/2000/svg" xmlns:xlink="http://www.w3.org/1999/xlink">
    <title>16227041-C419-4F40-892A-7A38DF87309D</title>
    <g id="Page-1" stroke="none" stroke-width="1" fill="none" fill-rule="evenodd">
        <g id="Homepage" transform="translate(-187.000000, -31.000000)" fill="#ffffff">
            <g id="Secondary-Nav" transform="translate(80.000000, 30.000000)">
                <g id="Profile" transform="translate(107.000000, 1.000000)">
                    <path d="M10.007658,10.6673634 C7.79851903,10.6673634 6.00765803,8.87650243 6.00765803,6.66736344 C6.00765803,4.45822444 7.79851903,2.66736344 10.007658,2.66736344 C12.216797,2.66736344 14.007658,4.45822444 14.007658,6.66736344 C14.007658,7.72822939 13.5862307,8.74564505 12.8360852,9.49579056 C12.0859396,10.2459361 11.068524,10.6673634 10.007658,10.6673634 Z M10.007658,4.00069677 C8.53489869,4.00069677 7.34099136,5.1946041 7.34099136,6.66736344 C7.34099136,8.14012277 8.53489869,9.3340301 10.007658,9.3340301 C11.4804174,9.3340301 12.6743247,8.14012277 12.6743247,6.66736344 C12.6743247,5.96011946 12.3933731,5.28184236 11.8932761,4.78174535 C11.3931791,4.28164834 10.714902,4.00069677 10.007658,4.00069677 Z" id="Shape"></path>
                    <path d="M10.007658,20.0006968 C7.01411043,19.9987014 4.1789003,18.6557071 2.28099136,16.3406968 L1.93432469,15.9140301 L2.28099136,15.4940301 C4.18047782,13.1820543 7.01545469,11.8421497 10.007658,11.8421497 C12.9998614,11.8421497 15.8348382,13.1820543 17.7343247,15.4940301 L18.0809914,15.9140301 L17.7343247,16.3406968 C15.8364158,18.6557071 13.0012056,19.9987014 10.007658,20.0006968 L10.007658,20.0006968 Z M3.68099136,15.9206968 C5.3199576,17.6752572 7.61334726,18.6712837 10.0143247,18.6712837 C12.4153021,18.6712837 14.7086918,17.6752572 16.347658,15.9206968 C14.7086918,14.1661363 12.4153021,13.1701099 10.0143247,13.1701099 C7.61334726,13.1701099 5.3199576,14.1661363 3.68099136,15.9206968 L3.68099136,15.9206968 Z" id="Shape"></path>
                    <path d="M10.007658,20.000699 C5.32885391,20.0038155 1.27334201,16.7623065 0.245347144,12.1978302 C-0.782647721,7.63335382 1.4917157,2.9662532 5.72012897,0.963320601 C9.94854223,-1.039612 15.0005109,0.157120771 17.8810819,3.84406109 C20.7616528,7.5310014 20.7006861,12.7224213 17.7343247,16.3406968 C15.8364158,18.6557071 13.0012056,19.9987014 10.007658,20.000699 Z M10.007658,1.3340301 C5.2211902,1.3340301 1.34099136,5.21422894 1.34099136,10.0006968 C1.34099136,14.7871646 5.2211902,18.6673634 10.007658,18.6673634 C14.7941259,18.6673634 18.6743247,14.7871646 18.6743247,10.0006968 C18.6743247,7.70215386 17.7612321,5.49775328 16.1359168,3.872438 C14.5106015,2.24712272 12.3062009,1.3340301 10.007658,1.3340301 Z" id="Shape"></path>
                </g>
            </g>
        </g>
    </g>
</svg>