<?xml version="1.0" encoding="UTF-8"?>
<svg width="16px" height="16px" viewBox="0 0 16 16" version="1.1" xmlns="http://www.w3.org/2000/svg" xmlns:xlink="http://www.w3.org/1999/xlink">
    <title>DF5DBB02-CC6B-4337-BDB6-D4CC41006701</title>
    <g id="Page-1" stroke="none" stroke-width="1" fill="none" fill-rule="evenodd">
        <g id="Emails-Listing" transform="translate(-100.000000, -399.000000)" fill="#585858">
            <g id="Filters-+-Search" transform="translate(80.000000, 369.000000)">
                <g id="Search" transform="translate(20.000000, 28.000000)">
                    <g id="4.-Icons-/-a.Text-Field--/-Search" transform="translate(0.000000, 2.000000)">
                        <path d="M15.7832712,14.6156406 L12.7972469,11.6605657 C15.0634261,8.83860233 14.8501386,4.68552413 12.2640283,2.1031614 C10.9043208,0.745424293 9.11803845,0 7.1984514,0 C5.27886436,0 3.46592105,0.745424293 2.10621356,2.1031614 C0.746506072,3.4608985 0,5.24459235 0,7.18801997 C0,9.13144759 0.746506072,10.9151414 2.10621356,12.2728785 C3.46592105,13.6039933 5.25220343,14.3760399 7.1984514,14.3760399 C8.8247682,14.3760399 10.4244241,13.8169717 11.6774878,12.8053245 L14.6368512,15.7603993 C14.7968168,15.9201331 14.9834433,16 15.1967307,16 C15.4100182,16 15.6233056,15.9201331 15.7566103,15.7603993 C16.0765415,15.4409318 16.0765415,14.9351082 15.7832712,14.6156406 Z M12.7972469,7.18801997 C12.7972469,8.67886855 12.2107065,10.0898502 11.1442692,11.1281198 C10.077832,12.1663894 8.69146355,12.7787022 7.1984514,12.7787022 C5.70543926,12.7787022 4.29240991,12.1930116 3.2526336,11.1281198 C2.21285728,10.063228 1.59965587,8.67886855 1.59965587,7.18801997 C1.59965587,5.69717138 2.18619635,4.28618968 3.2526336,3.24792013 C4.31907084,2.20965058 5.67877833,1.59733777 7.1984514,1.59733777 C8.69146355,1.59733777 10.1044929,2.18302829 11.1442692,3.24792013 C12.1840455,4.31281198 12.7972469,5.67054908 12.7972469,7.18801997 Z" id="Shape"></path>
                    </g>
                </g>
            </g>
        </g>
    </g>
</svg>