<?xml version="1.0" encoding="UTF-8"?>
<svg width="15px" height="22px" viewBox="0 0 15 22" version="1.1" xmlns="http://www.w3.org/2000/svg" xmlns:xlink="http://www.w3.org/1999/xlink">
    <title>278F168B-22EF-46B5-88F9-1577E2ACAEB0</title>
    <g id="Page-1" stroke="none" stroke-width="1" fill="none" fill-rule="evenodd">
        <g id="Sparkle-of-Hope" transform="translate(-1097.000000, -1066.000000)" fill="#722F84" fill-rule="nonzero">
            <g id="Newsletter" transform="translate(189.000000, 450.000000)">
                <g id="Side" transform="translate(894.000000, 174.000000)">
                    <g id="Group-3" transform="translate(0.000000, 417.000000)">
                        <path d="M24.5785023,28.4804511 C24.5785023,28.3750481 24.5785023,28.2700474 24.5675412,28.1578053 C24.5785023,28.2615991 24.5785023,28.3674044 24.5785023,28.4804511 Z M24.2329668,25.9849747 C29.7730183,29.8120692 27.8156796,34.002442 24.2329668,38.135688 C25.6887049,39.653974 27.3229522,41.2277776 29,42.8908921 C27.9722667,44.9406184 27.689888,45.3771156 26.9570603,47 C25.5738743,45.085447 23.5105783,43.0843992 21.5104391,41.0491557 C19.4988169,43.0848015 17.434999,45.085447 16.0533788,47 C15.3085462,45.3771156 15.0266894,44.9406184 14,42.8908921 C15.686965,41.2273753 17.3097293,39.653974 18.7654673,38.135688 C15.1519591,33.9618095 13.1831373,29.7312066 18.9335375,25.8646865 C18.9225764,25.9125604 18.9011761,25.9539974 18.8802979,26.0018713 C18.9538938,25.9049167 18.9846893,25.8646865 18.9335375,25.8646865 C21.6033475,24.1528935 23.5424177,25.4366377 24.0962141,25.8731348 C24.0857749,25.8731348 24.0763797,25.8646865 24.0659406,25.8646865 C24.1071752,25.8964683 24.1499756,25.921411 24.1912102,25.9539974 L24.2016494,25.9539974 C24.2016494,25.9616412 24.2016494,25.9616412 24.2126105,25.9616412 C24.2126105,25.9692849 24.2329668,25.9773309 24.2329668,25.9849747 Z M18.4517712,28.8674652 C18.6391537,30.8701222 19.7811956,32.9037565 21.5,35.0435984 C23.3117127,32.7834683 24.4845501,30.6271321 24.5785023,28.5206812 C24.4542766,28.4884971 21.1435034,27.6408478 18.4517712,28.8598214 L18.4517712,28.8674652 L18.4517712,28.8674652 Z" id="Shape"></path>
                    </g>
                </g>
            </g>
        </g>
    </g>
</svg>