<?xml version="1.0" encoding="UTF-8"?>
<svg width="700pt" height="700pt" fill="#3a3f47"  version="1.1" viewBox="0 0 700 700" xmlns="http://www.w3.org/2000/svg" xmlns:xlink="http://www.w3.org/1999/xlink">
  <g>
  <path d="m437.36 56h-174.73c-16.543 0-30 13.457-30 30v388c0 16.547 13.457 30.004 30 30.004h174.73c16.543 0 30-13.457 30-30v-388c0-16.543-13.457-30-30-30zm-193.53 62.074h212.33v282.91l-212.33 0.003907zm18.801-50.875h174.73c10.367 0 18.801 8.4336 18.801 18.801v20.875h-212.33v-20.875c0-10.367 8.4336-18.801 18.801-18.801zm174.73 425.6h-174.73c-10.367 0-18.801-8.4336-18.801-18.801v-61.809h212.33v61.809c0 10.367-8.4336 18.801-18.801 18.801z"/>
  <path d="m350 427.4c-14.332 0-25.992 11.664-25.992 26 0 14.332 11.66 25.992 25.992 25.992s25.992-11.66 25.992-25.992c0-14.336-11.66-26-25.992-26zm0 40.793c-8.1602 0-14.793-6.6328-14.793-14.793 0-8.1602 6.6328-14.801 14.793-14.801s14.793 6.6406 14.793 14.797c0 8.1641-6.6328 14.797-14.793 14.797z"/>
  <path d="m433.53 238.22c-0.58594-1.8047-2.0469-3.1953-3.8828-3.6797l-47.934-12.797-27.02-41.457c-2.0664-3.1719-7.3164-3.1719-9.3828 0l-27.02 41.457-47.934 12.797c-1.8359 0.48828-3.2969 1.875-3.8828 3.6797-0.58594 1.8047-0.21875 3.7852 0.98047 5.2617l31.227 38.406-2.6016 49.355c-0.097656 1.8906 0.76562 3.707 2.3008 4.8242 1.5273 1.1094 3.5117 1.3828 5.293 0.69922l46.324-17.723 46.332 17.723c0.65234 0.25 1.3281 0.37109 2 0.37109 1.1641 0 2.3242-0.36719 3.293-1.0703 1.5352-1.1172 2.4023-2.9297 2.3008-4.8242l-2.6016-49.355 31.227-38.406c1.1992-1.4766 1.5625-3.457 0.98047-5.2617zm-42.258 38.277c-0.875 1.0781-1.3164 2.4375-1.2461 3.8281l2.2656 42.906-40.289-15.41c-0.64844-0.24609-1.3242-0.37109-2.0039-0.37109s-1.3555 0.125-2 0.37109l-40.289 15.41 2.2656-42.906c0.070313-1.3906-0.37109-2.75-1.2461-3.8281l-27.129-33.371 41.648-11.117c1.3359-0.35547 2.4922-1.1914 3.25-2.3516l23.5-36.062 23.504 36.062c0.75391 1.1602 1.9141 1.9961 3.25 2.3516l41.648 11.117z"/>
  <use x="70" y="644" xlink:href="#t"/>
  <use x="90.550781" y="644" xlink:href="#e"/>
  <use x="104.359375" y="644" xlink:href="#a"/>
  <use x="123.347656" y="644" xlink:href="#d"/>
  <use x="142.242188" y="644" xlink:href="#c"/>
  <use x="155.628906" y="644" xlink:href="#a"/>
  <use x="174.617188" y="644" xlink:href="#b"/>
  <use x="204.410156" y="644" xlink:href="#i"/>
  <use x="224.453125" y="644" xlink:href="#h"/>
  <use x="252.453125" y="644" xlink:href="#g"/>
  <use x="280.3125" y="644" xlink:href="#d"/>
  <use x="299.210938" y="644" xlink:href="#b"/>
  <use x="319.25" y="644" xlink:href="#a"/>
  <use x="347.992188" y="644" xlink:href="#s"/>
  <use x="375.796875" y="644" xlink:href="#g"/>
  <use x="403.664062" y="644" xlink:href="#d"/>
  <use x="422.554688" y="644" xlink:href="#b"/>
  <use x="442.601562" y="644" xlink:href="#a"/>
  <use x="70" y="672" xlink:href="#r"/>
  <use x="82.183594" y="672" xlink:href="#e"/>
  <use x="95.992188" y="672" xlink:href="#f"/>
  <use x="115.226562" y="672" xlink:href="#q"/>
  <use x="154.152344" y="672" xlink:href="#c"/>
  <use x="167.535156" y="672" xlink:href="#p"/>
  <use x="187.46875" y="672" xlink:href="#a"/>
  <use x="216.207031" y="672" xlink:href="#o"/>
  <use x="239.640625" y="672" xlink:href="#f"/>
  <use x="258.878906" y="672" xlink:href="#n"/>
  <use x="278.8125" y="672" xlink:href="#m"/>
  <use x="308.492188" y="672" xlink:href="#l"/>
  <use x="329.015625" y="672" xlink:href="#e"/>
  <use x="342.820312" y="672" xlink:href="#f"/>
  <use x="362.058594" y="672" xlink:href="#k"/>
  <use x="371.65625" y="672" xlink:href="#a"/>
  <use x="390.648438" y="672" xlink:href="#j"/>
  <use x="407.242188" y="672" xlink:href="#c"/>
 </g>
</svg>
