<?xml version="1.0" encoding="UTF-8"?>
<svg width="15px" height="16px" viewBox="0 0 15 16" version="1.1" xmlns="http://www.w3.org/2000/svg" xmlns:xlink="http://www.w3.org/1999/xlink">
    <title>46BFDFBB-C6A9-4253-B601-334815A47737</title>
    <g id="Page-1" stroke="none" stroke-width="1" fill="none" fill-rule="evenodd">
        <g id="Files-Details---General-Info" transform="translate(-1162.000000, -248.000000)" fill="#585858" fill-rule="nonzero">
            <g id="Delete" transform="translate(1142.000000, 238.000000)">
                <path d="M33.6303803,13.3260341 L33.6303803,23.7372263 C33.6303803,24.9781022 32.5773088,26 31.2985792,26 L23.7039281,26 C22.4226912,26 21.3696197,24.9781022 21.3696197,23.7372263 L21.3696197,13.3260341 L20.5396991,13.3260341 C19.8201003,13.3260341 19.8201003,12.2652068 20.5396991,12.2652068 L24.7996239,12.2652068 L24.7996239,11.2481752 C24.7996239,10.5839416 25.3361889,10 26.0357292,10 L28.9667781,10 C29.6638111,10 30.2028834,10.5863747 30.2028834,11.2481752 L30.2028834,12.2652068 L34.4603009,12.2652068 C35.1798997,12.2652068 35.1798997,13.3260341 34.4603009,13.3260341 L33.6303803,13.3260341 Z M25.8928124,12.2652068 L29.1071876,12.2652068 L29.1071876,11.2481752 C29.1071876,11.1703163 29.0595487,11.0608273 28.9667781,11.0608273 L26.0357292,11.0608273 C25.9404513,11.0608273 25.8928124,11.1703163 25.8928124,11.2481752 L25.8928124,12.2652068 Z M29.8819473,21.9756691 C29.8819473,22.6715328 28.7887589,22.6715328 28.7887589,21.9756691 L28.7887589,16.1995134 C28.7887589,15.5036496 29.8819473,15.5036496 29.8819473,16.1995134 L29.8819473,21.9756691 Z M26.2112411,21.9756691 C26.2112411,22.6715328 25.1180527,22.6715328 25.1180527,21.9756691 L25.1180527,16.1995134 C25.1180527,15.5036496 26.2112411,15.5012165 26.2112411,16.1995134 L26.2112411,21.9756691 Z M32.5371918,13.3260341 C29.1798997,13.3260341 25.8226076,13.3260341 22.4653155,13.3260341 L22.4653155,23.7372263 C22.4653155,24.3990268 23.0194317,24.9391727 23.7039281,24.9391727 L31.2985792,24.9391727 C31.9805683,24.9391727 32.5371918,24.3990268 32.5371918,23.7372263 L32.5371918,13.3260341 Z" id="Shape"></path>
            </g>
        </g>
    </g>
</svg>