<?xml version="1.0" encoding="UTF-8"?>
<svg width="20px" height="20px" viewBox="0 0 20 20" version="1.1" xmlns="http://www.w3.org/2000/svg" xmlns:xlink="http://www.w3.org/1999/xlink">
    <title>AE166CC0-0634-4D1B-B5CB-1D8F0C0F2D84</title>
    <g id="Page-1" stroke="none" stroke-width="1" fill="none" fill-rule="evenodd" opacity="0.8">
        <g id="Careers" transform="translate(-1240.000000, -2065.000000)" fill="#3A3F47" fill-rule="nonzero">
            <g id="Form" transform="translate(752.000000, 1345.000000)">
                <g id="Group" transform="translate(0.000000, 680.000000)">
                    <path d="M498,60 C503.470588,60 508,55.4705882 508,50 C508,44.5392157 503.460784,40 497.990196,40 C492.529412,40 488,44.5392157 488,50 C488,55.4705882 492.539216,60 498,60 Z M498,55.5098039 C497.529412,55.5098039 497.196078,55.1862745 497.196078,54.7156863 L497.196078,49.1568627 L497.284314,46.9019608 L496.205882,48.1862745 L494.882353,49.5196078 C494.754902,49.6568627 494.54902,49.754902 494.313725,49.754902 C493.872549,49.754902 493.54902,49.4117647 493.54902,48.9705882 C493.54902,48.745098 493.617647,48.5588235 493.754902,48.4215686 L497.372549,44.8039216 C497.588235,44.5882353 497.77451,44.5 498,44.5 C498.235294,44.5 498.431373,44.5980392 498.637255,44.8039216 L502.245098,48.4215686 C502.372549,48.5588235 502.470588,48.745098 502.470588,48.9705882 C502.470588,49.4117647 502.137255,49.754902 501.686275,49.754902 C501.460784,49.754902 501.264706,49.6666667 501.117647,49.5196078 L499.803922,48.1862745 L498.72549,46.8921569 L498.803922,49.1568627 L498.803922,54.7156863 C498.803922,55.1862745 498.470588,55.5098039 498,55.5098039 Z" id="ô€·"></path>
                </g>
            </g>
        </g>
    </g>
</svg>