<?xml version="1.0" encoding="UTF-8"?>
<svg width="48px" height="32px" viewBox="0 0 48 32" version="1.1" xmlns="http://www.w3.org/2000/svg" xmlns:xlink="http://www.w3.org/1999/xlink">
    <title>A1F6457C-8ED2-4143-9E78-2D9BBF6C903C</title>
    <g id="Page-1" stroke="none" stroke-width="1" fill="none" fill-rule="evenodd">
        <g id="Crowdfunding" transform="translate(-857.000000, -1705.000000)">
            <g id="VISA" transform="translate(772.000000, 1706.000000)">
                <g id="img-fi-visa" transform="translate(86.000000, 0.000000)">
                    <rect id="Rectangle" stroke="#3A3F47" opacity="0.2" x="0" y="0" width="46" height="30" rx="2.48161765"></rect>
                    <g id="Visa" transform="translate(4.600000, 8.774510)" fill="#16216A">
                        <path d="M26.319247,0.664756859 C25.7390814,0.444045414 24.8308714,0.205909383 23.6948928,0.205909383 C20.804092,0.205909383 18.7656334,1.68119114 18.7484433,3.7968265 C18.7312533,5.3592312 20.2024388,6.23191263 21.3126323,6.75319821 C22.451476,7.28610019 22.8368206,7.62587965 22.8310906,8.10215171 C22.8224955,8.83108029 21.9200156,9.16359951 21.077701,9.16359951 C19.9087747,9.16359951 19.2870663,8.99806593 18.324421,8.59294426 L17.9476715,8.42160248 L17.5365418,10.8566886 C18.2184155,11.1601669 19.4833198,11.4229877 20.7969295,11.4360562 C23.8739562,11.4360562 25.8708721,9.97819899 25.8937922,7.71881078 C25.9038198,6.4831171 25.125968,5.54073732 23.4370414,4.76389112 C22.4127983,4.26003012 21.7867924,3.92460681 21.7910899,3.41493762 C21.7910899,2.96335039 22.3239828,2.47981808 23.4685565,2.47981808 C24.4254717,2.46384554 25.120238,2.67584469 25.6588609,2.89510408 L25.9210099,3.02143235 L26.319247,0.664756859" id="Fill-3"></path>
                        <path d="M33.8227228,0.406292141 L31.5622255,0.406292141 C30.8617292,0.406292141 30.3374314,0.600866704 30.0308747,1.30801455 L25.6832136,11.2777828 L28.7573753,11.2777828 C28.7573753,11.2777828 29.258753,9.93754161 29.3733536,9.64422772 C29.7085605,9.64422772 32.6939067,9.64858387 33.120794,9.64858387 C33.208177,10.0290207 33.4774885,11.2777828 33.4774885,11.2777828 L36.1935232,11.2777828 L33.8227228,0.406292141 L33.8227228,0.406292141 Z M30.2142357,7.41968869 C30.457762,6.79095148 31.3802971,4.37619404 31.3802971,4.37619404 C31.3645395,4.40668707 31.6209584,3.74745683 31.7670742,3.33797902 L31.9661927,4.27600266 C31.9661927,4.27600266 32.5277358,6.87371828 32.6452014,7.41968869 L30.2142357,7.41968869 L30.2142357,7.41968869 Z" id="Fill-4"></path>
                        <path d="M10.3224325,0.403388043 L7.45741693,7.82190626 L7.15086027,6.31467942 C6.61939987,4.57802885 4.95625833,2.69326928 3.09829572,1.75088949 L5.71691997,11.2647144 L8.81400181,11.2618103 L13.4223794,0.403388043 L10.3224325,0.403388043" id="Fill-5"></path>
                        <path d="M4.79868247,0.397579847 L0.0771367896,0.397579847 L0.0413240948,0.622647438 C3.71284157,1.5229178 6.14380729,3.70099127 7.15086027,6.31467942 L6.12518469,1.3152748 C5.94755372,0.625551536 5.43471593,0.42226468 4.79868247,0.397579847" id="Fill-6"></path>
                        <polyline id="Fill-7" points="12.7777509 11.2734267 14.6070633 0.396127798 17.5351092 0.396127798 15.7014993 11.2734267 12.7777509 11.2734267"></polyline>
                    </g>
                </g>
            </g>
        </g>
    </g>
</svg>