<?xml version="1.0" encoding="UTF-8"?>
<svg width="17px" height="17px" viewBox="0 0 17 17" version="1.1" xmlns="http://www.w3.org/2000/svg" xmlns:xlink="http://www.w3.org/1999/xlink">
    <title>A74E3578-B73F-4F6F-A390-6989F4769F19</title>
    <g id="Page-1" stroke="none" stroke-width="1" fill="none" fill-rule="evenodd">
        <g id="Homepage" transform="translate(-30.000000, -853.000000)" fill="#FFFFFF" fill-rule="nonzero">
            <g id="Main-Section" transform="translate(0.000000, 0.000000)">
                <g id="Social-Media" transform="translate(30.000000, 711.000000)">
                    <g id="Youtube" transform="translate(0.000000, 142.000000)">
                        <path d="M13.894754,8.09709426 L3.10524599,8.09709426 C1.39023794,8.09709426 0,9.51984408 0,11.2728561 L0,13.8245925 C0,15.5776045 1.39023794,17 3.10524599,17 L13.894754,17 C15.6094155,17 17,15.5776045 17,13.8245925 L17,11.2728561 C17,9.51984408 15.6094155,8.09709426 13.894754,8.09709426 Z M5.3720513,10.0836286 L4.36897262,10.0836286 L4.36897262,15.1793055 L3.39986136,15.1793055 L3.39986136,10.0836286 L2.39747589,10.0836286 L2.39747589,9.21686747 L5.3720513,9.21686747 L5.3720513,10.0836286 L5.3720513,10.0836286 Z M8.20555793,15.1793055 L7.34597427,15.1793055 L7.34597427,14.6973777 C7.18618876,14.8756201 7.02155076,15.0116938 6.84963402,15.1034727 C6.67771729,15.1991495 6.51169287,15.2437987 6.35017432,15.2437987 C6.15052908,15.2437987 6.00218158,15.1789511 5.90062593,15.0471297 C5.80080331,14.9156627 5.74985218,14.7207654 5.74985218,14.457477 L5.74985218,10.7802977 L6.60943585,10.7802977 L6.60943585,14.1548547 C6.60943585,14.2590361 6.62849919,14.3338058 6.66281322,14.3802268 C6.6999001,14.4280652 6.75882317,14.4500354 6.83958244,14.4500354 C6.90197158,14.4500354 6.98238424,14.4195606 7.07908741,14.3579022 C7.17648378,14.2955351 7.265215,14.2175762 7.34597427,14.1211906 L7.34597427,10.7799433 L8.20555793,10.7799433 L8.20555793,15.1793055 L8.20555793,15.1793055 Z M11.3264012,14.2710843 C11.3264012,14.5818568 11.258813,14.8206945 11.1239831,14.9872431 C10.9898465,15.1537916 10.7936673,15.2356485 10.5396049,15.2356485 C10.370461,15.2356485 10.2200338,15.2044649 10.0893633,15.1399717 C9.95799947,15.0761871 9.83426101,14.9780298 9.72161396,14.8419561 L9.72161396,15.1789511 L8.85163211,15.1789511 L8.85163211,9.21686747 L9.72161396,9.21686747 L9.72161396,11.1371368 C9.83807368,11.0042523 9.96111893,10.9011339 10.0897099,10.832034 C10.2210737,10.7615167 10.3531307,10.7274982 10.4869207,10.7274982 C10.7590067,10.7274982 10.9662772,10.8203402 11.1097723,11.0077959 C11.2539605,11.1952516 11.325708,11.4698795 11.325708,11.8299079 L11.325708,14.2710843 L11.3264012,14.2710843 Z M14.3082553,13.0857548 L12.6632618,13.0857548 L12.6632618,13.9145996 C12.6632618,14.1456414 12.6909903,14.3065202 12.7471405,14.3961729 C12.8046771,14.48618 12.9013803,14.5301205 13.038983,14.5301205 C13.1817848,14.5301205 13.2805676,14.4922041 13.3381043,14.4163714 C13.3935613,14.3398299 13.4233694,14.1732814 13.4233694,13.9145996 L13.4233694,13.714387 L14.3082553,13.714387 L14.3082553,13.9401134 C14.3082553,14.3908575 14.201154,14.7306875 13.9838318,14.9599575 C13.7699757,15.1871013 13.4476319,15.2997874 13.0192265,15.2997874 C12.6334536,15.2997874 12.3294799,15.1796598 12.1086917,14.9379872 C11.8885967,14.6977321 11.7762962,14.3642807 11.7762962,13.9404678 L11.7762962,11.9645641 C11.7762962,11.5843373 11.8989948,11.2714387 12.1426591,11.0315379 C12.3856301,10.7916371 12.6986156,10.6718639 13.0836952,10.6718639 C13.4777866,10.6718639 13.7803739,10.7827782 13.9914572,11.0053154 C14.2025404,11.2282069 14.3082553,11.5471297 14.3082553,11.9642098 L14.3082553,13.0857548 L14.3082553,13.0857548 Z" id="Shape"></path>
                        <path d="M13.0473016,11.4408221 C12.9100455,11.4408221 12.8123025,11.4801559 12.7526862,11.5623671 C12.6916835,11.6396173 12.6632618,11.7717931 12.6632618,11.9564139 L12.6632618,12.4011339 L13.4233694,12.4011339 L13.4233694,11.9564139 C13.4233694,11.7717931 13.3928681,11.6392629 13.3325586,11.5623671 C13.2746753,11.4805103 13.1779721,11.4408221 13.0473016,11.4408221 Z" id="Path"></path>
                        <path d="M10.0813913,11.4259391 C10.0203886,11.4259391 9.95869268,11.439759 9.899423,11.4684621 C9.8391135,11.4964564 9.78019043,11.5428774 9.72196057,11.6031184 L9.72196057,14.3433735 C9.79093523,14.4142452 9.85921667,14.4688164 9.92576508,14.5 C9.99196689,14.5301205 10.0605949,14.5471297 10.1337289,14.5471297 C10.2394438,14.5471297 10.3163904,14.5159461 10.3659551,14.4528703 C10.4148266,14.3905032 10.4397822,14.2909284 10.4397822,14.1502481 L10.4397822,11.878455 C10.4397822,11.7289157 10.4106673,11.6169383 10.3496646,11.5400425 C10.2865823,11.4642098 10.1971578,11.4259391 10.0813913,11.4259391 Z" id="Path"></path>
                        <polygon id="Path" points="4.51801333 6.56909993 5.60774359 6.56909993 5.60774359 3.84408221 6.87666932 0 5.76891553 0 5.09441964 2.62579731 5.02579159 2.62579731 4.31767488 0 3.21997268 0 4.51801333 3.96669029"></polygon>
                        <path d="M8.35321223,6.69135365 C8.79340225,6.69135365 9.13862214,6.57335223 9.39025832,6.3373494 C9.64016148,6.10028349 9.76528636,5.77675408 9.76528636,5.3621545 L9.76528636,2.85896527 C9.76528636,2.49007796 9.63738863,2.18639263 9.38263298,1.95216159 C9.12614431,1.71863926 8.79756152,1.6009922 8.39688462,1.6009922 C7.9566946,1.6009922 7.60627561,1.71226081 7.34562766,1.93444366 C7.08567293,2.15662651 6.95500234,2.4546421 6.95500234,2.8313253 L6.95500234,5.34301914 C6.95500234,5.7551382 7.08220686,6.08114812 7.33626929,6.32565556 C7.59033172,6.56909993 7.93000591,6.69135365 8.35321223,6.69135365 Z M7.95184211,2.79447201 C7.95184211,2.6892275 7.98892899,2.60418143 8.06136971,2.53756201 C8.13658328,2.47236003 8.23190001,2.44082211 8.35043937,2.44082211 C8.47833711,2.44082211 8.58197239,2.47236003 8.66099863,2.53756201 C8.73967827,2.60418143 8.77884478,2.6892275 8.77884478,2.79447201 L8.77884478,5.43479802 C8.77884478,5.56413891 8.74037148,5.66690291 8.66238506,5.74096386 C8.58509185,5.81537916 8.48110996,5.8518781 8.35043937,5.8518781 C8.22254164,5.8518781 8.12375884,5.81644224 8.05443758,5.74202693 C7.98615614,5.66938342 7.9514955,5.56732814 7.9514955,5.43444366 L7.9514955,2.79447201 L7.95184211,2.79447201 Z" id="Shape"></path>
                        <path d="M11.2269252,6.63997165 C11.4088935,6.63997165 11.5957143,6.58681786 11.7880808,6.48476258 C11.982527,6.38128987 12.1686546,6.22997874 12.3457704,6.03260099 L12.3457704,6.56945429 L13.3138418,6.56945429 L13.3138418,1.72360028 L12.3457704,1.72360028 L12.3457704,5.40184266 C12.2556527,5.50708717 12.1554835,5.59355067 12.0480356,5.66229624 C11.938508,5.7303331 11.8483903,5.76435152 11.777336,5.76435152 C11.6865252,5.76435152 11.6196302,5.7388377 11.5804636,5.68603827 C11.5406039,5.63536499 11.5180745,5.55244507 11.5180745,5.43869596 L11.5180745,1.72360028 L10.5513895,1.72360028 L10.5513895,5.77356485 C10.5513895,6.06236712 10.6082329,6.27817151 10.7205334,6.42133239 C10.8349135,6.56661942 11.0019777,6.63997165 11.2269252,6.63997165 Z" id="Path"></path>
                    </g>
                </g>
            </g>
        </g>
    </g>
</svg>